{"glyphs":{"0":{"ha":1025,"x_min":76,"x_max":949,"o":"m 513 -21 q 188 108 299 -21 q 76 472 76 236 q 188 837 76 708 q 513 965 299 965 q 838 837 726 965 q 949 472 949 708 q 838 108 949 236 q 513 -21 726 -21 m 735 839 q 513 901 649 901 q 241 792 333 901 q 149 472 149 683 q 244 147 149 256 l 735 839 m 513 43 q 784 152 692 43 q 876 472 876 261 q 785 792 876 681 l 296 101 q 513 43 379 43 z "},"1":{"ha":617,"x_min":78,"x_max":568,"o":"m 122 0 q 98 6 106 0 q 90 28 90 13 l 90 38 q 122 68 90 68 l 292 68 l 292 853 l 131 756 q 108 747 118 747 q 89 763 97 747 l 83 771 q 78 789 78 781 q 94 814 78 804 l 300 938 q 326 944 311 944 l 335 944 q 367 913 367 944 l 367 68 l 536 68 q 568 38 568 68 l 568 28 q 560 6 568 13 q 536 0 553 0 l 122 0 z "},"2":{"ha":794,"x_min":76,"x_max":718,"o":"m 108 0 q 76 32 76 0 l 76 76 q 153 257 76 167 q 368 417 229 347 q 533 510 475 469 q 619 599 592 551 q 646 714 646 646 q 576 854 646 807 q 399 901 506 901 q 147 843 239 901 q 138 839 140 839 q 128 847 132 839 l 110 878 q 107 888 107 882 q 117 900 107 894 q 234 947 158 929 q 399 965 310 965 q 561 936 489 965 q 676 850 633 907 q 718 714 718 793 q 683 572 718 632 q 586 467 649 513 q 424 372 524 421 q 220 228 289 306 q 151 68 151 151 l 675 68 q 707 38 707 68 l 707 28 q 699 6 707 13 q 675 0 692 0 l 108 0 z "},"3":{"ha":813,"x_min":76,"x_max":736,"o":"m 393 -21 q 215 -4 293 -21 q 88 44 138 13 q 78 54 79 50 q 81 67 76 58 l 99 97 q 108 106 103 106 q 118 101 111 106 q 389 43 218 43 q 595 103 526 43 q 664 261 664 163 q 606 409 664 361 q 431 457 547 457 l 310 457 q 278 488 278 457 l 278 497 q 285 519 278 513 q 310 525 293 525 l 440 525 q 584 580 535 525 q 633 713 633 635 q 568 854 633 807 q 382 901 503 901 q 244 885 307 901 q 140 843 182 869 q 131 839 135 839 q 121 847 125 839 l 103 878 q 100 888 100 882 q 110 900 100 894 q 226 947 151 929 q 388 965 301 965 q 620 896 535 965 q 706 713 706 826 q 668 581 706 642 q 563 492 631 519 q 695 407 654 464 q 736 261 736 350 q 697 115 736 179 q 580 15 657 51 q 393 -21 503 -21 z "},"4":{"ha":869,"x_min":49,"x_max":821,"o":"m 618 0 q 586 32 586 0 l 586 222 l 76 222 q 49 247 49 222 l 49 257 q 61 290 49 276 l 589 931 q 617 944 600 944 l 629 944 q 661 913 661 944 l 661 290 l 789 290 q 821 260 821 290 l 821 250 q 813 228 821 235 q 789 222 806 222 l 661 222 l 661 32 q 629 0 661 0 l 618 0 m 586 290 l 586 826 l 143 290 l 586 290 z "},"5":{"ha":836,"x_min":76,"x_max":760,"o":"m 386 -21 q 213 -3 296 -21 q 88 44 129 15 q 78 54 79 50 q 81 67 76 58 l 99 97 q 108 106 103 106 q 118 101 111 106 q 231 59 160 75 q 386 43 303 43 q 607 107 526 43 q 688 294 688 171 q 617 493 688 435 q 403 551 546 551 q 176 506 271 551 q 153 500 165 500 q 120 514 133 500 q 108 550 107 528 l 132 913 q 164 944 132 944 l 686 944 q 710 938 703 944 q 718 917 718 932 l 718 907 q 686 876 718 876 l 204 876 l 185 578 q 288 606 235 597 q 418 615 342 615 q 668 536 576 615 q 760 294 760 457 q 657 63 760 146 q 386 -21 554 -21 z "},"6":{"ha":885,"x_min":76,"x_max":808,"o":"m 438 -21 q 176 79 275 -21 q 76 403 76 179 q 133 740 76 614 q 278 915 190 865 q 467 965 365 965 q 608 949 544 965 q 714 903 671 932 q 724 893 722 897 q 721 881 725 889 l 703 850 q 693 842 699 842 q 683 846 690 842 q 465 901 596 901 q 255 805 335 901 q 156 529 175 708 q 278 628 203 596 q 458 660 353 660 q 639 622 560 660 q 763 512 718 585 q 808 338 808 439 q 710 70 808 161 q 438 -21 613 -21 m 438 43 q 736 338 736 43 q 660 531 736 467 q 446 594 585 594 q 312 566 381 594 q 197 482 243 538 q 151 350 151 426 q 232 119 151 196 q 438 43 313 43 z "},"7":{"ha":815,"x_min":63,"x_max":753,"o":"m 201 0 q 192 8 192 0 q 197 25 192 15 l 654 876 l 94 876 q 63 907 63 876 l 63 917 q 70 938 63 932 q 94 944 78 944 l 722 944 q 753 917 753 944 q 747 894 753 907 q 732 865 740 881 l 274 8 q 267 1 271 3 q 257 0 264 0 l 201 0 z "},"8":{"ha":875,"x_min":76,"x_max":799,"o":"m 438 -21 q 172 50 268 -21 q 76 249 76 121 q 127 405 76 340 q 263 492 178 469 q 106 706 106 549 q 191 898 106 831 q 438 965 276 965 q 684 898 599 965 q 769 706 769 831 q 613 492 769 549 q 748 405 697 469 q 799 249 799 340 q 703 50 799 121 q 438 -21 607 -21 m 438 524 q 631 565 565 524 q 697 706 697 607 q 633 856 697 810 q 438 901 569 901 q 242 856 306 901 q 178 706 178 810 q 244 565 178 607 q 438 524 310 524 m 438 43 q 655 94 583 43 q 726 249 726 144 q 438 458 726 458 q 149 249 149 458 q 220 94 149 144 q 438 43 292 43 z "},"9":{"ha":874,"x_min":76,"x_max":797,"o":"m 407 -21 q 266 -4 329 -21 q 160 42 203 13 q 150 51 151 47 q 153 64 149 56 l 171 94 q 181 103 175 103 q 190 99 183 103 q 408 43 278 43 q 626 141 543 43 q 719 417 708 239 q 429 285 611 285 q 247 323 326 285 q 122 433 167 361 q 76 604 76 504 q 178 874 76 782 q 454 965 279 965 q 705 863 613 965 q 797 542 797 761 q 683 106 797 233 q 407 -21 569 -21 m 442 350 q 572 378 507 350 q 680 462 638 407 q 722 594 722 517 q 651 824 722 747 q 454 901 581 901 q 149 604 149 901 q 225 415 149 479 q 442 350 301 350 z "},"\r":{"ha":625,"x_min":0,"x_max":0,"o":""}," ":{"ha":625,"x_min":0,"x_max":0,"o":""},"A":{"ha":1000,"x_min":75,"x_max":922,"o":"m 96 0 q 80 8 85 0 q 79 25 75 15 l 460 921 q 470 940 465 935 q 488 944 475 944 l 513 944 q 530 940 525 944 q 540 921 535 935 l 921 25 q 922 17 922 22 q 917 5 922 10 q 904 0 913 0 l 878 0 q 856 6 863 0 q 843 24 849 11 l 738 274 l 263 274 l 157 24 q 144 6 151 11 q 122 0 138 0 l 96 0 m 708 342 l 500 835 l 290 342 l 708 342 z "},"Á":{"ha":1000,"x_min":75,"x_max":922,"o":"m 499 1029 q 485 1040 485 1029 l 488 1051 l 558 1247 q 569 1263 563 1258 q 589 1267 575 1267 l 626 1267 q 643 1256 643 1267 q 640 1244 643 1249 l 547 1044 q 537 1033 543 1036 q 519 1029 531 1029 l 499 1029 m 96 0 q 80 8 85 0 q 79 25 75 15 l 460 921 q 470 940 465 935 q 488 944 475 944 l 513 944 q 530 940 525 944 q 540 921 535 935 l 921 25 q 922 17 922 22 q 917 5 922 10 q 904 0 913 0 l 878 0 q 856 6 863 0 q 843 24 849 11 l 738 274 l 263 274 l 157 24 q 144 6 151 11 q 122 0 138 0 l 96 0 m 708 342 l 500 835 l 290 342 l 708 342 z "},"Ă":{"ha":1000,"x_min":75,"x_max":922,"o":"m 500 1053 q 353 1110 403 1053 q 304 1265 304 1168 q 310 1283 304 1276 q 326 1290 317 1290 l 360 1290 q 378 1284 374 1290 q 383 1264 383 1278 q 408 1160 383 1196 q 500 1124 432 1124 q 592 1160 568 1124 q 617 1264 617 1196 q 622 1284 617 1278 q 640 1290 626 1290 l 674 1290 q 690 1283 683 1290 q 696 1265 696 1276 q 647 1110 696 1168 q 500 1053 597 1053 m 96 0 q 80 8 85 0 q 79 25 75 15 l 460 921 q 470 940 465 935 q 488 944 475 944 l 513 944 q 530 940 525 944 q 540 921 535 935 l 921 25 q 922 17 922 22 q 917 5 922 10 q 904 0 913 0 l 878 0 q 856 6 863 0 q 843 24 849 11 l 738 274 l 263 274 l 157 24 q 144 6 151 11 q 122 0 138 0 l 96 0 m 708 342 l 500 835 l 290 342 l 708 342 z "},"Ắ":{"ha":1000,"x_min":75,"x_max":922,"o":"m 479 1193 q 465 1204 465 1193 l 468 1215 l 522 1365 q 533 1381 526 1376 q 553 1385 539 1385 l 590 1385 q 607 1374 607 1385 q 604 1363 607 1367 l 528 1208 q 517 1197 524 1200 q 500 1193 511 1193 l 479 1193 m 500 1036 q 360 1080 415 1036 q 304 1204 304 1124 q 310 1222 304 1215 q 326 1229 317 1229 l 360 1229 q 378 1223 374 1229 q 383 1203 383 1217 q 415 1131 383 1156 q 500 1107 446 1107 q 585 1131 554 1107 q 617 1203 617 1156 q 622 1223 617 1217 q 640 1229 626 1229 l 674 1229 q 690 1222 683 1229 q 696 1204 696 1215 q 640 1080 696 1124 q 500 1036 585 1036 m 96 0 q 80 8 85 0 q 79 25 75 15 l 460 921 q 470 940 465 935 q 488 944 475 944 l 513 944 q 530 940 525 944 q 540 921 535 935 l 921 25 q 922 17 922 22 q 917 5 922 10 q 904 0 913 0 l 878 0 q 856 6 863 0 q 843 24 849 11 l 738 274 l 263 274 l 157 24 q 144 6 151 11 q 122 0 138 0 l 96 0 m 708 342 l 500 835 l 290 342 l 708 342 z "},"Ặ":{"ha":1000,"x_min":75,"x_max":922,"o":"m 500 1036 q 353 1094 403 1036 q 304 1249 304 1151 q 310 1267 304 1260 q 326 1274 317 1274 l 360 1274 q 378 1267 374 1274 q 383 1247 383 1261 q 408 1143 383 1179 q 500 1107 432 1107 q 592 1143 568 1107 q 617 1247 617 1179 q 622 1267 617 1261 q 640 1274 626 1274 l 674 1274 q 690 1267 683 1274 q 696 1249 696 1260 q 647 1094 696 1151 q 500 1036 597 1036 m 96 0 q 80 8 85 0 q 79 25 75 15 l 460 921 q 470 940 465 935 q 488 944 475 944 l 513 944 q 530 940 525 944 q 540 921 535 935 l 921 25 q 922 17 922 22 q 917 5 922 10 q 904 0 913 0 l 878 0 q 856 6 863 0 q 843 24 849 11 l 738 274 l 263 274 l 157 24 q 144 6 151 11 q 122 0 138 0 l 96 0 m 708 342 l 500 835 l 290 342 l 708 342 m 490 -224 q 458 -209 471 -224 q 444 -175 444 -194 l 444 -157 q 458 -123 444 -137 q 490 -108 471 -108 l 510 -108 q 542 -123 529 -108 q 556 -157 556 -137 l 556 -175 q 543 -210 556 -196 q 510 -224 531 -224 l 490 -224 z "},"Ằ":{"ha":1000,"x_min":75,"x_max":922,"o":"m 500 1193 q 483 1197 489 1193 q 472 1208 476 1200 l 396 1363 q 393 1374 393 1367 q 410 1385 393 1385 l 447 1385 q 467 1381 461 1385 q 478 1365 474 1376 l 532 1215 l 535 1204 q 521 1193 535 1193 l 500 1193 m 500 1036 q 360 1080 415 1036 q 304 1204 304 1124 q 310 1222 304 1215 q 326 1229 317 1229 l 360 1229 q 378 1223 374 1229 q 383 1203 383 1217 q 415 1131 383 1156 q 500 1107 446 1107 q 585 1131 554 1107 q 617 1203 617 1156 q 622 1223 617 1217 q 640 1229 626 1229 l 674 1229 q 690 1222 683 1229 q 696 1204 696 1215 q 640 1080 696 1124 q 500 1036 585 1036 m 96 0 q 80 8 85 0 q 79 25 75 15 l 460 921 q 470 940 465 935 q 488 944 475 944 l 513 944 q 530 940 525 944 q 540 921 535 935 l 921 25 q 922 17 922 22 q 917 5 922 10 q 904 0 913 0 l 878 0 q 856 6 863 0 q 843 24 849 11 l 738 274 l 263 274 l 157 24 q 144 6 151 11 q 122 0 138 0 l 96 0 m 708 342 l 500 835 l 290 342 l 708 342 z "},"Ẳ":{"ha":1000,"x_min":75,"x_max":922,"o":"m 475 1185 q 444 1217 444 1185 l 444 1243 q 457 1274 444 1263 q 492 1285 469 1285 q 540 1294 526 1285 q 553 1326 553 1303 q 539 1356 553 1347 q 494 1364 525 1364 q 415 1346 449 1364 q 406 1347 407 1342 l 386 1385 q 385 1392 385 1390 q 390 1397 386 1394 q 439 1416 410 1408 q 497 1424 468 1424 q 589 1399 557 1424 q 621 1326 621 1374 q 590 1253 621 1278 q 514 1229 560 1229 l 514 1217 q 486 1185 514 1185 l 475 1185 m 500 1036 q 360 1079 415 1036 q 306 1203 306 1122 q 312 1221 306 1214 q 328 1228 318 1228 l 358 1228 q 377 1222 372 1228 q 382 1201 382 1215 q 500 1104 382 1104 q 618 1201 618 1104 q 623 1222 618 1215 q 642 1228 628 1228 l 672 1228 q 688 1221 682 1228 q 694 1203 694 1214 q 640 1079 694 1122 q 500 1036 585 1036 m 96 0 q 80 8 85 0 q 79 25 75 15 l 460 921 q 470 940 465 935 q 488 944 475 944 l 513 944 q 530 940 525 944 q 540 921 535 935 l 921 25 q 922 17 922 22 q 917 5 922 10 q 904 0 913 0 l 878 0 q 856 6 863 0 q 843 24 849 11 l 738 274 l 263 274 l 157 24 q 144 6 151 11 q 122 0 138 0 l 96 0 m 708 342 l 500 835 l 290 342 l 708 342 z "},"Ẵ":{"ha":1000,"x_min":75,"x_max":922,"o":"m 592 1279 q 535 1291 558 1279 q 485 1324 511 1303 q 447 1349 461 1340 q 413 1357 432 1357 q 367 1347 383 1357 q 333 1315 350 1338 q 301 1294 317 1294 q 278 1307 290 1294 q 268 1325 268 1317 q 282 1354 268 1336 q 410 1419 331 1419 q 472 1408 447 1419 q 519 1375 496 1396 q 553 1350 539 1358 q 589 1342 568 1342 q 635 1351 618 1342 q 668 1383 651 1361 q 700 1404 685 1404 q 724 1392 711 1404 q 733 1374 733 1382 q 719 1344 733 1363 q 592 1279 671 1279 m 506 1036 q 366 1079 421 1036 q 311 1203 311 1122 q 317 1221 311 1214 q 333 1228 324 1228 l 364 1228 q 383 1222 378 1228 q 388 1201 388 1215 q 506 1104 388 1104 q 624 1201 624 1104 q 628 1222 624 1215 q 647 1228 633 1228 l 678 1228 q 694 1221 688 1228 q 700 1203 700 1214 q 645 1079 700 1122 q 506 1036 590 1036 m 96 0 q 80 8 85 0 q 79 25 75 15 l 460 921 q 470 940 465 935 q 488 944 475 944 l 513 944 q 530 940 525 944 q 540 921 535 935 l 921 25 q 922 17 922 22 q 917 5 922 10 q 904 0 913 0 l 878 0 q 856 6 863 0 q 843 24 849 11 l 738 274 l 263 274 l 157 24 q 144 6 151 11 q 122 0 138 0 l 96 0 m 708 342 l 500 835 l 290 342 l 708 342 z "},"Ǎ":{"ha":1000,"x_min":75,"x_max":922,"o":"m 492 1036 q 476 1040 481 1036 q 460 1060 471 1044 l 304 1276 q 301 1286 301 1279 q 307 1297 301 1293 q 321 1301 313 1301 l 347 1301 q 368 1297 363 1301 q 383 1278 374 1292 l 500 1108 l 617 1278 q 632 1297 626 1292 q 653 1301 638 1301 l 679 1301 q 697 1293 690 1301 q 696 1276 703 1285 l 540 1060 q 524 1040 529 1044 q 508 1036 519 1036 l 492 1036 m 96 0 q 80 8 85 0 q 79 25 75 15 l 460 921 q 470 940 465 935 q 488 944 475 944 l 513 944 q 530 940 525 944 q 540 921 535 935 l 921 25 q 922 17 922 22 q 917 5 922 10 q 904 0 913 0 l 878 0 q 856 6 863 0 q 843 24 849 11 l 738 274 l 263 274 l 157 24 q 144 6 151 11 q 122 0 138 0 l 96 0 m 708 342 l 500 835 l 290 342 l 708 342 z "},"Â":{"ha":1000,"x_min":75,"x_max":922,"o":"m 321 1019 q 303 1028 310 1019 q 304 1044 297 1036 l 460 1261 q 476 1281 471 1276 q 492 1285 481 1285 l 508 1285 q 524 1281 519 1285 q 540 1261 529 1276 l 696 1044 q 699 1035 699 1042 q 693 1024 699 1028 q 679 1019 688 1019 l 653 1019 q 632 1024 638 1019 q 617 1043 626 1029 l 500 1213 l 383 1043 q 368 1024 374 1029 q 347 1019 363 1019 l 321 1019 m 96 0 q 80 8 85 0 q 79 25 75 15 l 460 921 q 470 940 465 935 q 488 944 475 944 l 513 944 q 530 940 525 944 q 540 921 535 935 l 921 25 q 922 17 922 22 q 917 5 922 10 q 904 0 913 0 l 878 0 q 856 6 863 0 q 843 24 849 11 l 738 274 l 263 274 l 157 24 q 144 6 151 11 q 122 0 138 0 l 96 0 m 708 342 l 500 835 l 290 342 l 708 342 z "},"Ấ":{"ha":1000,"x_min":75,"x_max":922,"o":"m 633 1183 q 619 1194 619 1183 l 622 1206 l 676 1356 q 687 1371 681 1367 q 707 1375 693 1375 l 744 1375 q 761 1364 761 1375 q 758 1353 761 1357 l 682 1199 q 672 1187 678 1190 q 654 1183 665 1183 l 633 1183 m 319 1038 q 308 1042 313 1038 q 303 1051 303 1046 q 307 1063 303 1057 l 456 1238 q 474 1256 468 1251 q 492 1261 481 1261 l 500 1261 q 517 1256 511 1261 q 536 1238 524 1251 l 685 1063 q 689 1051 689 1057 q 684 1042 689 1046 q 672 1038 679 1038 l 646 1038 q 628 1040 633 1038 q 613 1053 622 1043 l 496 1189 l 379 1053 q 364 1040 369 1043 q 346 1038 358 1038 l 319 1038 m 96 0 q 80 8 85 0 q 79 25 75 15 l 460 921 q 470 940 465 935 q 488 944 475 944 l 513 944 q 530 940 525 944 q 540 921 535 935 l 921 25 q 922 17 922 22 q 917 5 922 10 q 904 0 913 0 l 878 0 q 856 6 863 0 q 843 24 849 11 l 738 274 l 263 274 l 157 24 q 144 6 151 11 q 122 0 138 0 l 96 0 m 708 342 l 500 835 l 290 342 l 708 342 z "},"Ậ":{"ha":1000,"x_min":75,"x_max":922,"o":"m 321 1036 q 303 1044 310 1036 q 304 1061 297 1053 l 460 1278 q 476 1297 471 1293 q 492 1301 481 1301 l 508 1301 q 524 1297 519 1301 q 540 1278 529 1293 l 696 1061 q 699 1051 699 1058 q 693 1040 699 1044 q 679 1036 688 1036 l 653 1036 q 632 1041 638 1036 q 617 1060 626 1046 l 500 1229 l 383 1060 q 368 1041 374 1046 q 347 1036 363 1036 l 321 1036 m 96 0 q 80 8 85 0 q 79 25 75 15 l 460 921 q 470 940 465 935 q 488 944 475 944 l 513 944 q 530 940 525 944 q 540 921 535 935 l 921 25 q 922 17 922 22 q 917 5 922 10 q 904 0 913 0 l 878 0 q 856 6 863 0 q 843 24 849 11 l 738 274 l 263 274 l 157 24 q 144 6 151 11 q 122 0 138 0 l 96 0 m 708 342 l 500 835 l 290 342 l 708 342 m 490 -224 q 458 -209 471 -224 q 444 -175 444 -194 l 444 -157 q 458 -123 444 -137 q 490 -108 471 -108 l 510 -108 q 542 -123 529 -108 q 556 -157 556 -137 l 556 -175 q 543 -210 556 -196 q 510 -224 531 -224 l 490 -224 z "},"Ầ":{"ha":1000,"x_min":75,"x_max":922,"o":"m 350 1183 q 333 1187 339 1183 q 322 1199 326 1190 l 246 1353 q 243 1364 243 1357 q 260 1375 243 1375 l 297 1375 q 317 1371 311 1375 q 328 1356 324 1367 l 382 1206 l 385 1194 q 371 1183 385 1183 l 350 1183 m 332 1038 q 320 1042 325 1038 q 315 1051 315 1046 q 319 1063 315 1057 l 468 1238 q 487 1256 481 1251 q 504 1261 493 1261 l 513 1261 q 530 1256 524 1261 q 549 1238 536 1251 l 697 1063 q 701 1051 701 1057 q 697 1042 701 1046 q 685 1038 692 1038 l 658 1038 q 640 1040 646 1038 q 625 1053 635 1043 l 508 1189 l 392 1053 q 376 1040 382 1043 q 358 1038 371 1038 l 332 1038 m 96 0 q 80 8 85 0 q 79 25 75 15 l 460 921 q 470 940 465 935 q 488 944 475 944 l 513 944 q 530 940 525 944 q 540 921 535 935 l 921 25 q 922 17 922 22 q 917 5 922 10 q 904 0 913 0 l 878 0 q 856 6 863 0 q 843 24 849 11 l 738 274 l 263 274 l 157 24 q 144 6 151 11 q 122 0 138 0 l 96 0 m 708 342 l 500 835 l 290 342 l 708 342 z "},"Ẩ":{"ha":1000,"x_min":75,"x_max":922,"o":"m 661 1171 q 629 1203 629 1171 l 629 1235 q 642 1267 629 1256 q 678 1278 654 1278 q 728 1289 714 1278 q 743 1325 743 1300 q 681 1367 743 1367 q 599 1347 633 1367 q 588 1349 589 1343 l 568 1389 q 567 1397 567 1394 q 572 1401 568 1399 q 622 1422 592 1414 q 683 1429 653 1429 q 780 1402 746 1429 q 814 1325 814 1375 q 781 1247 814 1274 q 703 1219 749 1219 l 703 1203 q 672 1171 703 1171 l 661 1171 m 325 1038 q 313 1042 318 1038 q 308 1051 308 1046 q 313 1063 308 1057 l 461 1238 q 480 1256 474 1251 q 497 1261 486 1261 l 506 1261 q 523 1256 517 1261 q 542 1238 529 1251 l 690 1063 q 694 1051 694 1057 q 690 1042 694 1046 q 678 1038 685 1038 l 651 1038 q 633 1040 639 1038 q 618 1053 628 1043 l 501 1189 l 385 1053 q 369 1040 375 1043 q 351 1038 364 1038 l 325 1038 m 96 0 q 80 8 85 0 q 79 25 75 15 l 460 921 q 470 940 465 935 q 488 944 475 944 l 513 944 q 530 940 525 944 q 540 921 535 935 l 921 25 q 922 17 922 22 q 917 5 922 10 q 904 0 913 0 l 878 0 q 856 6 863 0 q 843 24 849 11 l 738 274 l 263 274 l 157 24 q 144 6 151 11 q 122 0 138 0 l 96 0 m 708 342 l 500 835 l 290 342 l 708 342 z "},"Ẫ":{"ha":1000,"x_min":75,"x_max":922,"o":"m 592 1285 q 535 1297 558 1285 q 485 1329 511 1308 q 447 1354 461 1346 q 413 1363 432 1363 q 367 1353 383 1363 q 333 1321 350 1343 q 301 1300 317 1300 q 278 1313 290 1300 q 268 1331 268 1322 q 282 1360 268 1342 q 410 1425 331 1425 q 472 1413 447 1425 q 519 1381 496 1401 q 553 1356 539 1364 q 589 1347 568 1347 q 635 1357 618 1347 q 668 1389 651 1367 q 700 1410 685 1410 q 724 1397 711 1410 q 733 1379 733 1388 q 719 1350 733 1368 q 592 1285 671 1285 m 324 1038 q 312 1042 317 1038 q 307 1051 307 1046 q 311 1063 307 1057 l 460 1238 q 478 1256 472 1251 q 496 1261 485 1261 l 504 1261 q 522 1256 515 1261 q 540 1238 528 1251 l 689 1063 q 693 1051 693 1057 q 688 1042 693 1046 q 676 1038 683 1038 l 650 1038 q 632 1040 638 1038 q 617 1053 626 1043 l 500 1189 l 383 1053 q 368 1040 374 1043 q 350 1038 363 1038 l 324 1038 m 96 0 q 80 8 85 0 q 79 25 75 15 l 460 921 q 470 940 465 935 q 488 944 475 944 l 513 944 q 530 940 525 944 q 540 921 535 935 l 921 25 q 922 17 922 22 q 917 5 922 10 q 904 0 913 0 l 878 0 q 856 6 863 0 q 843 24 849 11 l 738 274 l 263 274 l 157 24 q 144 6 151 11 q 122 0 138 0 l 96 0 m 708 342 l 500 835 l 290 342 l 708 342 z "},"Ä":{"ha":1000,"x_min":75,"x_max":922,"o":"m 365 1025 q 333 1040 346 1025 q 319 1074 319 1054 l 319 1092 q 333 1126 319 1111 q 365 1140 346 1140 l 385 1140 q 417 1126 404 1140 q 431 1092 431 1111 l 431 1074 q 418 1039 431 1053 q 385 1025 406 1025 l 365 1025 m 615 1025 q 583 1040 596 1025 q 569 1074 569 1054 l 569 1092 q 583 1126 569 1111 q 615 1140 596 1140 l 635 1140 q 667 1126 654 1140 q 681 1092 681 1111 l 681 1074 q 668 1039 681 1053 q 635 1025 656 1025 l 615 1025 m 96 0 q 80 8 85 0 q 79 25 75 15 l 460 921 q 470 940 465 935 q 488 944 475 944 l 513 944 q 530 940 525 944 q 540 921 535 935 l 921 25 q 922 17 922 22 q 917 5 922 10 q 904 0 913 0 l 878 0 q 856 6 863 0 q 843 24 849 11 l 738 274 l 263 274 l 157 24 q 144 6 151 11 q 122 0 138 0 l 96 0 m 708 342 l 500 835 l 290 342 l 708 342 z "},"Ạ":{"ha":1000,"x_min":75,"x_max":922,"o":"m 96 0 q 80 8 85 0 q 79 25 75 15 l 460 921 q 470 940 465 935 q 488 944 475 944 l 513 944 q 530 940 525 944 q 540 921 535 935 l 921 25 q 922 17 922 22 q 917 5 922 10 q 904 0 913 0 l 878 0 q 856 6 863 0 q 843 24 849 11 l 738 274 l 263 274 l 157 24 q 144 6 151 11 q 122 0 138 0 l 96 0 m 708 342 l 500 835 l 290 342 l 708 342 m 490 -224 q 458 -209 471 -224 q 444 -175 444 -194 l 444 -157 q 458 -123 444 -137 q 490 -108 471 -108 l 510 -108 q 542 -123 529 -108 q 556 -157 556 -137 l 556 -175 q 543 -210 556 -196 q 510 -224 531 -224 l 490 -224 z "},"À":{"ha":1000,"x_min":75,"x_max":922,"o":"m 503 1029 q 485 1033 492 1029 q 475 1044 479 1036 l 382 1244 q 379 1256 379 1249 q 396 1267 379 1267 l 433 1267 q 453 1263 447 1267 q 464 1247 460 1258 l 535 1051 l 538 1040 q 524 1029 538 1029 l 503 1029 m 96 0 q 80 8 85 0 q 79 25 75 15 l 460 921 q 470 940 465 935 q 488 944 475 944 l 513 944 q 530 940 525 944 q 540 921 535 935 l 921 25 q 922 17 922 22 q 917 5 922 10 q 904 0 913 0 l 878 0 q 856 6 863 0 q 843 24 849 11 l 738 274 l 263 274 l 157 24 q 144 6 151 11 q 122 0 138 0 l 96 0 m 708 342 l 500 835 l 290 342 l 708 342 z "},"Ả":{"ha":1000,"x_min":75,"x_max":922,"o":"m 494 1024 q 463 1056 463 1024 l 463 1108 q 475 1140 463 1129 q 511 1151 488 1151 q 588 1167 567 1151 q 610 1219 610 1183 q 586 1266 610 1251 q 514 1281 563 1281 q 399 1253 453 1281 q 388 1254 389 1249 l 368 1296 q 367 1303 367 1301 q 372 1308 368 1306 q 437 1335 399 1325 q 514 1344 475 1344 q 640 1310 597 1344 q 682 1219 682 1276 q 639 1127 682 1161 q 538 1093 596 1093 l 538 1056 q 506 1024 538 1024 l 494 1024 m 96 0 q 80 8 85 0 q 79 25 75 15 l 460 921 q 470 940 465 935 q 488 944 475 944 l 513 944 q 530 940 525 944 q 540 921 535 935 l 921 25 q 922 17 922 22 q 917 5 922 10 q 904 0 913 0 l 878 0 q 856 6 863 0 q 843 24 849 11 l 738 274 l 263 274 l 157 24 q 144 6 151 11 q 122 0 138 0 l 96 0 m 708 342 l 500 835 l 290 342 l 708 342 z "},"Ā":{"ha":1000,"x_min":75,"x_max":922,"o":"m 307 1113 q 283 1119 290 1113 q 275 1140 275 1125 l 275 1150 q 307 1181 275 1181 l 693 1181 q 725 1150 725 1181 l 725 1140 q 717 1119 725 1125 q 693 1113 710 1113 l 307 1113 m 96 0 q 80 8 85 0 q 79 25 75 15 l 460 921 q 470 940 465 935 q 488 944 475 944 l 513 944 q 530 940 525 944 q 540 921 535 935 l 921 25 q 922 17 922 22 q 917 5 922 10 q 904 0 913 0 l 878 0 q 856 6 863 0 q 843 24 849 11 l 738 274 l 263 274 l 157 24 q 144 6 151 11 q 122 0 138 0 l 96 0 m 708 342 l 500 835 l 290 342 l 708 342 z "},"Ą":{"ha":1000,"x_min":75,"x_max":931,"o":"m 929 -239 q 931 -247 931 -242 q 915 -262 931 -256 q 850 -274 894 -274 q 775 -247 801 -274 q 749 -181 749 -221 q 769 -101 749 -142 q 833 -10 789 -61 q 854 7 844 4 q 843 24 847 14 l 738 274 l 263 274 l 157 24 q 144 6 151 11 q 122 0 138 0 l 96 0 q 80 8 85 0 q 79 25 75 15 l 460 921 q 470 940 465 935 q 488 944 475 944 l 513 944 q 530 940 525 944 q 540 921 535 935 l 921 25 q 922 17 922 22 q 914 1 922 6 q 911 -14 919 -6 q 849 -103 865 -69 q 832 -169 832 -137 q 841 -197 832 -187 q 865 -207 850 -207 q 896 -201 885 -207 q 906 -199 904 -199 q 915 -208 911 -199 l 929 -239 m 708 342 l 500 835 l 290 342 l 708 342 z "},"Å":{"ha":1000,"x_min":75,"x_max":922,"o":"m 921 25 q 922 17 922 22 q 917 5 922 10 q 904 0 913 0 l 878 0 q 856 6 863 0 q 843 24 849 11 l 738 274 l 263 274 l 157 24 q 144 6 151 11 q 122 0 138 0 l 96 0 q 80 8 85 0 q 79 25 75 15 l 450 897 q 376 951 404 913 q 349 1040 349 990 q 392 1149 349 1104 q 500 1193 436 1193 q 608 1149 564 1193 q 653 1040 653 1104 q 624 952 653 992 q 550 897 596 913 l 921 25 m 404 1040 q 433 973 404 1001 q 500 944 461 944 q 568 973 540 944 q 596 1040 596 1001 q 568 1108 596 1081 q 500 1136 540 1136 q 433 1108 461 1136 q 404 1040 404 1081 m 708 342 l 500 835 l 290 342 l 708 342 z "},"Ǻ":{"ha":1000,"x_min":75,"x_max":922,"o":"m 467 1238 q 453 1249 453 1238 l 456 1260 l 526 1456 q 537 1471 531 1467 q 557 1475 543 1475 l 594 1475 q 611 1464 611 1475 q 608 1453 611 1457 l 515 1253 q 505 1241 511 1244 q 488 1238 499 1238 l 467 1238 m 921 25 q 922 17 922 22 q 917 5 922 10 q 904 0 913 0 l 878 0 q 856 6 863 0 q 843 24 849 11 l 738 274 l 263 274 l 157 24 q 144 6 151 11 q 122 0 138 0 l 96 0 q 80 8 85 0 q 79 25 75 15 l 450 897 q 376 951 404 913 q 349 1040 349 990 q 392 1149 349 1104 q 500 1193 436 1193 q 608 1149 564 1193 q 653 1040 653 1104 q 624 952 653 992 q 550 897 596 913 l 921 25 m 404 1040 q 433 973 404 1001 q 500 944 461 944 q 568 973 540 944 q 596 1040 596 1001 q 568 1108 596 1081 q 500 1136 540 1136 q 433 1108 461 1136 q 404 1040 404 1081 m 708 342 l 500 835 l 290 342 l 708 342 z "},"Ã":{"ha":1000,"x_min":75,"x_max":922,"o":"m 606 1025 q 542 1036 568 1025 q 486 1069 517 1047 q 442 1096 460 1088 q 399 1104 424 1104 q 344 1094 367 1104 q 304 1061 322 1083 q 272 1040 286 1040 q 247 1053 260 1040 q 238 1072 238 1063 q 251 1101 238 1083 q 396 1168 306 1168 q 462 1157 436 1168 q 517 1124 488 1146 q 559 1097 542 1106 q 603 1089 576 1089 q 657 1099 635 1089 q 697 1132 679 1110 q 729 1153 715 1153 q 754 1140 742 1153 q 764 1121 764 1131 q 750 1092 764 1110 q 606 1025 696 1025 m 96 0 q 80 8 85 0 q 79 25 75 15 l 460 921 q 470 940 465 935 q 488 944 475 944 l 513 944 q 530 940 525 944 q 540 921 535 935 l 921 25 q 922 17 922 22 q 917 5 922 10 q 904 0 913 0 l 878 0 q 856 6 863 0 q 843 24 849 11 l 738 274 l 263 274 l 157 24 q 144 6 151 11 q 122 0 138 0 l 96 0 m 708 342 l 500 835 l 290 342 l 708 342 z "},"Æ":{"ha":1260,"x_min":75,"x_max":1183,"o":"m 96 0 q 80 8 85 0 q 79 25 75 15 l 460 921 q 470 940 465 935 q 488 944 475 944 l 1151 944 q 1176 938 1168 944 q 1183 917 1183 932 l 1183 907 q 1151 876 1183 876 l 679 876 l 679 507 l 1031 507 q 1055 501 1047 507 q 1063 479 1063 494 l 1063 469 q 1031 439 1063 439 l 679 439 l 679 68 l 1151 68 q 1183 38 1183 68 l 1183 28 q 1176 6 1183 13 q 1151 0 1168 0 l 636 0 q 604 32 604 0 l 604 274 l 263 274 l 157 24 q 144 6 151 11 q 122 0 138 0 l 96 0 m 604 342 l 604 876 l 513 876 l 290 342 l 604 342 z "},"Ǽ":{"ha":1264,"x_min":75,"x_max":1183,"o":"m 643 1029 q 629 1040 629 1029 l 632 1051 l 703 1247 q 713 1263 707 1258 q 733 1267 719 1267 l 771 1267 q 788 1256 788 1267 q 785 1244 788 1249 l 692 1044 q 681 1033 688 1036 q 664 1029 675 1029 l 643 1029 m 96 0 q 80 8 85 0 q 79 25 75 15 l 460 921 q 470 940 465 935 q 488 944 475 944 l 1151 944 q 1176 938 1168 944 q 1183 917 1183 932 l 1183 907 q 1151 876 1183 876 l 679 876 l 679 507 l 1031 507 q 1055 501 1047 507 q 1063 479 1063 494 l 1063 469 q 1031 439 1063 439 l 679 439 l 679 68 l 1151 68 q 1183 38 1183 68 l 1183 28 q 1176 6 1183 13 q 1151 0 1168 0 l 636 0 q 604 32 604 0 l 604 274 l 263 274 l 157 24 q 144 6 151 11 q 122 0 138 0 l 96 0 m 604 342 l 604 876 l 513 876 l 290 342 l 604 342 z "},"B":{"ha":899,"x_min":104,"x_max":822,"o":"m 136 0 q 104 32 104 0 l 104 913 q 136 944 104 944 l 533 944 q 726 878 660 944 q 792 701 792 813 q 754 576 792 632 q 649 492 717 521 q 822 261 822 440 q 751 74 822 149 q 543 0 679 0 l 136 0 m 526 525 q 669 576 618 525 q 719 701 719 626 q 670 832 719 788 q 525 876 621 876 l 179 876 l 179 525 l 526 525 m 544 68 q 701 122 651 68 q 750 261 750 176 q 689 408 750 360 q 517 457 628 457 l 179 457 l 179 68 l 544 68 z "},"C":{"ha":938,"x_min":76,"x_max":860,"o":"m 546 -21 q 199 109 321 -21 q 76 472 76 239 q 199 835 76 706 q 546 965 321 965 q 704 949 629 965 q 831 899 779 932 q 840 889 839 893 q 838 876 842 885 l 819 846 q 810 838 815 838 q 800 842 807 838 q 693 885 758 869 q 547 901 628 901 q 256 796 363 901 q 149 472 149 690 q 258 149 149 256 q 547 43 367 43 q 703 58 638 43 q 819 106 768 74 q 829 110 826 110 q 839 101 835 110 l 857 71 q 860 61 860 63 q 850 49 860 54 q 719 -4 793 13 q 546 -21 644 -21 z "},"Ć":{"ha":938,"x_min":76,"x_max":860,"o":"m 504 1063 q 490 1074 490 1063 l 493 1085 l 564 1281 q 574 1296 568 1292 q 594 1300 581 1300 l 632 1300 q 649 1289 649 1300 q 646 1278 649 1282 l 553 1078 q 542 1066 549 1069 q 525 1063 536 1063 l 504 1063 m 546 -21 q 199 109 321 -21 q 76 472 76 239 q 199 835 76 706 q 546 965 321 965 q 704 949 629 965 q 831 899 779 932 q 840 889 839 893 q 838 876 842 885 l 819 846 q 810 838 815 838 q 800 842 807 838 q 693 885 758 869 q 547 901 628 901 q 256 796 363 901 q 149 472 149 690 q 258 149 149 256 q 547 43 367 43 q 703 58 638 43 q 819 106 768 74 q 829 110 826 110 q 839 101 835 110 l 857 71 q 860 61 860 63 q 850 49 860 54 q 719 -4 793 13 q 546 -21 644 -21 z "},"Č":{"ha":938,"x_min":76,"x_max":860,"o":"m 551 1053 q 535 1057 540 1053 q 519 1076 531 1061 l 364 1293 q 361 1303 361 1296 q 367 1314 361 1310 q 381 1318 372 1318 l 407 1318 q 428 1313 422 1318 q 443 1294 433 1308 l 560 1125 l 676 1294 q 692 1313 686 1308 q 713 1318 697 1318 l 739 1318 q 756 1310 750 1318 q 756 1293 763 1301 l 600 1076 q 584 1057 589 1061 q 568 1053 579 1053 l 551 1053 m 546 -21 q 199 109 321 -21 q 76 472 76 239 q 199 835 76 706 q 546 965 321 965 q 704 949 629 965 q 831 899 779 932 q 840 889 839 893 q 838 876 842 885 l 819 846 q 810 838 815 838 q 800 842 807 838 q 693 885 758 869 q 547 901 628 901 q 256 796 363 901 q 149 472 149 690 q 258 149 149 256 q 547 43 367 43 q 703 58 638 43 q 819 106 768 74 q 829 110 826 110 q 839 101 835 110 l 857 71 q 860 61 860 63 q 850 49 860 54 q 719 -4 793 13 q 546 -21 644 -21 z "},"Ç":{"ha":938,"x_min":76,"x_max":860,"o":"m 857 71 q 860 61 860 63 q 850 49 860 54 q 582 -21 751 -14 l 579 -29 l 547 -99 q 626 -125 597 -99 q 656 -201 656 -151 q 621 -282 656 -254 q 526 -310 586 -310 q 436 -287 472 -310 q 421 -276 424 -279 q 422 -262 418 -272 l 433 -239 q 446 -228 438 -228 q 458 -233 447 -228 q 526 -250 486 -250 q 575 -238 561 -250 q 589 -199 589 -226 q 567 -153 589 -164 q 493 -143 544 -143 l 475 -143 q 460 -137 464 -143 q 461 -121 457 -131 l 499 -26 q 500 -23 500 -25 q 501 -19 500 -21 q 187 123 297 -6 q 76 472 76 251 q 199 835 76 706 q 546 965 321 965 q 704 949 629 965 q 831 899 779 932 q 840 889 839 893 q 838 876 842 885 l 819 846 q 810 838 815 838 q 800 842 807 838 q 693 885 758 869 q 547 901 628 901 q 256 796 363 901 q 149 472 149 690 q 258 149 149 256 q 547 43 367 43 q 703 58 638 43 q 819 106 768 74 q 829 110 826 110 q 839 101 835 110 l 857 71 z "},"Ĉ":{"ha":938,"x_min":76,"x_max":860,"o":"m 365 1036 q 348 1044 354 1036 q 349 1061 342 1053 l 504 1278 q 520 1297 515 1293 q 536 1301 525 1301 l 553 1301 q 569 1297 564 1301 q 585 1278 574 1293 l 740 1061 q 743 1051 743 1058 q 738 1040 743 1044 q 724 1036 732 1036 l 697 1036 q 676 1041 682 1036 q 661 1060 671 1046 l 544 1229 l 428 1060 q 413 1041 418 1046 q 392 1036 407 1036 l 365 1036 m 546 -21 q 199 109 321 -21 q 76 472 76 239 q 199 835 76 706 q 546 965 321 965 q 704 949 629 965 q 831 899 779 932 q 840 889 839 893 q 838 876 842 885 l 819 846 q 810 838 815 838 q 800 842 807 838 q 693 885 758 869 q 547 901 628 901 q 256 796 363 901 q 149 472 149 690 q 258 149 149 256 q 547 43 367 43 q 703 58 638 43 q 819 106 768 74 q 829 110 826 110 q 839 101 835 110 l 857 71 q 860 61 860 63 q 850 49 860 54 q 719 -4 793 13 q 546 -21 644 -21 z "},"Ċ":{"ha":938,"x_min":76,"x_max":860,"o":"m 544 1100 q 512 1115 525 1100 q 499 1149 499 1129 l 499 1167 q 512 1201 499 1186 q 544 1215 525 1215 l 564 1215 q 597 1201 583 1215 q 610 1167 610 1186 l 610 1149 q 597 1114 610 1128 q 564 1100 585 1100 l 544 1100 m 546 -21 q 199 109 321 -21 q 76 472 76 239 q 199 835 76 706 q 546 965 321 965 q 704 949 629 965 q 831 899 779 932 q 840 889 839 893 q 838 876 842 885 l 819 846 q 810 838 815 838 q 800 842 807 838 q 693 885 758 869 q 547 901 628 901 q 256 796 363 901 q 149 472 149 690 q 258 149 149 256 q 547 43 367 43 q 703 58 638 43 q 819 106 768 74 q 829 110 826 110 q 839 101 835 110 l 857 71 q 860 61 860 63 q 850 49 860 54 q 719 -4 793 13 q 546 -21 644 -21 z "},"D":{"ha":940,"x_min":104,"x_max":864,"o":"m 136 0 q 104 32 104 0 l 104 913 q 136 944 104 944 l 386 944 q 740 834 615 944 q 864 472 864 724 q 740 110 864 221 q 386 0 615 0 l 136 0 m 394 68 q 690 160 589 68 q 792 472 792 253 q 690 784 792 692 q 394 876 589 876 l 179 876 l 179 68 l 394 68 z "},"Ð":{"ha":1010,"x_min":49,"x_max":933,"o":"m 206 0 q 174 32 174 0 l 174 439 l 81 439 q 56 445 64 439 q 49 467 49 451 l 49 476 q 81 507 49 507 l 174 507 l 174 913 q 206 944 174 944 l 456 944 q 809 834 685 944 q 933 472 933 724 q 809 110 933 221 q 456 0 685 0 l 206 0 m 464 68 q 760 160 658 68 q 861 472 861 253 q 760 784 861 692 q 464 876 658 876 l 249 876 l 249 507 l 522 507 q 554 476 554 507 l 554 467 q 547 445 554 451 q 522 439 539 439 l 249 439 l 249 68 l 464 68 z "},"Ď":{"ha":940,"x_min":104,"x_max":864,"o":"m 396 1053 q 380 1057 385 1053 q 364 1076 375 1061 l 208 1293 q 206 1303 206 1296 q 211 1314 206 1310 q 225 1318 217 1318 l 251 1318 q 272 1313 267 1318 q 288 1294 278 1308 l 404 1125 l 521 1294 q 536 1313 531 1308 q 557 1318 542 1318 l 583 1318 q 601 1310 594 1318 q 600 1293 607 1301 l 444 1076 q 428 1057 433 1061 q 413 1053 424 1053 l 396 1053 m 136 0 q 104 32 104 0 l 104 913 q 136 944 104 944 l 386 944 q 740 834 615 944 q 864 472 864 724 q 740 110 864 221 q 386 0 615 0 l 136 0 m 394 68 q 690 160 589 68 q 792 472 792 253 q 690 784 792 692 q 394 876 589 876 l 179 876 l 179 68 l 394 68 z "},"Đ":{"ha":996,"x_min":35,"x_max":919,"o":"m 192 0 q 160 32 160 0 l 160 439 l 67 439 q 42 445 50 439 q 35 467 35 451 l 35 476 q 67 507 35 507 l 160 507 l 160 913 q 192 944 160 944 l 442 944 q 795 834 671 944 q 919 472 919 724 q 795 110 919 221 q 442 0 671 0 l 192 0 m 450 68 q 746 160 644 68 q 847 472 847 253 q 746 784 847 692 q 450 876 644 876 l 235 876 l 235 507 l 508 507 q 540 476 540 507 l 540 467 q 533 445 540 451 q 508 439 525 439 l 235 439 l 235 68 l 450 68 z "},"Ḍ":{"ha":942,"x_min":106,"x_max":865,"o":"m 138 0 q 106 32 106 0 l 106 913 q 138 944 106 944 l 388 944 q 741 834 617 944 q 865 472 865 724 q 741 110 865 221 q 388 0 617 0 l 138 0 m 396 68 q 692 160 590 68 q 793 472 793 253 q 692 784 793 692 q 396 876 590 876 l 181 876 l 181 68 l 396 68 m 386 -224 q 353 -209 367 -224 q 340 -175 340 -194 l 340 -157 q 353 -123 340 -137 q 386 -108 367 -108 l 406 -108 q 438 -123 425 -108 q 451 -157 451 -137 l 451 -175 q 439 -210 451 -196 q 406 -224 426 -224 l 386 -224 z "},"Ḏ":{"ha":940,"x_min":104,"x_max":864,"o":"m 136 0 q 104 32 104 0 l 104 913 q 136 944 104 944 l 386 944 q 740 834 615 944 q 864 472 864 724 q 740 110 864 221 q 386 0 615 0 l 136 0 m 394 68 q 690 160 589 68 q 792 472 792 253 q 690 784 792 692 q 394 876 589 876 l 179 876 l 179 68 l 394 68 m 196 -186 q 172 -180 179 -186 q 164 -158 164 -174 l 164 -149 q 196 -118 164 -118 l 582 -118 q 614 -149 614 -118 l 614 -158 q 606 -180 614 -174 q 582 -186 599 -186 l 196 -186 z "},"E":{"ha":808,"x_min":104,"x_max":746,"o":"m 136 0 q 104 32 104 0 l 104 913 q 136 944 104 944 l 714 944 q 738 938 731 944 q 746 917 746 932 l 746 907 q 714 876 746 876 l 179 876 l 179 507 l 593 507 q 617 501 610 507 q 625 479 625 494 l 625 469 q 593 439 625 439 l 179 439 l 179 68 l 714 68 q 746 38 746 68 l 746 28 q 738 6 746 13 q 714 0 731 0 l 136 0 z "},"É":{"ha":808,"x_min":104,"x_max":746,"o":"m 397 1063 q 383 1074 383 1063 l 386 1085 l 457 1281 q 467 1296 461 1292 q 488 1300 474 1300 l 525 1300 q 542 1289 542 1300 q 539 1278 542 1282 l 446 1078 q 435 1066 442 1069 q 418 1063 429 1063 l 397 1063 m 136 0 q 104 32 104 0 l 104 913 q 136 944 104 944 l 714 944 q 738 938 731 944 q 746 917 746 932 l 746 907 q 714 876 746 876 l 179 876 l 179 507 l 593 507 q 617 501 610 507 q 625 479 625 494 l 625 469 q 593 439 625 439 l 179 439 l 179 68 l 714 68 q 746 38 746 68 l 746 28 q 738 6 746 13 q 714 0 731 0 l 136 0 z "},"Ĕ":{"ha":808,"x_min":104,"x_max":746,"o":"m 425 1053 q 278 1110 328 1053 q 229 1265 229 1168 q 235 1283 229 1276 q 251 1290 242 1290 l 285 1290 q 303 1284 299 1290 q 308 1264 308 1278 q 333 1160 308 1196 q 425 1124 357 1124 q 517 1160 493 1124 q 542 1264 542 1196 q 547 1284 542 1278 q 565 1290 551 1290 l 599 1290 q 615 1283 608 1290 q 621 1265 621 1276 q 572 1110 621 1168 q 425 1053 522 1053 m 136 0 q 104 32 104 0 l 104 913 q 136 944 104 944 l 714 944 q 738 938 731 944 q 746 917 746 932 l 746 907 q 714 876 746 876 l 179 876 l 179 507 l 593 507 q 617 501 610 507 q 625 479 625 494 l 625 469 q 593 439 625 439 l 179 439 l 179 68 l 714 68 q 746 38 746 68 l 746 28 q 738 6 746 13 q 714 0 731 0 l 136 0 z "},"Ě":{"ha":808,"x_min":104,"x_max":746,"o":"m 425 1053 q 409 1057 414 1053 q 393 1076 404 1061 l 238 1293 q 235 1303 235 1296 q 240 1314 235 1310 q 254 1318 246 1318 l 281 1318 q 301 1313 296 1318 q 317 1294 307 1308 l 433 1125 l 550 1294 q 565 1313 560 1308 q 586 1318 571 1318 l 613 1318 q 630 1310 624 1318 q 629 1293 636 1301 l 474 1076 q 458 1057 463 1061 q 442 1053 453 1053 l 425 1053 m 136 0 q 104 32 104 0 l 104 913 q 136 944 104 944 l 714 944 q 738 938 731 944 q 746 917 746 932 l 746 907 q 714 876 746 876 l 179 876 l 179 507 l 593 507 q 617 501 610 507 q 625 479 625 494 l 625 469 q 593 439 625 439 l 179 439 l 179 68 l 714 68 q 746 38 746 68 l 746 28 q 738 6 746 13 q 714 0 731 0 l 136 0 z "},"Ê":{"ha":808,"x_min":104,"x_max":746,"o":"m 239 1053 q 222 1061 228 1053 q 222 1078 215 1069 l 378 1294 q 394 1314 389 1310 q 410 1318 399 1318 l 426 1318 q 442 1314 438 1318 q 458 1294 447 1310 l 614 1078 q 617 1068 617 1075 q 611 1057 617 1061 q 597 1053 606 1053 l 571 1053 q 550 1058 556 1053 q 535 1076 544 1063 l 418 1246 l 301 1076 q 286 1058 292 1063 q 265 1053 281 1053 l 239 1053 m 136 0 q 104 32 104 0 l 104 913 q 136 944 104 944 l 714 944 q 738 938 731 944 q 746 917 746 932 l 746 907 q 714 876 746 876 l 179 876 l 179 507 l 593 507 q 617 501 610 507 q 625 479 625 494 l 625 469 q 593 439 625 439 l 179 439 l 179 68 l 714 68 q 746 38 746 68 l 746 28 q 738 6 746 13 q 714 0 731 0 l 136 0 z "},"Ế":{"ha":808,"x_min":104,"x_max":746,"o":"m 536 1183 q 522 1194 522 1183 l 525 1206 l 579 1356 q 590 1371 583 1367 q 610 1375 596 1375 l 647 1375 q 664 1364 664 1375 q 661 1353 664 1357 l 585 1199 q 574 1187 581 1190 q 557 1183 568 1183 l 536 1183 m 222 1038 q 210 1042 215 1038 q 206 1051 206 1046 q 210 1063 206 1057 l 358 1238 q 377 1256 371 1251 q 394 1261 383 1261 l 403 1261 q 420 1256 414 1261 q 439 1238 426 1251 l 588 1063 q 592 1051 592 1057 q 587 1042 592 1046 q 575 1038 582 1038 l 549 1038 q 531 1040 536 1038 q 515 1053 525 1043 l 399 1189 l 282 1053 q 267 1040 272 1043 q 249 1038 261 1038 l 222 1038 m 136 0 q 104 32 104 0 l 104 913 q 136 944 104 944 l 714 944 q 738 938 731 944 q 746 917 746 932 l 746 907 q 714 876 746 876 l 179 876 l 179 507 l 593 507 q 617 501 610 507 q 625 479 625 494 l 625 469 q 593 439 625 439 l 179 439 l 179 68 l 714 68 q 746 38 746 68 l 746 28 q 738 6 746 13 q 714 0 731 0 l 136 0 z "},"Ệ":{"ha":808,"x_min":104,"x_max":746,"o":"m 235 1036 q 217 1044 224 1036 q 218 1061 211 1053 l 374 1278 q 390 1297 385 1293 q 406 1301 394 1301 l 422 1301 q 438 1297 433 1301 q 454 1278 443 1293 l 610 1061 q 613 1051 613 1058 q 607 1040 613 1044 q 593 1036 601 1036 l 567 1036 q 546 1041 551 1036 q 531 1060 540 1046 l 414 1229 l 297 1060 q 282 1041 288 1046 q 261 1036 276 1036 l 235 1036 m 136 0 q 104 32 104 0 l 104 913 q 136 944 104 944 l 714 944 q 738 938 731 944 q 746 917 746 932 l 746 907 q 714 876 746 876 l 179 876 l 179 507 l 593 507 q 617 501 610 507 q 625 479 625 494 l 625 469 q 593 439 625 439 l 179 439 l 179 68 l 714 68 q 746 38 746 68 l 746 28 q 738 6 746 13 q 714 0 731 0 l 136 0 m 406 -224 q 373 -209 386 -224 q 360 -175 360 -194 l 360 -157 q 373 -123 360 -137 q 406 -108 386 -108 l 425 -108 q 458 -123 444 -108 q 471 -157 471 -137 l 471 -175 q 458 -210 471 -196 q 425 -224 446 -224 l 406 -224 z "},"Ề":{"ha":808,"x_min":104,"x_max":746,"o":"m 288 1183 q 270 1187 276 1183 q 260 1199 264 1190 l 183 1353 q 181 1364 181 1357 q 197 1375 181 1375 l 235 1375 q 255 1371 249 1375 q 265 1356 261 1367 l 319 1206 l 322 1194 q 308 1183 322 1183 l 288 1183 m 269 1038 q 258 1042 263 1038 q 253 1051 253 1046 q 257 1063 253 1057 l 406 1238 q 424 1256 418 1251 q 442 1261 431 1261 l 450 1261 q 467 1256 461 1261 q 486 1238 474 1251 l 635 1063 q 639 1051 639 1057 q 634 1042 639 1046 q 622 1038 629 1038 l 596 1038 q 578 1040 583 1038 q 563 1053 572 1043 l 446 1189 l 329 1053 q 314 1040 319 1043 q 296 1038 308 1038 l 269 1038 m 136 0 q 104 32 104 0 l 104 913 q 136 944 104 944 l 714 944 q 738 938 731 944 q 746 917 746 932 l 746 907 q 714 876 746 876 l 179 876 l 179 507 l 593 507 q 617 501 610 507 q 625 479 625 494 l 625 469 q 593 439 625 439 l 179 439 l 179 68 l 714 68 q 746 38 746 68 l 746 28 q 738 6 746 13 q 714 0 731 0 l 136 0 z "},"Ể":{"ha":808,"x_min":104,"x_max":746,"o":"m 579 1171 q 547 1203 547 1171 l 547 1235 q 560 1267 547 1256 q 596 1278 572 1278 q 647 1289 632 1278 q 661 1325 661 1300 q 599 1367 661 1367 q 517 1347 551 1367 q 506 1349 507 1343 l 486 1389 q 485 1397 485 1394 q 490 1401 486 1399 q 540 1422 510 1414 q 601 1429 571 1429 q 698 1402 664 1429 q 732 1325 732 1375 q 699 1247 732 1274 q 621 1219 667 1219 l 621 1203 q 590 1171 621 1171 l 579 1171 m 243 1038 q 231 1042 236 1038 q 226 1051 226 1046 q 231 1063 226 1057 l 379 1238 q 398 1256 392 1251 q 415 1261 404 1261 l 424 1261 q 441 1256 435 1261 q 460 1238 447 1251 l 608 1063 q 613 1051 613 1057 q 608 1042 613 1046 q 596 1038 603 1038 l 569 1038 q 551 1040 557 1038 q 536 1053 546 1043 l 419 1189 l 303 1053 q 288 1040 293 1043 q 269 1038 282 1038 l 243 1038 m 136 0 q 104 32 104 0 l 104 913 q 136 944 104 944 l 714 944 q 738 938 731 944 q 746 917 746 932 l 746 907 q 714 876 746 876 l 179 876 l 179 507 l 593 507 q 617 501 610 507 q 625 479 625 494 l 625 469 q 593 439 625 439 l 179 439 l 179 68 l 714 68 q 746 38 746 68 l 746 28 q 738 6 746 13 q 714 0 731 0 l 136 0 z "},"Ễ":{"ha":808,"x_min":104,"x_max":746,"o":"m 513 1285 q 456 1297 479 1285 q 406 1329 432 1308 q 367 1354 382 1346 q 333 1363 353 1363 q 288 1353 304 1363 q 254 1321 271 1343 q 222 1300 238 1300 q 199 1313 211 1300 q 189 1331 189 1322 q 203 1360 189 1342 q 331 1425 251 1425 q 392 1413 368 1425 q 440 1381 417 1401 q 474 1356 460 1364 q 510 1347 489 1347 q 556 1357 539 1347 q 589 1389 572 1367 q 621 1410 606 1410 q 644 1397 632 1410 q 654 1379 654 1388 q 640 1350 654 1368 q 513 1285 592 1285 m 244 1038 q 233 1042 238 1038 q 228 1051 228 1046 q 232 1063 228 1057 l 381 1238 q 399 1256 393 1251 q 417 1261 406 1261 l 425 1261 q 442 1256 436 1261 q 461 1238 449 1251 l 610 1063 q 614 1051 614 1057 q 609 1042 614 1046 q 597 1038 604 1038 l 571 1038 q 553 1040 558 1038 q 538 1053 547 1043 l 421 1189 l 304 1053 q 289 1040 294 1043 q 271 1038 283 1038 l 244 1038 m 136 0 q 104 32 104 0 l 104 913 q 136 944 104 944 l 714 944 q 738 938 731 944 q 746 917 746 932 l 746 907 q 714 876 746 876 l 179 876 l 179 507 l 593 507 q 617 501 610 507 q 625 479 625 494 l 625 469 q 593 439 625 439 l 179 439 l 179 68 l 714 68 q 746 38 746 68 l 746 28 q 738 6 746 13 q 714 0 731 0 l 136 0 z "},"Ë":{"ha":808,"x_min":104,"x_max":746,"o":"m 285 1058 q 252 1073 265 1058 q 239 1107 239 1088 l 239 1125 q 252 1159 239 1144 q 285 1174 265 1174 l 304 1174 q 337 1159 324 1174 q 350 1125 350 1144 l 350 1107 q 338 1072 350 1086 q 304 1058 325 1058 l 285 1058 m 535 1058 q 502 1073 515 1058 q 489 1107 489 1088 l 489 1125 q 502 1159 489 1144 q 535 1174 515 1174 l 554 1174 q 587 1159 574 1174 q 600 1125 600 1144 l 600 1107 q 588 1072 600 1086 q 554 1058 575 1058 l 535 1058 m 136 0 q 104 32 104 0 l 104 913 q 136 944 104 944 l 714 944 q 738 938 731 944 q 746 917 746 932 l 746 907 q 714 876 746 876 l 179 876 l 179 507 l 593 507 q 617 501 610 507 q 625 479 625 494 l 625 469 q 593 439 625 439 l 179 439 l 179 68 l 714 68 q 746 38 746 68 l 746 28 q 738 6 746 13 q 714 0 731 0 l 136 0 z "},"Ė":{"ha":808,"x_min":104,"x_max":746,"o":"m 411 1100 q 378 1115 392 1100 q 365 1149 365 1129 l 365 1167 q 378 1201 365 1186 q 411 1215 392 1215 l 431 1215 q 463 1201 450 1215 q 476 1167 476 1186 l 476 1149 q 464 1114 476 1128 q 431 1100 451 1100 l 411 1100 m 136 0 q 104 32 104 0 l 104 913 q 136 944 104 944 l 714 944 q 738 938 731 944 q 746 917 746 932 l 746 907 q 714 876 746 876 l 179 876 l 179 507 l 593 507 q 617 501 610 507 q 625 479 625 494 l 625 469 q 593 439 625 439 l 179 439 l 179 68 l 714 68 q 746 38 746 68 l 746 28 q 738 6 746 13 q 714 0 731 0 l 136 0 z "},"Ẹ":{"ha":808,"x_min":104,"x_max":746,"o":"m 136 0 q 104 32 104 0 l 104 913 q 136 944 104 944 l 714 944 q 738 938 731 944 q 746 917 746 932 l 746 907 q 714 876 746 876 l 179 876 l 179 507 l 593 507 q 617 501 610 507 q 625 479 625 494 l 625 469 q 593 439 625 439 l 179 439 l 179 68 l 714 68 q 746 38 746 68 l 746 28 q 738 6 746 13 q 714 0 731 0 l 136 0 m 361 -224 q 328 -209 342 -224 q 315 -175 315 -194 l 315 -157 q 328 -123 315 -137 q 361 -108 342 -108 l 381 -108 q 413 -123 400 -108 q 426 -157 426 -137 l 426 -175 q 414 -210 426 -196 q 381 -224 401 -224 l 361 -224 z "},"È":{"ha":808,"x_min":104,"x_max":746,"o":"m 432 1063 q 415 1066 421 1063 q 404 1078 408 1069 l 311 1278 q 308 1289 308 1282 q 325 1300 308 1300 l 363 1300 q 383 1296 376 1300 q 393 1281 389 1292 l 464 1085 l 467 1074 q 453 1063 467 1063 l 432 1063 m 136 0 q 104 32 104 0 l 104 913 q 136 944 104 944 l 714 944 q 738 938 731 944 q 746 917 746 932 l 746 907 q 714 876 746 876 l 179 876 l 179 507 l 593 507 q 617 501 610 507 q 625 479 625 494 l 625 469 q 593 439 625 439 l 179 439 l 179 68 l 714 68 q 746 38 746 68 l 746 28 q 738 6 746 13 q 714 0 731 0 l 136 0 z "},"Ẻ":{"ha":808,"x_min":104,"x_max":746,"o":"m 399 1024 q 367 1056 367 1024 l 367 1108 q 379 1140 367 1129 q 415 1151 392 1151 q 492 1167 471 1151 q 514 1219 514 1183 q 490 1266 514 1251 q 418 1281 467 1281 q 303 1253 357 1281 q 292 1254 293 1249 l 272 1296 q 272 1303 271 1301 q 276 1308 272 1306 q 341 1335 303 1325 q 418 1344 379 1344 q 544 1310 501 1344 q 586 1219 586 1276 q 543 1127 586 1161 q 442 1093 500 1093 l 442 1056 q 410 1024 442 1024 l 399 1024 m 136 0 q 104 32 104 0 l 104 913 q 136 944 104 944 l 714 944 q 738 938 731 944 q 746 917 746 932 l 746 907 q 714 876 746 876 l 179 876 l 179 507 l 593 507 q 617 501 610 507 q 625 479 625 494 l 625 469 q 593 439 625 439 l 179 439 l 179 68 l 714 68 q 746 38 746 68 l 746 28 q 738 6 746 13 q 714 0 731 0 l 136 0 z "},"Ē":{"ha":808,"x_min":104,"x_max":746,"o":"m 226 1113 q 202 1119 210 1113 q 194 1140 194 1125 l 194 1150 q 226 1181 194 1181 l 613 1181 q 644 1150 644 1181 l 644 1140 q 637 1119 644 1125 q 613 1113 629 1113 l 226 1113 m 136 0 q 104 32 104 0 l 104 913 q 136 944 104 944 l 714 944 q 738 938 731 944 q 746 917 746 932 l 746 907 q 714 876 746 876 l 179 876 l 179 507 l 593 507 q 617 501 610 507 q 625 479 625 494 l 625 469 q 593 439 625 439 l 179 439 l 179 68 l 714 68 q 746 38 746 68 l 746 28 q 738 6 746 13 q 714 0 731 0 l 136 0 z "},"Ę":{"ha":808,"x_min":104,"x_max":746,"o":"m 179 876 l 179 507 l 593 507 q 617 501 610 507 q 625 479 625 494 l 625 469 q 593 439 625 439 l 179 439 l 179 68 l 714 68 q 746 38 746 68 l 746 28 q 722 0 746 3 q 718 -11 722 -7 q 656 -101 672 -67 q 639 -167 639 -135 q 648 -194 639 -185 q 672 -204 657 -204 q 703 -199 692 -204 q 713 -196 711 -196 q 722 -206 718 -196 l 736 -236 q 738 -244 738 -239 q 722 -260 738 -253 q 657 -271 701 -271 q 582 -244 608 -271 q 556 -178 556 -218 q 576 -99 556 -139 q 640 -7 596 -58 q 647 0 647 0 l 136 0 q 104 32 104 0 l 104 913 q 136 944 104 944 l 714 944 q 738 938 731 944 q 746 917 746 932 l 746 907 q 714 876 746 876 l 179 876 z "},"Ẽ":{"ha":808,"x_min":104,"x_max":746,"o":"m 526 1042 q 463 1053 489 1042 q 407 1086 438 1064 q 363 1113 381 1104 q 319 1121 344 1121 q 265 1110 288 1121 q 225 1078 243 1100 q 193 1057 207 1057 q 168 1069 181 1057 q 158 1089 158 1079 q 172 1118 158 1100 q 317 1185 226 1185 q 383 1174 357 1185 q 438 1140 408 1163 q 480 1114 463 1122 q 524 1106 497 1106 q 578 1116 556 1106 q 618 1149 600 1126 q 650 1169 636 1169 q 675 1157 663 1169 q 685 1138 685 1147 q 671 1108 685 1126 q 526 1042 617 1042 m 136 0 q 104 32 104 0 l 104 913 q 136 944 104 944 l 714 944 q 738 938 731 944 q 746 917 746 932 l 746 907 q 714 876 746 876 l 179 876 l 179 507 l 593 507 q 617 501 610 507 q 625 479 625 494 l 625 469 q 593 439 625 439 l 179 439 l 179 68 l 714 68 q 746 38 746 68 l 746 28 q 738 6 746 13 q 714 0 731 0 l 136 0 z "},"F":{"ha":794,"x_min":104,"x_max":746,"o":"m 136 0 q 104 32 104 0 l 104 913 q 136 944 104 944 l 714 944 q 738 938 731 944 q 746 917 746 932 l 746 907 q 714 876 746 876 l 179 876 l 179 507 l 593 507 q 617 501 610 507 q 625 479 625 494 l 625 469 q 593 439 625 439 l 179 439 l 179 32 q 147 0 179 0 l 136 0 z "},"G":{"ha":967,"x_min":76,"x_max":890,"o":"m 546 -21 q 199 109 321 -21 q 76 472 76 239 q 199 835 76 706 q 546 965 321 965 q 704 949 629 965 q 831 899 779 932 q 840 889 839 893 q 838 876 842 885 l 819 846 q 810 838 815 838 q 800 842 807 838 q 693 885 758 869 q 547 901 628 901 q 256 796 363 901 q 149 472 149 690 q 258 149 149 256 q 547 43 367 43 q 697 56 625 43 q 815 93 768 69 l 815 439 l 568 439 q 536 469 536 439 l 536 479 q 544 501 536 494 q 568 507 551 507 l 858 507 q 890 475 890 507 l 890 82 q 888 62 890 69 q 878 50 886 54 q 546 -21 740 -21 z "},"Ğ":{"ha":967,"x_min":76,"x_max":890,"o":"m 542 1019 q 395 1077 444 1019 q 346 1232 346 1135 q 352 1250 346 1243 q 368 1257 358 1257 l 401 1257 q 420 1251 415 1257 q 425 1231 425 1244 q 449 1126 425 1163 q 542 1090 474 1090 q 634 1126 610 1090 q 658 1231 658 1163 q 663 1251 658 1244 q 682 1257 668 1257 l 715 1257 q 731 1250 725 1257 q 738 1232 738 1243 q 688 1077 738 1135 q 542 1019 639 1019 m 546 -21 q 199 109 321 -21 q 76 472 76 239 q 199 835 76 706 q 546 965 321 965 q 704 949 629 965 q 831 899 779 932 q 840 889 839 893 q 838 876 842 885 l 819 846 q 810 838 815 838 q 800 842 807 838 q 693 885 758 869 q 547 901 628 901 q 256 796 363 901 q 149 472 149 690 q 258 149 149 256 q 547 43 367 43 q 697 56 625 43 q 815 93 768 69 l 815 439 l 568 439 q 536 469 536 439 l 536 479 q 544 501 536 494 q 568 507 551 507 l 858 507 q 890 475 890 507 l 890 82 q 888 62 890 69 q 878 50 886 54 q 546 -21 740 -21 z "},"Ǧ":{"ha":967,"x_min":76,"x_max":890,"o":"m 539 1036 q 523 1040 528 1036 q 507 1060 518 1044 l 351 1276 q 349 1286 349 1279 q 354 1297 349 1293 q 368 1301 360 1301 l 394 1301 q 415 1297 410 1301 q 431 1278 421 1292 l 547 1108 l 664 1278 q 679 1297 674 1292 q 700 1301 685 1301 l 726 1301 q 744 1293 738 1301 q 743 1276 750 1285 l 588 1060 q 572 1040 576 1044 q 556 1036 567 1036 l 539 1036 m 546 -21 q 199 109 321 -21 q 76 472 76 239 q 199 835 76 706 q 546 965 321 965 q 704 949 629 965 q 831 899 779 932 q 840 889 839 893 q 838 876 842 885 l 819 846 q 810 838 815 838 q 800 842 807 838 q 693 885 758 869 q 547 901 628 901 q 256 796 363 901 q 149 472 149 690 q 258 149 149 256 q 547 43 367 43 q 697 56 625 43 q 815 93 768 69 l 815 439 l 568 439 q 536 469 536 439 l 536 479 q 544 501 536 494 q 568 507 551 507 l 858 507 q 890 475 890 507 l 890 82 q 888 62 890 69 q 878 50 886 54 q 546 -21 740 -21 z "},"Ĝ":{"ha":967,"x_min":76,"x_max":890,"o":"m 358 1019 q 341 1028 347 1019 q 342 1044 335 1036 l 497 1261 q 513 1281 508 1276 q 529 1285 518 1285 l 546 1285 q 562 1281 557 1285 q 578 1261 567 1276 l 733 1044 q 736 1035 736 1042 q 731 1024 736 1028 q 717 1019 725 1019 l 690 1019 q 669 1024 675 1019 q 654 1043 664 1029 l 538 1213 l 421 1043 q 406 1024 411 1029 q 385 1019 400 1019 l 358 1019 m 546 -21 q 199 109 321 -21 q 76 472 76 239 q 199 835 76 706 q 546 965 321 965 q 704 949 629 965 q 831 899 779 932 q 840 889 839 893 q 838 876 842 885 l 819 846 q 810 838 815 838 q 800 842 807 838 q 693 885 758 869 q 547 901 628 901 q 256 796 363 901 q 149 472 149 690 q 258 149 149 256 q 547 43 367 43 q 697 56 625 43 q 815 93 768 69 l 815 439 l 568 439 q 536 469 536 439 l 536 479 q 544 501 536 494 q 568 507 551 507 l 858 507 q 890 475 890 507 l 890 82 q 888 62 890 69 q 878 50 886 54 q 546 -21 740 -21 z "},"Ģ":{"ha":967,"x_min":76,"x_max":890,"o":"m 546 -21 q 199 109 321 -21 q 76 472 76 239 q 199 835 76 706 q 546 965 321 965 q 704 949 629 965 q 831 899 779 932 q 840 889 839 893 q 838 876 842 885 l 819 846 q 810 838 815 838 q 800 842 807 838 q 693 885 758 869 q 547 901 628 901 q 256 796 363 901 q 149 472 149 690 q 258 149 149 256 q 547 43 367 43 q 697 56 625 43 q 815 93 768 69 l 815 439 l 568 439 q 536 469 536 439 l 536 479 q 544 501 536 494 q 568 507 551 507 l 858 507 q 890 475 890 507 l 890 82 q 888 62 890 69 q 878 50 886 54 q 546 -21 740 -21 m 467 -293 q 454 -282 454 -293 q 456 -271 454 -275 l 522 -69 q 533 -54 526 -58 q 553 -50 539 -50 l 586 -50 q 603 -61 603 -50 l 600 -72 l 511 -278 q 501 -290 507 -286 q 483 -293 494 -293 l 467 -293 z "},"Ġ":{"ha":967,"x_min":76,"x_max":890,"o":"m 529 1046 q 497 1060 510 1046 q 483 1094 483 1075 l 483 1113 q 497 1147 483 1132 q 529 1161 510 1161 l 549 1161 q 581 1147 568 1161 q 594 1113 594 1132 l 594 1094 q 582 1060 594 1074 q 549 1046 569 1046 l 529 1046 m 546 -21 q 199 109 321 -21 q 76 472 76 239 q 199 835 76 706 q 546 965 321 965 q 704 949 629 965 q 831 899 779 932 q 840 889 839 893 q 838 876 842 885 l 819 846 q 810 838 815 838 q 800 842 807 838 q 693 885 758 869 q 547 901 628 901 q 256 796 363 901 q 149 472 149 690 q 258 149 149 256 q 547 43 367 43 q 697 56 625 43 q 815 93 768 69 l 815 439 l 568 439 q 536 469 536 439 l 536 479 q 544 501 536 494 q 568 507 551 507 l 858 507 q 890 475 890 507 l 890 82 q 888 62 890 69 q 878 50 886 54 q 546 -21 740 -21 z "},"Ḡ":{"ha":967,"x_min":76,"x_max":890,"o":"m 342 1096 q 317 1102 325 1096 q 310 1124 310 1108 l 310 1133 q 342 1164 310 1164 l 728 1164 q 760 1133 760 1164 l 760 1124 q 752 1102 760 1108 q 728 1096 744 1096 l 342 1096 m 546 -21 q 199 109 321 -21 q 76 472 76 239 q 199 835 76 706 q 546 965 321 965 q 704 949 629 965 q 831 899 779 932 q 840 889 839 893 q 838 876 842 885 l 819 846 q 810 838 815 838 q 800 842 807 838 q 693 885 758 869 q 547 901 628 901 q 256 796 363 901 q 149 472 149 690 q 258 149 149 256 q 547 43 367 43 q 697 56 625 43 q 815 93 768 69 l 815 439 l 568 439 q 536 469 536 439 l 536 479 q 544 501 536 494 q 568 507 551 507 l 858 507 q 890 475 890 507 l 890 82 q 888 62 890 69 q 878 50 886 54 q 546 -21 740 -21 z "},"H":{"ha":953,"x_min":104,"x_max":849,"o":"m 136 0 q 104 32 104 0 l 104 913 q 136 944 104 944 l 147 944 q 179 913 179 944 l 179 513 l 774 513 l 774 913 q 806 944 774 944 l 817 944 q 849 913 849 944 l 849 32 q 817 0 849 0 l 806 0 q 774 32 774 0 l 774 444 l 179 444 l 179 32 q 147 0 179 0 l 136 0 z "},"Ħ":{"ha":964,"x_min":49,"x_max":915,"o":"m 883 778 q 915 747 915 778 l 915 738 q 908 716 915 722 q 883 710 900 710 l 854 710 l 854 32 q 822 0 854 0 l 811 0 q 779 32 779 0 l 779 444 l 185 444 l 185 32 q 153 0 185 0 l 142 0 q 110 32 110 0 l 110 710 l 81 710 q 56 716 64 710 q 49 738 49 722 l 49 747 q 81 778 49 778 l 110 778 l 110 913 q 142 944 110 944 l 153 944 q 185 913 185 944 l 185 778 l 779 778 l 779 913 q 811 944 779 944 l 822 944 q 854 913 854 944 l 854 778 l 883 778 m 779 710 l 185 710 l 185 513 l 779 513 l 779 710 z "},"Ḫ":{"ha":953,"x_min":104,"x_max":849,"o":"m 136 0 q 104 32 104 0 l 104 913 q 136 944 104 944 l 147 944 q 179 913 179 944 l 179 513 l 774 513 l 774 913 q 806 944 774 944 l 817 944 q 849 913 849 944 l 849 32 q 817 0 849 0 l 806 0 q 774 32 774 0 l 774 444 l 179 444 l 179 32 q 147 0 179 0 l 136 0 m 479 -289 q 333 -231 382 -289 q 283 -76 283 -174 q 290 -58 283 -65 q 306 -51 296 -51 l 339 -51 q 358 -58 353 -51 q 363 -78 363 -64 q 387 -182 363 -146 q 479 -218 411 -218 q 572 -182 547 -218 q 596 -78 596 -146 q 601 -58 596 -64 q 619 -51 606 -51 l 653 -51 q 669 -58 663 -51 q 675 -76 675 -65 q 626 -231 675 -174 q 479 -289 576 -289 z "},"Ĥ":{"ha":953,"x_min":104,"x_max":849,"o":"m 297 1053 q 280 1061 286 1053 q 281 1078 274 1069 l 436 1294 q 452 1314 447 1310 q 468 1318 457 1318 l 485 1318 q 501 1314 496 1318 q 517 1294 506 1310 l 672 1078 q 675 1068 675 1075 q 669 1057 675 1061 q 656 1053 664 1053 l 629 1053 q 608 1058 614 1053 q 593 1076 603 1063 l 476 1246 l 360 1076 q 344 1058 350 1063 q 324 1053 339 1053 l 297 1053 m 136 0 q 104 32 104 0 l 104 913 q 136 944 104 944 l 147 944 q 179 913 179 944 l 179 513 l 774 513 l 774 913 q 806 944 774 944 l 817 944 q 849 913 849 944 l 849 32 q 817 0 849 0 l 806 0 q 774 32 774 0 l 774 444 l 179 444 l 179 32 q 147 0 179 0 l 136 0 z "},"Ḥ":{"ha":953,"x_min":104,"x_max":849,"o":"m 136 0 q 104 32 104 0 l 104 913 q 136 944 104 944 l 147 944 q 179 913 179 944 l 179 513 l 774 513 l 774 913 q 806 944 774 944 l 817 944 q 849 913 849 944 l 849 32 q 817 0 849 0 l 806 0 q 774 32 774 0 l 774 444 l 179 444 l 179 32 q 147 0 179 0 l 136 0 m 465 -224 q 433 -209 446 -224 q 419 -175 419 -194 l 419 -157 q 433 -123 419 -137 q 465 -108 446 -108 l 485 -108 q 517 -123 504 -108 q 531 -157 531 -137 l 531 -175 q 518 -210 531 -196 q 485 -224 506 -224 l 465 -224 z "},"I":{"ha":283,"x_min":104,"x_max":179,"o":"m 136 0 q 104 32 104 0 l 104 913 q 136 944 104 944 l 147 944 q 179 913 179 944 l 179 32 q 147 0 179 0 l 136 0 z "},"Ĳ":{"ha":835,"x_min":104,"x_max":731,"o":"m 136 0 q 104 32 104 0 l 104 913 q 136 944 104 944 l 147 944 q 179 913 179 944 l 179 32 q 147 0 179 0 l 136 0 m 468 -21 q 244 32 331 -21 q 238 54 229 40 l 257 85 q 267 93 261 93 q 276 89 271 93 q 358 55 310 67 q 457 43 406 43 q 606 92 557 43 q 656 239 656 140 l 656 913 q 688 944 656 944 l 699 944 q 731 913 731 944 l 731 242 q 663 51 731 124 q 468 -21 596 -21 z "},"Í":{"ha":283,"x_min":104,"x_max":272,"o":"m 128 1063 q 114 1074 114 1063 l 117 1085 l 188 1281 q 198 1296 192 1292 q 218 1300 204 1300 l 256 1300 q 272 1289 272 1300 q 269 1278 272 1282 l 176 1078 q 166 1066 172 1069 q 149 1063 160 1063 l 128 1063 m 136 0 q 104 32 104 0 l 104 913 q 136 944 104 944 l 147 944 q 179 913 179 944 l 179 32 q 147 0 179 0 l 136 0 z "},"Ĭ":{"ha":283,"x_min":-54,"x_max":338,"o":"m 142 1049 q -5 1106 44 1049 q -54 1261 -54 1164 q -48 1279 -54 1272 q -32 1286 -42 1286 l 1 1286 q 20 1280 15 1286 q 25 1260 25 1274 q 49 1156 25 1192 q 142 1119 74 1119 q 234 1156 210 1119 q 258 1260 258 1192 q 263 1280 258 1274 q 282 1286 268 1286 l 315 1286 q 331 1279 325 1286 q 338 1261 338 1272 q 288 1106 338 1164 q 142 1049 239 1049 m 136 0 q 104 32 104 0 l 104 913 q 136 944 104 944 l 147 944 q 179 913 179 944 l 179 32 q 147 0 179 0 l 136 0 z "},"Ǐ":{"ha":283,"x_min":-57,"x_max":344,"o":"m 133 1036 q 117 1040 122 1036 q 101 1060 113 1044 l -54 1276 q -57 1286 -57 1279 q -51 1297 -57 1293 q -37 1301 -46 1301 l -11 1301 q 10 1297 4 1301 q 25 1278 15 1292 l 142 1108 l 258 1278 q 274 1297 268 1292 q 294 1301 279 1301 l 321 1301 q 338 1293 332 1301 q 338 1276 344 1285 l 182 1060 q 166 1040 171 1044 q 150 1036 161 1036 l 133 1036 m 136 0 q 104 32 104 0 l 104 913 q 136 944 104 944 l 147 944 q 179 913 179 944 l 179 32 q 147 0 179 0 l 136 0 z "},"Î":{"ha":283,"x_min":-61,"x_max":340,"o":"m -37 1063 q -55 1071 -49 1063 q -54 1088 -61 1079 l 101 1304 q 117 1324 113 1319 q 133 1328 122 1328 l 150 1328 q 166 1324 161 1328 q 182 1304 171 1319 l 338 1088 q 340 1078 340 1085 q 335 1067 340 1071 q 321 1063 329 1063 l 294 1063 q 274 1067 279 1063 q 258 1086 268 1072 l 142 1256 l 25 1086 q 10 1067 15 1072 q -11 1063 4 1063 l -37 1063 m 136 0 q 104 32 104 0 l 104 913 q 136 944 104 944 l 147 944 q 179 913 179 944 l 179 32 q 147 0 179 0 l 136 0 z "},"Ï":{"ha":283,"x_min":-39,"x_max":322,"o":"m 7 1021 q -26 1035 -12 1021 q -39 1069 -39 1050 l -39 1088 q -26 1122 -39 1107 q 7 1136 -12 1136 l 26 1136 q 59 1122 46 1136 q 72 1088 72 1107 l 72 1069 q 60 1035 72 1049 q 26 1021 47 1021 l 7 1021 m 257 1021 q 224 1035 238 1021 q 211 1069 211 1050 l 211 1088 q 224 1122 211 1107 q 257 1136 238 1136 l 276 1136 q 309 1122 296 1136 q 322 1088 322 1107 l 322 1069 q 310 1035 322 1049 q 276 1021 297 1021 l 257 1021 m 136 0 q 104 32 104 0 l 104 913 q 136 944 104 944 l 147 944 q 179 913 179 944 l 179 32 q 147 0 179 0 l 136 0 z "},"İ":{"ha":283,"x_min":86,"x_max":197,"o":"m 132 1067 q 99 1081 113 1067 q 86 1115 86 1096 l 86 1133 q 99 1167 86 1153 q 132 1182 113 1182 l 151 1182 q 184 1167 171 1182 q 197 1133 197 1153 l 197 1115 q 185 1081 197 1094 q 151 1067 172 1067 l 132 1067 m 136 0 q 104 32 104 0 l 104 913 q 136 944 104 944 l 147 944 q 179 913 179 944 l 179 32 q 147 0 179 0 l 136 0 z "},"Ị":{"ha":283,"x_min":86,"x_max":197,"o":"m 136 0 q 104 32 104 0 l 104 913 q 136 944 104 944 l 147 944 q 179 913 179 944 l 179 32 q 147 0 179 0 l 136 0 m 132 -224 q 99 -209 113 -224 q 86 -175 86 -194 l 86 -157 q 99 -123 86 -137 q 132 -108 113 -108 l 151 -108 q 184 -123 171 -108 q 197 -157 197 -137 l 197 -175 q 185 -210 197 -196 q 151 -224 172 -224 l 132 -224 z "},"Ì":{"ha":283,"x_min":8,"x_max":179,"o":"m 132 1063 q 115 1066 121 1063 q 104 1078 108 1069 l 11 1278 q 8 1289 8 1282 q 25 1300 8 1300 l 63 1300 q 83 1296 76 1300 q 93 1281 89 1292 l 164 1085 l 167 1074 q 153 1063 167 1063 l 132 1063 m 136 0 q 104 32 104 0 l 104 913 q 136 944 104 944 l 147 944 q 179 913 179 944 l 179 32 q 147 0 179 0 l 136 0 z "},"Ỉ":{"ha":283,"x_min":6,"x_max":321,"o":"m 133 1024 q 101 1056 101 1024 l 101 1108 q 114 1140 101 1129 q 150 1151 126 1151 q 227 1167 206 1151 q 249 1219 249 1183 q 225 1266 249 1251 q 153 1281 201 1281 q 38 1253 92 1281 q 26 1254 28 1249 l 7 1296 q 6 1303 6 1301 q 11 1308 7 1306 q 76 1335 38 1325 q 153 1344 114 1344 q 278 1310 236 1344 q 321 1219 321 1276 q 278 1127 321 1161 q 176 1093 235 1093 l 176 1056 q 144 1024 176 1024 l 133 1024 m 136 0 q 104 32 104 0 l 104 913 q 136 944 104 944 l 147 944 q 179 913 179 944 l 179 32 q 147 0 179 0 l 136 0 z "},"Ī":{"ha":283,"x_min":-83,"x_max":367,"o":"m -51 1067 q -76 1073 -68 1067 q -83 1094 -83 1079 l -83 1104 q -51 1135 -83 1135 l 335 1135 q 367 1104 367 1135 l 367 1094 q 359 1073 367 1079 q 335 1067 351 1067 l -51 1067 m 136 0 q 104 32 104 0 l 104 913 q 136 944 104 944 l 147 944 q 179 913 179 944 l 179 32 q 147 0 179 0 l 136 0 z "},"Į":{"ha":283,"x_min":11,"x_max":193,"o":"m 192 -224 q 193 -232 193 -226 q 178 -247 193 -240 q 113 -258 157 -258 q 38 -232 64 -258 q 11 -165 11 -206 q 31 -86 11 -126 q 96 6 51 -46 q 107 17 107 17 q 104 32 104 25 l 104 913 q 136 944 104 944 l 147 944 q 179 913 179 944 l 179 32 q 176 17 179 25 q 178 11 178 15 q 174 1 178 8 q 111 -88 128 -54 q 94 -154 94 -122 q 103 -182 94 -172 q 128 -192 113 -192 q 158 -186 147 -192 q 168 -183 167 -183 q 178 -193 174 -183 l 192 -224 z "},"Ĩ":{"ha":283,"x_min":-122,"x_max":404,"o":"m 246 1025 q 183 1036 208 1025 q 126 1069 157 1047 q 82 1096 100 1088 q 39 1104 64 1104 q -15 1094 7 1104 q -56 1061 -37 1083 q -87 1040 -74 1040 q -112 1053 -100 1040 q -122 1072 -122 1063 q -108 1101 -122 1083 q 36 1168 -54 1168 q 102 1157 76 1168 q 157 1124 128 1146 q 199 1097 182 1106 q 243 1089 217 1089 q 297 1099 275 1089 q 338 1132 319 1110 q 369 1153 356 1153 q 394 1140 382 1153 q 404 1121 404 1131 q 390 1092 404 1110 q 246 1025 336 1025 m 136 0 q 104 32 104 0 l 104 913 q 136 944 104 944 l 147 944 q 179 913 179 944 l 179 32 q 147 0 179 0 l 136 0 z "},"J":{"ha":643,"x_min":44,"x_max":546,"o":"m 283 -21 q 60 32 146 -21 q 53 54 44 40 l 72 85 q 82 93 76 93 q 92 89 86 93 q 173 55 125 67 q 272 43 221 43 q 422 92 372 43 q 471 239 471 140 l 471 913 q 503 944 471 944 l 514 944 q 546 913 546 944 l 546 242 q 478 51 546 124 q 283 -21 411 -21 z "},"Ĵ":{"ha":746,"x_min":44,"x_max":710,"o":"m 332 1053 q 315 1061 321 1053 q 315 1078 308 1069 l 471 1294 q 487 1314 482 1310 q 503 1318 492 1318 l 519 1318 q 535 1314 531 1318 q 551 1294 540 1310 l 707 1078 q 710 1068 710 1075 q 704 1057 710 1061 q 690 1053 699 1053 l 664 1053 q 643 1058 649 1053 q 628 1076 638 1063 l 511 1246 l 394 1076 q 379 1058 385 1063 q 358 1053 374 1053 l 332 1053 m 283 -21 q 60 32 146 -21 q 53 54 44 40 l 72 85 q 82 93 76 93 q 92 89 86 93 q 173 55 125 67 q 272 43 221 43 q 422 92 372 43 q 471 239 471 140 l 471 913 q 503 944 471 944 l 514 944 q 546 913 546 944 l 546 242 q 478 51 546 124 q 283 -21 411 -21 z "},"K":{"ha":846,"x_min":104,"x_max":769,"o":"m 136 0 q 104 32 104 0 l 104 913 q 136 944 104 944 l 147 944 q 179 913 179 944 l 179 32 q 147 0 179 0 l 136 0 m 703 0 q 690 1 693 0 q 681 8 686 3 l 274 432 q 264 442 271 435 q 254 456 257 450 q 251 472 251 463 q 256 490 251 483 q 265 503 260 497 q 274 513 271 510 l 674 936 q 683 943 679 942 q 696 944 686 944 l 749 944 q 763 935 763 944 q 753 919 763 929 l 331 472 l 760 25 q 769 10 769 15 q 756 0 769 0 l 703 0 z "},"Ķ":{"ha":846,"x_min":104,"x_max":769,"o":"m 136 0 q 104 32 104 0 l 104 913 q 136 944 104 944 l 147 944 q 179 913 179 944 l 179 32 q 147 0 179 0 l 136 0 m 703 0 q 690 1 693 0 q 681 8 686 3 l 274 432 q 264 442 271 435 q 254 456 257 450 q 251 472 251 463 q 256 490 251 483 q 265 503 260 497 q 274 513 271 510 l 674 936 q 683 943 679 942 q 696 944 686 944 l 749 944 q 763 935 763 944 q 753 919 763 929 l 331 472 l 760 25 q 769 10 769 15 q 756 0 769 0 l 703 0 m 264 -293 q 251 -282 251 -293 q 253 -271 251 -275 l 319 -69 q 330 -54 324 -58 q 350 -50 336 -50 l 383 -50 q 400 -61 400 -50 l 397 -72 l 308 -278 q 298 -290 304 -286 q 281 -293 292 -293 l 264 -293 z "},"L":{"ha":753,"x_min":104,"x_max":704,"o":"m 136 0 q 104 32 104 0 l 104 913 q 136 944 104 944 l 147 944 q 179 913 179 944 l 179 68 l 672 68 q 704 38 704 68 l 704 28 q 697 6 704 13 q 672 0 689 0 l 136 0 z "},"Ĺ":{"ha":753,"x_min":104,"x_max":704,"o":"m 126 1029 q 113 1040 113 1029 l 115 1051 l 186 1247 q 197 1263 190 1258 q 217 1267 203 1267 l 254 1267 q 271 1256 271 1267 q 268 1244 271 1249 l 175 1044 q 165 1033 171 1036 q 147 1029 158 1029 l 126 1029 m 136 0 q 104 32 104 0 l 104 913 q 136 944 104 944 l 147 944 q 179 913 179 944 l 179 68 l 672 68 q 704 38 704 68 l 704 28 q 697 6 704 13 q 672 0 689 0 l 136 0 z "},"Ľ":{"ha":753,"x_min":104,"x_max":704,"o":"m 444 767 q 432 778 432 767 q 433 789 432 785 l 500 990 q 510 1006 504 1001 q 531 1010 517 1010 l 564 1010 q 581 999 581 1010 l 578 988 l 489 782 q 478 770 485 774 q 461 767 472 767 l 444 767 m 136 0 q 104 32 104 0 l 104 913 q 136 944 104 944 l 147 944 q 179 913 179 944 l 179 68 l 672 68 q 704 38 704 68 l 704 28 q 697 6 704 13 q 672 0 689 0 l 136 0 z "},"Ļ":{"ha":753,"x_min":104,"x_max":704,"o":"m 136 0 q 104 32 104 0 l 104 913 q 136 944 104 944 l 147 944 q 179 913 179 944 l 179 68 l 672 68 q 704 38 704 68 l 704 28 q 697 6 704 13 q 672 0 689 0 l 136 0 m 304 -293 q 292 -282 292 -293 q 293 -271 292 -275 l 360 -69 q 370 -54 364 -58 q 390 -50 376 -50 l 424 -50 q 440 -61 440 -50 l 438 -72 l 349 -278 q 338 -290 344 -286 q 321 -293 332 -293 l 304 -293 z "},"Ŀ":{"ha":753,"x_min":104,"x_max":704,"o":"m 136 0 q 104 32 104 0 l 104 913 q 136 944 104 944 l 147 944 q 179 913 179 944 l 179 68 l 672 68 q 704 38 704 68 l 704 28 q 697 6 704 13 q 672 0 689 0 l 136 0 m 431 390 q 398 405 411 390 q 385 439 385 419 l 385 457 q 398 491 385 476 q 431 506 411 506 l 450 506 q 483 491 469 506 q 496 457 496 476 l 496 439 q 483 404 496 418 q 450 390 471 390 l 431 390 z "},"Ḷ":{"ha":753,"x_min":104,"x_max":704,"o":"m 136 0 q 104 32 104 0 l 104 913 q 136 944 104 944 l 147 944 q 179 913 179 944 l 179 68 l 672 68 q 704 38 704 68 l 704 28 q 697 6 704 13 q 672 0 689 0 l 136 0 m 394 -224 q 362 -209 375 -224 q 349 -175 349 -194 l 349 -157 q 362 -123 349 -137 q 394 -108 375 -108 l 414 -108 q 447 -123 433 -108 q 460 -157 460 -137 l 460 -175 q 447 -210 460 -196 q 414 -224 435 -224 l 394 -224 z "},"Ḹ":{"ha":799,"x_min":-35,"x_max":750,"o":"m -3 1096 q -27 1102 -19 1096 q -35 1124 -35 1108 l -35 1133 q -3 1164 -35 1164 l 383 1164 q 415 1133 415 1164 l 415 1124 q 408 1102 415 1108 q 383 1096 400 1096 l -3 1096 m 182 0 q 150 32 150 0 l 150 913 q 182 944 150 944 l 193 944 q 225 913 225 944 l 225 68 l 718 68 q 750 38 750 68 l 750 28 q 742 6 750 13 q 718 0 735 0 l 182 0 m 440 -224 q 408 -209 421 -224 q 394 -175 394 -194 l 394 -157 q 408 -123 394 -137 q 440 -108 421 -108 l 460 -108 q 492 -123 479 -108 q 506 -157 506 -137 l 506 -175 q 493 -210 506 -196 q 460 -224 481 -224 l 440 -224 z "},"Ḻ":{"ha":753,"x_min":104,"x_max":704,"o":"m 136 0 q 104 32 104 0 l 104 913 q 136 944 104 944 l 147 944 q 179 913 179 944 l 179 68 l 672 68 q 704 38 704 68 l 704 28 q 697 6 704 13 q 672 0 689 0 l 136 0 m 201 -186 q 177 -180 185 -186 q 169 -158 169 -174 l 169 -149 q 201 -118 169 -118 l 588 -118 q 619 -149 619 -118 l 619 -158 q 612 -180 619 -174 q 588 -186 604 -186 l 201 -186 z "},"Ł":{"ha":854,"x_min":36,"x_max":806,"o":"m 774 68 q 806 38 806 68 l 806 28 q 798 6 806 13 q 774 0 790 0 l 238 0 q 206 32 206 0 l 206 386 l 88 318 q 67 311 74 311 q 46 326 56 311 l 42 335 q 36 354 36 344 q 53 376 36 368 l 206 464 l 206 913 q 238 944 206 944 l 249 944 q 281 913 281 944 l 281 507 l 443 600 q 461 607 454 607 q 485 589 475 607 l 490 581 q 496 565 496 574 q 476 542 496 553 l 281 429 l 281 68 l 774 68 z "},"M":{"ha":1103,"x_min":104,"x_max":999,"o":"m 136 0 q 104 32 104 0 l 104 913 q 136 944 104 944 l 156 944 q 178 941 171 944 q 192 924 186 938 l 551 117 l 911 924 q 924 941 917 938 q 947 944 932 944 l 967 944 q 999 913 999 944 l 999 32 q 967 0 999 0 l 956 0 q 924 32 924 0 l 924 779 l 582 19 q 551 0 574 0 q 521 19 529 0 l 179 779 l 179 32 q 147 0 179 0 l 136 0 z "},"Ṃ":{"ha":1103,"x_min":104,"x_max":999,"o":"m 136 0 q 104 32 104 0 l 104 913 q 136 944 104 944 l 156 944 q 178 941 171 944 q 192 924 186 938 l 551 117 l 911 924 q 924 941 917 938 q 947 944 932 944 l 967 944 q 999 913 999 944 l 999 32 q 967 0 999 0 l 956 0 q 924 32 924 0 l 924 779 l 582 19 q 551 0 574 0 q 521 19 529 0 l 179 779 l 179 32 q 147 0 179 0 l 136 0 m 542 -224 q 509 -209 522 -224 q 496 -175 496 -194 l 496 -157 q 509 -123 496 -137 q 542 -108 522 -108 l 561 -108 q 594 -123 581 -108 q 607 -157 607 -137 l 607 -175 q 594 -210 607 -196 q 561 -224 582 -224 l 542 -224 z "},"N":{"ha":967,"x_min":104,"x_max":863,"o":"m 136 0 q 104 32 104 0 l 104 913 q 136 944 104 944 l 156 944 q 175 940 168 944 q 192 924 182 936 l 788 113 l 788 913 q 819 944 788 944 l 831 944 q 863 913 863 944 l 863 32 q 831 0 863 0 l 811 0 q 792 4 799 0 q 775 21 785 8 l 179 829 l 179 32 q 147 0 179 0 l 136 0 z "},"Ń":{"ha":967,"x_min":104,"x_max":863,"o":"m 469 1046 q 456 1057 456 1046 l 458 1068 l 529 1264 q 540 1279 533 1275 q 560 1283 546 1283 l 597 1283 q 614 1272 614 1283 q 611 1261 614 1265 l 518 1061 q 508 1049 514 1053 q 490 1046 501 1046 l 469 1046 m 136 0 q 104 32 104 0 l 104 913 q 136 944 104 944 l 156 944 q 175 940 168 944 q 192 924 182 936 l 788 113 l 788 913 q 819 944 788 944 l 831 944 q 863 913 863 944 l 863 32 q 831 0 863 0 l 811 0 q 792 4 799 0 q 775 21 785 8 l 179 829 l 179 32 q 147 0 179 0 l 136 0 z "},"Ň":{"ha":967,"x_min":104,"x_max":863,"o":"m 476 1036 q 460 1040 465 1036 q 444 1060 456 1044 l 289 1276 q 286 1286 286 1279 q 292 1297 286 1293 q 306 1301 297 1301 l 332 1301 q 353 1297 347 1301 q 368 1278 358 1292 l 485 1108 l 601 1278 q 617 1297 611 1292 q 638 1301 622 1301 l 664 1301 q 681 1293 675 1301 q 681 1276 688 1285 l 525 1060 q 509 1040 514 1044 q 493 1036 504 1036 l 476 1036 m 136 0 q 104 32 104 0 l 104 913 q 136 944 104 944 l 156 944 q 175 940 168 944 q 192 924 182 936 l 788 113 l 788 913 q 819 944 788 944 l 831 944 q 863 913 863 944 l 863 32 q 831 0 863 0 l 811 0 q 792 4 799 0 q 775 21 785 8 l 179 829 l 179 32 q 147 0 179 0 l 136 0 z "},"Ņ":{"ha":967,"x_min":104,"x_max":863,"o":"m 136 0 q 104 32 104 0 l 104 913 q 136 944 104 944 l 156 944 q 175 940 168 944 q 192 924 182 936 l 788 113 l 788 913 q 819 944 788 944 l 831 944 q 863 913 863 944 l 863 32 q 831 0 863 0 l 811 0 q 792 4 799 0 q 775 21 785 8 l 179 829 l 179 32 q 147 0 179 0 l 136 0 m 407 -293 q 394 -282 394 -293 q 396 -271 394 -275 l 463 -69 q 473 -54 467 -58 q 493 -50 479 -50 l 526 -50 q 543 -61 543 -50 l 540 -72 l 451 -278 q 441 -290 447 -286 q 424 -293 435 -293 l 407 -293 z "},"Ṅ":{"ha":967,"x_min":104,"x_max":863,"o":"m 492 1083 q 459 1098 472 1083 q 446 1132 446 1113 l 446 1150 q 459 1184 446 1169 q 492 1199 472 1199 l 511 1199 q 544 1184 531 1199 q 557 1150 557 1169 l 557 1132 q 544 1097 557 1111 q 511 1083 532 1083 l 492 1083 m 136 0 q 104 32 104 0 l 104 913 q 136 944 104 944 l 156 944 q 175 940 168 944 q 192 924 182 936 l 788 113 l 788 913 q 819 944 788 944 l 831 944 q 863 913 863 944 l 863 32 q 831 0 863 0 l 811 0 q 792 4 799 0 q 775 21 785 8 l 179 829 l 179 32 q 147 0 179 0 l 136 0 z "},"Ṇ":{"ha":967,"x_min":104,"x_max":863,"o":"m 136 0 q 104 32 104 0 l 104 913 q 136 944 104 944 l 156 944 q 175 940 168 944 q 192 924 182 936 l 788 113 l 788 913 q 819 944 788 944 l 831 944 q 863 913 863 944 l 863 32 q 831 0 863 0 l 811 0 q 792 4 799 0 q 775 21 785 8 l 179 829 l 179 32 q 147 0 179 0 l 136 0 m 478 -224 q 445 -209 458 -224 q 432 -175 432 -194 l 432 -157 q 445 -123 432 -137 q 478 -108 458 -108 l 497 -108 q 530 -123 517 -108 q 543 -157 543 -137 l 543 -175 q 531 -210 543 -196 q 497 -224 518 -224 l 478 -224 z "},"Ŋ":{"ha":967,"x_min":104,"x_max":863,"o":"m 831 944 q 863 913 863 944 l 863 32 l 863 -97 q 795 -287 863 -215 q 600 -360 728 -360 q 376 -307 463 -360 q 369 -285 361 -299 l 389 -254 q 399 -246 393 -246 q 408 -250 403 -246 q 490 -284 442 -272 q 589 -296 538 -296 q 738 -247 689 -296 q 788 -100 788 -199 l 788 7 q 775 21 781 11 l 179 829 l 179 32 q 147 0 179 0 l 136 0 q 104 32 104 0 l 104 913 q 136 944 104 944 l 156 944 q 175 940 168 944 q 192 924 182 936 l 788 113 l 788 913 q 819 944 788 944 l 831 944 z "},"Ṉ":{"ha":967,"x_min":104,"x_max":863,"o":"m 136 0 q 104 32 104 0 l 104 913 q 136 944 104 944 l 156 944 q 175 940 168 944 q 192 924 182 936 l 788 113 l 788 913 q 819 944 788 944 l 831 944 q 863 913 863 944 l 863 32 q 831 0 863 0 l 811 0 q 792 4 799 0 q 775 21 785 8 l 179 829 l 179 32 q 147 0 179 0 l 136 0 m 293 -186 q 269 -180 276 -186 q 261 -158 261 -174 l 261 -149 q 293 -118 261 -118 l 679 -118 q 711 -149 711 -118 l 711 -158 q 703 -180 711 -174 q 679 -186 696 -186 l 293 -186 z "},"Ñ":{"ha":967,"x_min":104,"x_max":863,"o":"m 581 1058 q 517 1069 543 1058 q 461 1103 492 1081 q 417 1129 435 1121 q 374 1138 399 1138 q 319 1127 342 1138 q 279 1094 297 1117 q 247 1074 261 1074 q 222 1086 235 1074 q 213 1106 213 1096 q 226 1135 213 1117 q 371 1201 281 1201 q 437 1190 411 1201 q 492 1157 463 1179 q 534 1131 517 1139 q 578 1122 551 1122 q 632 1133 610 1122 q 672 1165 654 1143 q 704 1186 690 1186 q 729 1174 717 1186 q 739 1154 739 1164 q 725 1125 739 1143 q 581 1058 671 1058 m 136 0 q 104 32 104 0 l 104 913 q 136 944 104 944 l 156 944 q 175 940 168 944 q 192 924 182 936 l 788 113 l 788 913 q 819 944 788 944 l 831 944 q 863 913 863 944 l 863 32 q 831 0 863 0 l 811 0 q 792 4 799 0 q 775 21 785 8 l 179 829 l 179 32 q 147 0 179 0 l 136 0 z "},"O":{"ha":1067,"x_min":76,"x_max":990,"o":"m 533 -21 q 288 38 390 -21 q 131 207 185 96 q 76 472 76 318 q 131 738 76 626 q 288 907 185 849 q 533 965 390 965 q 779 907 676 965 q 936 738 882 849 q 990 472 990 626 q 936 207 990 318 q 779 38 882 96 q 533 -21 676 -21 m 533 43 q 817 153 715 43 q 918 472 918 264 q 817 791 918 681 q 533 901 715 901 q 250 791 351 901 q 149 472 149 681 q 250 153 149 264 q 533 43 351 43 z "},"Ó":{"ha":1067,"x_min":76,"x_max":990,"o":"m 515 1063 q 501 1074 501 1063 l 504 1085 l 575 1281 q 585 1296 579 1292 q 606 1300 592 1300 l 643 1300 q 660 1289 660 1300 q 657 1278 660 1282 l 564 1078 q 553 1066 560 1069 q 536 1063 547 1063 l 515 1063 m 533 -21 q 288 38 390 -21 q 131 207 185 96 q 76 472 76 318 q 131 738 76 626 q 288 907 185 849 q 533 965 390 965 q 779 907 676 965 q 936 738 882 849 q 990 472 990 626 q 936 207 990 318 q 779 38 882 96 q 533 -21 676 -21 m 533 43 q 817 153 715 43 q 918 472 918 264 q 817 791 918 681 q 533 901 715 901 q 250 791 351 901 q 149 472 149 681 q 250 153 149 264 q 533 43 351 43 z "},"Ŏ":{"ha":1067,"x_min":76,"x_max":990,"o":"m 533 1036 q 387 1094 436 1036 q 338 1249 338 1151 q 344 1267 338 1260 q 360 1274 350 1274 l 393 1274 q 412 1267 407 1274 q 417 1247 417 1261 q 441 1143 417 1179 q 533 1107 465 1107 q 626 1143 601 1107 q 650 1247 650 1179 q 655 1267 650 1261 q 674 1274 660 1274 l 707 1274 q 723 1267 717 1274 q 729 1249 729 1260 q 680 1094 729 1151 q 533 1036 631 1036 m 533 -21 q 288 38 390 -21 q 131 207 185 96 q 76 472 76 318 q 131 738 76 626 q 288 907 185 849 q 533 965 390 965 q 779 907 676 965 q 936 738 882 849 q 990 472 990 626 q 936 207 990 318 q 779 38 882 96 q 533 -21 676 -21 m 533 43 q 817 153 715 43 q 918 472 918 264 q 817 791 918 681 q 533 901 715 901 q 250 791 351 901 q 149 472 149 681 q 250 153 149 264 q 533 43 351 43 z "},"Ǒ":{"ha":1067,"x_min":76,"x_max":990,"o":"m 526 1036 q 510 1040 515 1036 q 494 1060 506 1044 l 339 1276 q 336 1286 336 1279 q 342 1297 336 1293 q 356 1301 347 1301 l 382 1301 q 403 1297 397 1301 q 418 1278 408 1292 l 535 1108 l 651 1278 q 667 1297 661 1292 q 688 1301 672 1301 l 714 1301 q 731 1293 725 1301 q 731 1276 738 1285 l 575 1060 q 559 1040 564 1044 q 543 1036 554 1036 l 526 1036 m 533 -21 q 288 38 390 -21 q 131 207 185 96 q 76 472 76 318 q 131 738 76 626 q 288 907 185 849 q 533 965 390 965 q 779 907 676 965 q 936 738 882 849 q 990 472 990 626 q 936 207 990 318 q 779 38 882 96 q 533 -21 676 -21 m 533 43 q 817 153 715 43 q 918 472 918 264 q 817 791 918 681 q 533 901 715 901 q 250 791 351 901 q 149 472 149 681 q 250 153 149 264 q 533 43 351 43 z "},"Ô":{"ha":1067,"x_min":76,"x_max":990,"o":"m 354 1053 q 337 1061 343 1053 q 338 1078 331 1069 l 493 1294 q 509 1314 504 1310 q 525 1318 514 1318 l 542 1318 q 558 1314 553 1318 q 574 1294 563 1310 l 729 1078 q 732 1068 732 1075 q 726 1057 732 1061 q 713 1053 721 1053 l 686 1053 q 665 1058 671 1053 q 650 1076 660 1063 l 533 1246 l 417 1076 q 401 1058 407 1063 q 381 1053 396 1053 l 354 1053 m 533 -21 q 288 38 390 -21 q 131 207 185 96 q 76 472 76 318 q 131 738 76 626 q 288 907 185 849 q 533 965 390 965 q 779 907 676 965 q 936 738 882 849 q 990 472 990 626 q 936 207 990 318 q 779 38 882 96 q 533 -21 676 -21 m 533 43 q 817 153 715 43 q 918 472 918 264 q 817 791 918 681 q 533 901 715 901 q 250 791 351 901 q 149 472 149 681 q 250 153 149 264 q 533 43 351 43 z "},"Ố":{"ha":1067,"x_min":76,"x_max":990,"o":"m 671 1183 q 657 1194 657 1183 l 660 1206 l 714 1356 q 724 1371 718 1367 q 744 1375 731 1375 l 782 1375 q 799 1364 799 1375 q 796 1353 799 1357 l 719 1199 q 709 1187 715 1190 q 692 1183 703 1183 l 671 1183 m 357 1038 q 345 1042 350 1038 q 340 1051 340 1046 q 344 1063 340 1057 l 493 1238 q 512 1256 506 1251 q 529 1261 518 1261 l 538 1261 q 555 1256 549 1261 q 574 1238 561 1251 l 722 1063 q 726 1051 726 1057 q 722 1042 726 1046 q 710 1038 717 1038 l 683 1038 q 665 1040 671 1038 q 650 1053 660 1043 l 533 1189 l 417 1053 q 401 1040 407 1043 q 383 1038 396 1038 l 357 1038 m 533 -21 q 288 38 390 -21 q 131 207 185 96 q 76 472 76 318 q 131 738 76 626 q 288 907 185 849 q 533 965 390 965 q 779 907 676 965 q 936 738 882 849 q 990 472 990 626 q 936 207 990 318 q 779 38 882 96 q 533 -21 676 -21 m 533 43 q 817 153 715 43 q 918 472 918 264 q 817 791 918 681 q 533 901 715 901 q 250 791 351 901 q 149 472 149 681 q 250 153 149 264 q 533 43 351 43 z "},"Ộ":{"ha":1067,"x_min":76,"x_max":990,"o":"m 353 1036 q 335 1044 342 1036 q 336 1061 329 1053 l 492 1278 q 508 1297 503 1293 q 524 1301 513 1301 l 540 1301 q 556 1297 551 1301 q 572 1278 561 1293 l 728 1061 q 731 1051 731 1058 q 725 1040 731 1044 q 711 1036 719 1036 l 685 1036 q 664 1041 669 1036 q 649 1060 658 1046 l 532 1229 l 415 1060 q 400 1041 406 1046 q 379 1036 394 1036 l 353 1036 m 533 -21 q 288 38 390 -21 q 131 207 185 96 q 76 472 76 318 q 131 738 76 626 q 288 907 185 849 q 533 965 390 965 q 779 907 676 965 q 936 738 882 849 q 990 472 990 626 q 936 207 990 318 q 779 38 882 96 q 533 -21 676 -21 m 533 43 q 817 153 715 43 q 918 472 918 264 q 817 791 918 681 q 533 901 715 901 q 250 791 351 901 q 149 472 149 681 q 250 153 149 264 q 533 43 351 43 m 522 -224 q 490 -209 503 -224 q 476 -175 476 -194 l 476 -157 q 490 -123 476 -137 q 522 -108 503 -108 l 542 -108 q 574 -123 561 -108 q 588 -157 588 -137 l 588 -175 q 575 -210 588 -196 q 542 -224 563 -224 l 522 -224 z "},"Ồ":{"ha":1067,"x_min":76,"x_max":990,"o":"m 376 1183 q 359 1187 365 1183 q 349 1199 353 1190 l 272 1353 q 269 1364 269 1357 q 286 1375 269 1375 l 324 1375 q 344 1371 338 1375 q 354 1356 350 1367 l 408 1206 l 411 1194 q 397 1183 411 1183 l 376 1183 m 358 1038 q 347 1042 351 1038 q 342 1051 342 1046 q 346 1063 342 1057 l 494 1238 q 513 1256 507 1251 q 531 1261 519 1261 l 539 1261 q 556 1256 550 1261 q 575 1238 563 1251 l 724 1063 q 728 1051 728 1057 q 723 1042 728 1046 q 711 1038 718 1038 l 685 1038 q 667 1040 672 1038 q 651 1053 661 1043 l 535 1189 l 418 1053 q 403 1040 408 1043 q 385 1038 397 1038 l 358 1038 m 533 -21 q 288 38 390 -21 q 131 207 185 96 q 76 472 76 318 q 131 738 76 626 q 288 907 185 849 q 533 965 390 965 q 779 907 676 965 q 936 738 882 849 q 990 472 990 626 q 936 207 990 318 q 779 38 882 96 q 533 -21 676 -21 m 533 43 q 817 153 715 43 q 918 472 918 264 q 817 791 918 681 q 533 901 715 901 q 250 791 351 901 q 149 472 149 681 q 250 153 149 264 q 533 43 351 43 z "},"Ổ":{"ha":1067,"x_min":76,"x_max":990,"o":"m 693 1171 q 661 1203 661 1171 l 661 1235 q 674 1267 661 1256 q 710 1278 686 1278 q 760 1289 746 1278 q 775 1325 775 1300 q 713 1367 775 1367 q 631 1347 665 1367 q 619 1349 621 1343 l 600 1389 q 599 1397 599 1394 q 604 1401 600 1399 q 654 1422 624 1414 q 715 1429 685 1429 q 812 1402 778 1429 q 846 1325 846 1375 q 813 1247 846 1274 q 735 1219 781 1219 l 735 1203 q 704 1171 735 1171 l 693 1171 m 357 1038 q 345 1042 350 1038 q 340 1051 340 1046 q 344 1063 340 1057 l 493 1238 q 512 1256 506 1251 q 529 1261 518 1261 l 538 1261 q 555 1256 549 1261 q 574 1238 561 1251 l 722 1063 q 726 1051 726 1057 q 722 1042 726 1046 q 710 1038 717 1038 l 683 1038 q 665 1040 671 1038 q 650 1053 660 1043 l 533 1189 l 417 1053 q 401 1040 407 1043 q 383 1038 396 1038 l 357 1038 m 533 -21 q 288 38 390 -21 q 131 207 185 96 q 76 472 76 318 q 131 738 76 626 q 288 907 185 849 q 533 965 390 965 q 779 907 676 965 q 936 738 882 849 q 990 472 990 626 q 936 207 990 318 q 779 38 882 96 q 533 -21 676 -21 m 533 43 q 817 153 715 43 q 918 472 918 264 q 817 791 918 681 q 533 901 715 901 q 250 791 351 901 q 149 472 149 681 q 250 153 149 264 q 533 43 351 43 z "},"Ỗ":{"ha":1067,"x_min":76,"x_max":990,"o":"m 622 1279 q 565 1291 589 1279 q 515 1324 542 1303 q 477 1349 492 1340 q 443 1357 463 1357 q 397 1347 414 1357 q 364 1315 381 1338 q 332 1294 347 1294 q 308 1307 321 1294 q 299 1325 299 1317 q 313 1354 299 1336 q 440 1419 361 1419 q 502 1408 478 1419 q 550 1375 526 1396 q 584 1350 569 1358 q 619 1342 599 1342 q 665 1351 649 1342 q 699 1383 682 1361 q 731 1404 715 1404 q 754 1392 742 1404 q 764 1374 764 1382 q 750 1344 764 1363 q 622 1279 701 1279 m 536 1036 q 397 1079 451 1036 q 342 1203 342 1122 q 348 1221 342 1214 q 364 1228 354 1228 l 394 1228 q 413 1222 408 1228 q 418 1201 418 1215 q 536 1104 418 1104 q 654 1201 654 1104 q 659 1222 654 1215 q 678 1228 664 1228 l 708 1228 q 724 1221 718 1228 q 731 1203 731 1214 q 676 1079 731 1122 q 536 1036 621 1036 m 533 -21 q 288 38 390 -21 q 131 207 185 96 q 76 472 76 318 q 131 738 76 626 q 288 907 185 849 q 533 965 390 965 q 779 907 676 965 q 936 738 882 849 q 990 472 990 626 q 936 207 990 318 q 779 38 882 96 q 533 -21 676 -21 m 533 43 q 817 153 715 43 q 918 472 918 264 q 817 791 918 681 q 533 901 715 901 q 250 791 351 901 q 149 472 149 681 q 250 153 149 264 q 533 43 351 43 z "},"Ö":{"ha":1067,"x_min":76,"x_max":990,"o":"m 399 1058 q 366 1073 379 1058 q 353 1107 353 1088 l 353 1125 q 366 1159 353 1144 q 399 1174 379 1174 l 418 1174 q 451 1159 438 1174 q 464 1125 464 1144 l 464 1107 q 451 1072 464 1086 q 418 1058 439 1058 l 399 1058 m 649 1058 q 616 1073 629 1058 q 603 1107 603 1088 l 603 1125 q 616 1159 603 1144 q 649 1174 629 1174 l 668 1174 q 701 1159 688 1174 q 714 1125 714 1144 l 714 1107 q 701 1072 714 1086 q 668 1058 689 1058 l 649 1058 m 533 -21 q 288 38 390 -21 q 131 207 185 96 q 76 472 76 318 q 131 738 76 626 q 288 907 185 849 q 533 965 390 965 q 779 907 676 965 q 936 738 882 849 q 990 472 990 626 q 936 207 990 318 q 779 38 882 96 q 533 -21 676 -21 m 533 43 q 817 153 715 43 q 918 472 918 264 q 817 791 918 681 q 533 901 715 901 q 250 791 351 901 q 149 472 149 681 q 250 153 149 264 q 533 43 351 43 z "},"Ọ":{"ha":1067,"x_min":76,"x_max":990,"o":"m 533 -21 q 288 38 390 -21 q 131 207 185 96 q 76 472 76 318 q 131 738 76 626 q 288 907 185 849 q 533 965 390 965 q 779 907 676 965 q 936 738 882 849 q 990 472 990 626 q 936 207 990 318 q 779 38 882 96 q 533 -21 676 -21 m 533 43 q 817 153 715 43 q 918 472 918 264 q 817 791 918 681 q 533 901 715 901 q 250 791 351 901 q 149 472 149 681 q 250 153 149 264 q 533 43 351 43 m 524 -224 q 491 -209 504 -224 q 478 -175 478 -194 l 478 -157 q 491 -123 478 -137 q 524 -108 504 -108 l 543 -108 q 576 -123 563 -108 q 589 -157 589 -137 l 589 -175 q 576 -210 589 -196 q 543 -224 564 -224 l 524 -224 z "},"Ò":{"ha":1067,"x_min":76,"x_max":990,"o":"m 549 1063 q 531 1066 538 1063 q 521 1078 525 1069 l 428 1278 q 425 1289 425 1282 q 442 1300 425 1300 l 479 1300 q 499 1296 493 1300 q 510 1281 506 1292 l 581 1085 l 583 1074 q 569 1063 583 1063 l 549 1063 m 533 -21 q 288 38 390 -21 q 131 207 185 96 q 76 472 76 318 q 131 738 76 626 q 288 907 185 849 q 533 965 390 965 q 779 907 676 965 q 936 738 882 849 q 990 472 990 626 q 936 207 990 318 q 779 38 882 96 q 533 -21 676 -21 m 533 43 q 817 153 715 43 q 918 472 918 264 q 817 791 918 681 q 533 901 715 901 q 250 791 351 901 q 149 472 149 681 q 250 153 149 264 q 533 43 351 43 z "},"Ỏ":{"ha":1067,"x_min":76,"x_max":990,"o":"m 524 1024 q 492 1056 492 1024 l 492 1108 q 504 1140 492 1129 q 540 1151 517 1151 q 617 1167 596 1151 q 639 1219 639 1183 q 615 1266 639 1251 q 543 1281 592 1281 q 428 1253 482 1281 q 417 1254 418 1249 l 397 1296 q 397 1303 396 1301 q 401 1308 397 1306 q 466 1335 428 1325 q 543 1344 504 1344 q 669 1310 626 1344 q 711 1219 711 1276 q 668 1127 711 1161 q 567 1093 625 1093 l 567 1056 q 535 1024 567 1024 l 524 1024 m 533 -21 q 288 38 390 -21 q 131 207 185 96 q 76 472 76 318 q 131 738 76 626 q 288 907 185 849 q 533 965 390 965 q 779 907 676 965 q 936 738 882 849 q 990 472 990 626 q 936 207 990 318 q 779 38 882 96 q 533 -21 676 -21 m 533 43 q 817 153 715 43 q 918 472 918 264 q 817 791 918 681 q 533 901 715 901 q 250 791 351 901 q 149 472 149 681 q 250 153 149 264 q 533 43 351 43 z "},"Ơ":{"ha":1104,"x_min":76,"x_max":1069,"o":"m 533 -21 q 288 38 390 -21 q 131 207 185 96 q 76 472 76 318 q 131 738 76 626 q 288 907 185 849 q 533 965 390 965 q 860 846 740 965 q 960 884 929 846 q 990 1014 990 922 q 995 1034 990 1028 q 1014 1040 1000 1040 l 1047 1040 q 1063 1033 1057 1040 q 1069 1015 1069 1026 q 1028 853 1069 913 q 913 779 986 794 q 990 472 990 656 q 936 207 990 318 q 779 38 882 96 q 533 -21 676 -21 m 533 43 q 817 153 715 43 q 918 472 918 264 q 817 791 918 681 q 533 901 715 901 q 250 791 351 901 q 149 472 149 681 q 250 153 149 264 q 533 43 351 43 z "},"Ớ":{"ha":1104,"x_min":76,"x_max":1069,"o":"m 514 1029 q 500 1040 500 1029 l 503 1051 l 574 1247 q 584 1263 578 1258 q 604 1267 590 1267 l 642 1267 q 658 1256 658 1267 q 656 1244 658 1249 l 563 1044 q 552 1033 558 1036 q 535 1029 546 1029 l 514 1029 m 533 -21 q 288 38 390 -21 q 131 207 185 96 q 76 472 76 318 q 131 738 76 626 q 288 907 185 849 q 533 965 390 965 q 860 846 740 965 q 960 884 929 846 q 990 1014 990 922 q 995 1034 990 1028 q 1014 1040 1000 1040 l 1047 1040 q 1063 1033 1057 1040 q 1069 1015 1069 1026 q 1028 853 1069 913 q 913 779 986 794 q 990 472 990 656 q 936 207 990 318 q 779 38 882 96 q 533 -21 676 -21 m 533 43 q 817 153 715 43 q 918 472 918 264 q 817 791 918 681 q 533 901 715 901 q 250 791 351 901 q 149 472 149 681 q 250 153 149 264 q 533 43 351 43 z "},"Ợ":{"ha":1104,"x_min":76,"x_max":1069,"o":"m 533 -21 q 288 38 390 -21 q 131 207 185 96 q 76 472 76 318 q 131 738 76 626 q 288 907 185 849 q 533 965 390 965 q 860 846 740 965 q 960 884 929 846 q 990 1014 990 922 q 995 1034 990 1028 q 1014 1040 1000 1040 l 1047 1040 q 1063 1033 1057 1040 q 1069 1015 1069 1026 q 1028 853 1069 913 q 913 779 986 794 q 990 472 990 656 q 936 207 990 318 q 779 38 882 96 q 533 -21 676 -21 m 533 43 q 817 153 715 43 q 918 472 918 264 q 817 791 918 681 q 533 901 715 901 q 250 791 351 901 q 149 472 149 681 q 250 153 149 264 q 533 43 351 43 m 522 -224 q 490 -209 503 -224 q 476 -175 476 -194 l 476 -157 q 490 -123 476 -137 q 522 -108 503 -108 l 542 -108 q 574 -123 561 -108 q 588 -157 588 -137 l 588 -175 q 575 -210 588 -196 q 542 -224 563 -224 l 522 -224 z "},"Ờ":{"ha":1104,"x_min":76,"x_max":1069,"o":"m 550 1029 q 533 1033 539 1029 q 522 1044 526 1036 l 429 1244 q 426 1256 426 1249 q 443 1267 426 1267 l 481 1267 q 501 1263 494 1267 q 511 1247 507 1258 l 582 1051 l 585 1040 q 571 1029 585 1029 l 550 1029 m 533 -21 q 288 38 390 -21 q 131 207 185 96 q 76 472 76 318 q 131 738 76 626 q 288 907 185 849 q 533 965 390 965 q 860 846 740 965 q 960 884 929 846 q 990 1014 990 922 q 995 1034 990 1028 q 1014 1040 1000 1040 l 1047 1040 q 1063 1033 1057 1040 q 1069 1015 1069 1026 q 1028 853 1069 913 q 913 779 986 794 q 990 472 990 656 q 936 207 990 318 q 779 38 882 96 q 533 -21 676 -21 m 533 43 q 817 153 715 43 q 918 472 918 264 q 817 791 918 681 q 533 901 715 901 q 250 791 351 901 q 149 472 149 681 q 250 153 149 264 q 533 43 351 43 z "},"Ở":{"ha":1104,"x_min":76,"x_max":1069,"o":"m 538 1024 q 506 1056 506 1024 l 506 1108 q 518 1140 506 1129 q 554 1151 531 1151 q 631 1167 610 1151 q 653 1219 653 1183 q 629 1266 653 1251 q 557 1281 606 1281 q 442 1253 496 1281 q 431 1254 432 1249 l 411 1296 q 410 1303 410 1301 q 415 1308 411 1306 q 480 1335 442 1325 q 557 1344 518 1344 q 683 1310 640 1344 q 725 1219 725 1276 q 682 1127 725 1161 q 581 1093 639 1093 l 581 1056 q 549 1024 581 1024 l 538 1024 m 533 -21 q 288 38 390 -21 q 131 207 185 96 q 76 472 76 318 q 131 738 76 626 q 288 907 185 849 q 533 965 390 965 q 860 846 740 965 q 960 884 929 846 q 990 1014 990 922 q 995 1034 990 1028 q 1014 1040 1000 1040 l 1047 1040 q 1063 1033 1057 1040 q 1069 1015 1069 1026 q 1028 853 1069 913 q 913 779 986 794 q 990 472 990 656 q 936 207 990 318 q 779 38 882 96 q 533 -21 676 -21 m 533 43 q 817 153 715 43 q 918 472 918 264 q 817 791 918 681 q 533 901 715 901 q 250 791 351 901 q 149 472 149 681 q 250 153 149 264 q 533 43 351 43 z "},"Ỡ":{"ha":1104,"x_min":76,"x_max":1069,"o":"m 657 1025 q 594 1036 619 1025 q 538 1069 568 1047 q 493 1096 511 1088 q 450 1104 475 1104 q 396 1094 418 1104 q 356 1061 374 1083 q 324 1040 338 1040 q 299 1053 311 1040 q 289 1072 289 1063 q 303 1101 289 1083 q 447 1168 357 1168 q 513 1157 488 1168 q 568 1124 539 1146 q 610 1097 593 1106 q 654 1089 628 1089 q 708 1099 686 1089 q 749 1132 731 1110 q 781 1153 767 1153 q 806 1140 793 1153 q 815 1121 815 1131 q 801 1092 815 1110 q 657 1025 747 1025 m 533 -21 q 288 38 390 -21 q 131 207 185 96 q 76 472 76 318 q 131 738 76 626 q 288 907 185 849 q 533 965 390 965 q 860 846 740 965 q 960 884 929 846 q 990 1014 990 922 q 995 1034 990 1028 q 1014 1040 1000 1040 l 1047 1040 q 1063 1033 1057 1040 q 1069 1015 1069 1026 q 1028 853 1069 913 q 913 779 986 794 q 990 472 990 656 q 936 207 990 318 q 779 38 882 96 q 533 -21 676 -21 m 533 43 q 817 153 715 43 q 918 472 918 264 q 817 791 918 681 q 533 901 715 901 q 250 791 351 901 q 149 472 149 681 q 250 153 149 264 q 533 43 351 43 z "},"Ő":{"ha":1067,"x_min":76,"x_max":990,"o":"m 388 1046 q 374 1057 374 1046 q 376 1068 374 1064 l 475 1264 q 486 1279 481 1275 q 506 1283 492 1283 l 543 1283 q 561 1272 561 1283 q 557 1261 561 1268 l 436 1061 q 425 1049 431 1053 q 408 1046 419 1046 l 388 1046 m 606 1046 q 592 1057 592 1046 q 594 1068 592 1064 l 693 1264 q 704 1279 699 1275 q 724 1283 710 1283 l 761 1283 q 779 1272 779 1283 q 775 1261 779 1268 l 654 1061 q 643 1049 649 1053 q 626 1046 638 1046 l 606 1046 m 533 -21 q 288 38 390 -21 q 131 207 185 96 q 76 472 76 318 q 131 738 76 626 q 288 907 185 849 q 533 965 390 965 q 779 907 676 965 q 936 738 882 849 q 990 472 990 626 q 936 207 990 318 q 779 38 882 96 q 533 -21 676 -21 m 533 43 q 817 153 715 43 q 918 472 918 264 q 817 791 918 681 q 533 901 715 901 q 250 791 351 901 q 149 472 149 681 q 250 153 149 264 q 533 43 351 43 z "},"Ō":{"ha":1067,"x_min":76,"x_max":990,"o":"m 340 1096 q 316 1102 324 1096 q 308 1124 308 1108 l 308 1133 q 340 1164 308 1164 l 726 1164 q 758 1133 758 1164 l 758 1124 q 751 1102 758 1108 q 726 1096 743 1096 l 340 1096 m 533 -21 q 288 38 390 -21 q 131 207 185 96 q 76 472 76 318 q 131 738 76 626 q 288 907 185 849 q 533 965 390 965 q 779 907 676 965 q 936 738 882 849 q 990 472 990 626 q 936 207 990 318 q 779 38 882 96 q 533 -21 676 -21 m 533 43 q 817 153 715 43 q 918 472 918 264 q 817 791 918 681 q 533 901 715 901 q 250 791 351 901 q 149 472 149 681 q 250 153 149 264 q 533 43 351 43 z "},"Ø":{"ha":1067,"x_min":76,"x_max":990,"o":"m 756 919 q 930 751 869 865 q 990 472 990 636 q 936 207 990 318 q 779 38 882 96 q 533 -21 676 -21 q 378 0 449 -21 l 335 -106 q 314 -119 329 -119 l 268 -119 q 258 -101 250 -119 l 311 25 q 137 194 197 81 q 76 472 76 308 q 131 738 76 626 q 288 907 185 849 q 533 965 390 965 q 688 944 617 965 l 722 1029 q 743 1043 728 1043 l 789 1043 q 799 1025 807 1043 l 756 919 m 149 472 q 197 232 149 329 q 336 88 246 135 l 663 885 q 533 901 604 901 q 250 791 351 901 q 149 472 149 681 m 533 43 q 817 153 715 43 q 918 472 918 264 q 869 713 918 615 q 731 858 821 810 l 403 60 q 533 43 464 43 z "},"Ǿ":{"ha":1067,"x_min":76,"x_max":990,"o":"m 471 1104 q 457 1115 457 1104 l 460 1126 l 531 1322 q 541 1338 535 1333 q 561 1342 547 1342 l 599 1342 q 615 1331 615 1342 q 613 1319 615 1324 l 519 1119 q 509 1108 515 1111 q 492 1104 503 1104 l 471 1104 m 756 919 q 930 751 869 865 q 990 472 990 636 q 936 207 990 318 q 779 38 882 96 q 533 -21 676 -21 q 378 0 449 -21 l 335 -106 q 314 -119 329 -119 l 268 -119 q 258 -101 250 -119 l 311 25 q 137 194 197 81 q 76 472 76 308 q 131 738 76 626 q 288 907 185 849 q 533 965 390 965 q 688 944 617 965 l 722 1029 q 743 1043 728 1043 l 789 1043 q 799 1025 807 1043 l 756 919 m 149 472 q 197 232 149 329 q 336 88 246 135 l 663 885 q 533 901 604 901 q 250 791 351 901 q 149 472 149 681 m 533 43 q 817 153 715 43 q 918 472 918 264 q 869 713 918 615 q 731 858 821 810 l 403 60 q 533 43 464 43 z "},"Õ":{"ha":1067,"x_min":76,"x_max":990,"o":"m 639 1058 q 576 1069 601 1058 q 519 1103 550 1081 q 475 1129 493 1121 q 432 1138 457 1138 q 378 1127 400 1138 q 338 1094 356 1117 q 306 1074 319 1074 q 281 1086 293 1074 q 271 1106 271 1096 q 285 1135 271 1117 q 429 1201 339 1201 q 495 1190 469 1201 q 550 1157 521 1179 q 592 1131 575 1139 q 636 1122 610 1122 q 690 1133 668 1122 q 731 1165 713 1143 q 763 1186 749 1186 q 788 1174 775 1186 q 797 1154 797 1164 q 783 1125 797 1143 q 639 1058 729 1058 m 533 -21 q 288 38 390 -21 q 131 207 185 96 q 76 472 76 318 q 131 738 76 626 q 288 907 185 849 q 533 965 390 965 q 779 907 676 965 q 936 738 882 849 q 990 472 990 626 q 936 207 990 318 q 779 38 882 96 q 533 -21 676 -21 m 533 43 q 817 153 715 43 q 918 472 918 264 q 817 791 918 681 q 533 901 715 901 q 250 791 351 901 q 149 472 149 681 q 250 153 149 264 q 533 43 351 43 z "},"Œ":{"ha":1636,"x_min":76,"x_max":1560,"o":"m 993 876 l 993 507 l 1407 507 q 1431 501 1424 507 q 1439 479 1439 494 l 1439 469 q 1407 439 1439 439 l 993 439 l 993 68 l 1528 68 q 1560 38 1560 68 l 1560 28 q 1552 6 1560 13 q 1528 0 1544 0 l 950 0 q 918 32 918 0 l 918 174 q 763 29 861 79 q 533 -21 665 -21 q 288 38 390 -21 q 131 207 185 96 q 76 472 76 318 q 131 738 76 626 q 288 907 185 849 q 533 965 390 965 q 763 915 665 965 q 918 771 861 865 l 918 913 q 950 944 918 944 l 1528 944 q 1552 938 1544 944 q 1560 917 1560 932 l 1560 907 q 1528 876 1560 876 l 993 876 m 533 43 q 817 153 715 43 q 918 472 918 264 q 817 791 918 681 q 533 901 715 901 q 250 791 351 901 q 149 472 149 681 q 250 153 149 264 q 533 43 351 43 z "},"P":{"ha":850,"x_min":104,"x_max":801,"o":"m 136 0 q 104 32 104 0 l 104 913 q 136 944 104 944 l 507 944 q 726 865 651 944 q 801 644 801 785 q 726 424 801 504 q 506 344 651 344 l 179 344 l 179 32 q 147 0 179 0 l 136 0 m 513 413 q 676 470 624 413 q 729 644 729 528 q 676 819 729 761 q 513 876 624 876 l 179 876 l 179 413 l 513 413 z "},"Þ":{"ha":878,"x_min":104,"x_max":801,"o":"m 136 0 q 104 32 104 0 l 104 913 q 136 944 104 944 l 147 944 q 179 913 179 944 l 179 772 l 507 772 q 726 692 651 772 q 801 472 801 613 q 726 252 801 332 q 506 172 651 172 l 179 172 l 179 32 q 147 0 179 0 l 136 0 m 513 240 q 676 298 624 240 q 729 472 729 356 q 676 647 729 589 q 513 704 624 704 l 179 704 l 179 240 l 513 240 z "},"Q":{"ha":1067,"x_min":76,"x_max":990,"o":"m 739 -251 q 552 -187 621 -251 q 483 -18 483 -124 q 183 125 290 -3 q 76 472 76 253 q 131 738 76 626 q 288 907 185 849 q 533 965 390 965 q 779 907 676 965 q 936 738 882 849 q 990 472 990 626 q 876 117 990 246 q 558 -21 763 -12 q 610 -146 558 -104 q 750 -187 663 -187 q 907 -143 840 -187 q 917 -139 913 -139 q 926 -147 922 -139 l 946 -178 q 949 -187 949 -182 q 939 -200 949 -196 q 844 -240 890 -228 q 739 -251 797 -251 m 533 43 q 817 153 715 43 q 918 472 918 264 q 817 791 918 681 q 533 901 715 901 q 250 791 351 901 q 149 472 149 681 q 250 153 149 264 q 533 43 351 43 z "},"R":{"ha":878,"x_min":104,"x_max":801,"o":"m 136 0 q 104 32 104 0 l 104 913 q 136 944 104 944 l 507 944 q 726 873 651 944 q 801 672 801 801 q 749 496 801 564 q 594 407 697 428 l 765 22 l 768 11 q 751 0 768 0 l 718 0 q 699 4 704 0 q 686 24 693 8 l 519 400 l 179 400 l 179 32 q 147 0 179 0 l 136 0 m 513 468 q 676 517 624 468 q 729 672 729 567 q 676 827 729 778 q 513 876 624 876 l 179 876 l 179 468 l 513 468 z "},"Ŕ":{"ha":878,"x_min":104,"x_max":801,"o":"m 367 1046 q 353 1057 353 1046 l 356 1068 l 426 1264 q 437 1279 431 1275 q 457 1283 443 1283 l 494 1283 q 511 1272 511 1283 q 508 1261 511 1265 l 415 1061 q 405 1049 411 1053 q 388 1046 399 1046 l 367 1046 m 136 0 q 104 32 104 0 l 104 913 q 136 944 104 944 l 507 944 q 726 873 651 944 q 801 672 801 801 q 749 496 801 564 q 594 407 697 428 l 765 22 l 768 11 q 751 0 768 0 l 718 0 q 699 4 704 0 q 686 24 693 8 l 519 400 l 179 400 l 179 32 q 147 0 179 0 l 136 0 m 513 468 q 676 517 624 468 q 729 672 729 567 q 676 827 729 778 q 513 876 624 876 l 179 876 l 179 468 l 513 468 z "},"Ř":{"ha":878,"x_min":104,"x_max":801,"o":"m 381 1036 q 365 1040 369 1036 q 349 1060 360 1044 l 193 1276 q 190 1286 190 1279 q 196 1297 190 1293 q 210 1301 201 1301 l 236 1301 q 257 1297 251 1301 q 272 1278 263 1292 l 389 1108 l 506 1278 q 521 1297 515 1292 q 542 1301 526 1301 l 568 1301 q 585 1293 579 1301 q 585 1276 592 1285 l 429 1060 q 413 1040 418 1044 q 397 1036 408 1036 l 381 1036 m 136 0 q 104 32 104 0 l 104 913 q 136 944 104 944 l 507 944 q 726 873 651 944 q 801 672 801 801 q 749 496 801 564 q 594 407 697 428 l 765 22 l 768 11 q 751 0 768 0 l 718 0 q 699 4 704 0 q 686 24 693 8 l 519 400 l 179 400 l 179 32 q 147 0 179 0 l 136 0 m 513 468 q 676 517 624 468 q 729 672 729 567 q 676 827 729 778 q 513 876 624 876 l 179 876 l 179 468 l 513 468 z "},"Ŗ":{"ha":878,"x_min":104,"x_max":801,"o":"m 136 0 q 104 32 104 0 l 104 913 q 136 944 104 944 l 507 944 q 726 873 651 944 q 801 672 801 801 q 749 496 801 564 q 594 407 697 428 l 765 22 l 768 11 q 751 0 768 0 l 718 0 q 699 4 704 0 q 686 24 693 8 l 519 400 l 179 400 l 179 32 q 147 0 179 0 l 136 0 m 513 468 q 676 517 624 468 q 729 672 729 567 q 676 827 729 778 q 513 876 624 876 l 179 876 l 179 468 l 513 468 m 328 -293 q 315 -282 315 -293 q 317 -271 315 -275 l 383 -69 q 394 -54 388 -58 q 414 -50 400 -50 l 447 -50 q 464 -61 464 -50 l 461 -72 l 372 -278 q 362 -290 368 -286 q 344 -293 356 -293 l 328 -293 z "},"Ṛ":{"ha":878,"x_min":104,"x_max":801,"o":"m 136 0 q 104 32 104 0 l 104 913 q 136 944 104 944 l 507 944 q 726 873 651 944 q 801 672 801 801 q 749 496 801 564 q 594 407 697 428 l 765 22 l 768 11 q 751 0 768 0 l 718 0 q 699 4 704 0 q 686 24 693 8 l 519 400 l 179 400 l 179 32 q 147 0 179 0 l 136 0 m 513 468 q 676 517 624 468 q 729 672 729 567 q 676 827 729 778 q 513 876 624 876 l 179 876 l 179 468 l 513 468 m 408 -224 q 376 -209 389 -224 q 363 -175 363 -194 l 363 -157 q 376 -123 363 -137 q 408 -108 389 -108 l 428 -108 q 460 -123 447 -108 q 474 -157 474 -137 l 474 -175 q 461 -210 474 -196 q 428 -224 449 -224 l 408 -224 z "},"Ṝ":{"ha":878,"x_min":104,"x_max":801,"o":"m 211 1096 q 187 1102 194 1096 q 179 1124 179 1108 l 179 1133 q 211 1164 179 1164 l 597 1164 q 629 1133 629 1164 l 629 1124 q 622 1102 629 1108 q 597 1096 614 1096 l 211 1096 m 136 0 q 104 32 104 0 l 104 913 q 136 944 104 944 l 507 944 q 726 873 651 944 q 801 672 801 801 q 749 496 801 564 q 594 407 697 428 l 765 22 l 768 11 q 751 0 768 0 l 718 0 q 699 4 704 0 q 686 24 693 8 l 519 400 l 179 400 l 179 32 q 147 0 179 0 l 136 0 m 513 468 q 676 517 624 468 q 729 672 729 567 q 676 827 729 778 q 513 876 624 876 l 179 876 l 179 468 l 513 468 m 408 -224 q 376 -209 389 -224 q 363 -175 363 -194 l 363 -157 q 376 -123 363 -137 q 408 -108 389 -108 l 428 -108 q 460 -123 447 -108 q 474 -157 474 -137 l 474 -175 q 461 -210 474 -196 q 428 -224 449 -224 l 408 -224 z "},"Ṟ":{"ha":878,"x_min":104,"x_max":801,"o":"m 136 0 q 104 32 104 0 l 104 913 q 136 944 104 944 l 507 944 q 726 873 651 944 q 801 672 801 801 q 749 496 801 564 q 594 407 697 428 l 765 22 l 768 11 q 751 0 768 0 l 718 0 q 699 4 704 0 q 686 24 693 8 l 519 400 l 179 400 l 179 32 q 147 0 179 0 l 136 0 m 513 468 q 676 517 624 468 q 729 672 729 567 q 676 827 729 778 q 513 876 624 876 l 179 876 l 179 468 l 513 468 m 239 -186 q 215 -180 222 -186 q 207 -158 207 -174 l 207 -149 q 239 -118 207 -118 l 625 -118 q 657 -149 657 -118 l 657 -158 q 649 -180 657 -174 q 625 -186 642 -186 l 239 -186 z "},"S":{"ha":794,"x_min":76,"x_max":718,"o":"m 393 -21 q 227 -3 315 -21 q 88 46 139 14 q 78 56 79 51 q 81 68 76 60 l 99 99 q 108 107 103 107 q 118 103 111 107 q 240 60 163 76 q 393 43 317 43 q 581 85 517 43 q 646 224 646 128 q 618 327 646 289 q 538 391 590 365 q 381 450 485 417 q 237 506 294 478 q 140 587 179 535 q 101 719 101 639 q 183 903 101 840 q 400 965 265 965 q 565 947 489 965 q 682 900 640 929 q 692 890 690 894 q 689 878 693 886 l 671 847 q 661 839 667 839 q 651 843 657 839 q 548 886 607 871 q 400 901 489 901 q 174 719 174 901 q 199 622 174 658 q 271 564 225 586 q 413 508 317 542 q 446 497 424 506 q 600 433 546 463 q 686 354 654 404 q 718 222 718 304 q 635 42 718 106 q 393 -21 551 -21 z "},"Ś":{"ha":794,"x_min":76,"x_max":718,"o":"m 388 1046 q 374 1057 374 1046 l 376 1068 l 447 1264 q 458 1279 451 1275 q 478 1283 464 1283 l 515 1283 q 532 1272 532 1283 q 529 1261 532 1265 l 436 1061 q 426 1049 432 1053 q 408 1046 419 1046 l 388 1046 m 393 -21 q 227 -3 315 -21 q 88 46 139 14 q 78 56 79 51 q 81 68 76 60 l 99 99 q 108 107 103 107 q 118 103 111 107 q 240 60 163 76 q 393 43 317 43 q 581 85 517 43 q 646 224 646 128 q 618 327 646 289 q 538 391 590 365 q 381 450 485 417 q 237 506 294 478 q 140 587 179 535 q 101 719 101 639 q 183 903 101 840 q 400 965 265 965 q 565 947 489 965 q 682 900 640 929 q 692 890 690 894 q 689 878 693 886 l 671 847 q 661 839 667 839 q 651 843 657 839 q 548 886 607 871 q 400 901 489 901 q 174 719 174 901 q 199 622 174 658 q 271 564 225 586 q 413 508 317 542 q 446 497 424 506 q 600 433 546 463 q 686 354 654 404 q 718 222 718 304 q 635 42 718 106 q 393 -21 551 -21 z "},"Š":{"ha":794,"x_min":76,"x_max":718,"o":"m 397 1053 q 381 1057 386 1053 q 365 1076 376 1061 l 210 1293 q 207 1303 207 1296 q 213 1314 207 1310 q 226 1318 218 1318 l 253 1318 q 274 1313 268 1318 q 289 1294 279 1308 l 406 1125 l 522 1294 q 538 1313 532 1308 q 558 1318 543 1318 l 585 1318 q 602 1310 596 1318 q 601 1293 608 1301 l 446 1076 q 430 1057 435 1061 q 414 1053 425 1053 l 397 1053 m 393 -21 q 227 -3 315 -21 q 88 46 139 14 q 78 56 79 51 q 81 68 76 60 l 99 99 q 108 107 103 107 q 118 103 111 107 q 240 60 163 76 q 393 43 317 43 q 581 85 517 43 q 646 224 646 128 q 618 327 646 289 q 538 391 590 365 q 381 450 485 417 q 237 506 294 478 q 140 587 179 535 q 101 719 101 639 q 183 903 101 840 q 400 965 265 965 q 565 947 489 965 q 682 900 640 929 q 692 890 690 894 q 689 878 693 886 l 671 847 q 661 839 667 839 q 651 843 657 839 q 548 886 607 871 q 400 901 489 901 q 174 719 174 901 q 199 622 174 658 q 271 564 225 586 q 413 508 317 542 q 446 497 424 506 q 600 433 546 463 q 686 354 654 404 q 718 222 718 304 q 635 42 718 106 q 393 -21 551 -21 z "},"Ş":{"ha":794,"x_min":76,"x_max":718,"o":"m 410 -297 q 319 -275 356 -297 q 304 -263 307 -267 q 306 -250 301 -260 l 317 -226 q 329 -215 321 -215 q 342 -221 331 -215 q 410 -237 369 -237 q 458 -226 444 -237 q 472 -186 472 -214 q 450 -141 472 -151 q 376 -131 428 -131 l 358 -131 q 344 -124 347 -131 q 344 -108 340 -118 l 379 -21 q 217 -2 299 -18 q 88 46 135 14 q 78 56 79 51 q 81 68 76 60 l 99 99 q 108 107 103 107 q 118 103 111 107 q 240 60 163 76 q 393 43 317 43 q 581 85 517 43 q 646 224 646 128 q 618 327 646 289 q 538 391 590 365 q 381 450 485 417 q 237 506 294 478 q 140 587 179 535 q 101 719 101 639 q 183 903 101 840 q 400 965 265 965 q 565 947 489 965 q 682 900 640 929 q 692 890 690 894 q 689 878 693 886 l 671 847 q 661 839 667 839 q 651 843 657 839 q 548 886 607 871 q 400 901 489 901 q 174 719 174 901 q 199 622 174 658 q 271 564 225 586 q 413 508 317 542 q 446 497 424 506 q 600 433 546 463 q 686 354 654 404 q 718 222 718 304 q 653 57 718 118 q 463 -17 588 -4 l 431 -86 q 510 -112 481 -86 q 539 -189 539 -139 q 504 -269 539 -242 q 410 -297 469 -297 z "},"Ŝ":{"ha":794,"x_min":76,"x_max":718,"o":"m 228 1036 q 210 1044 217 1036 q 211 1061 204 1053 l 367 1278 q 383 1297 378 1293 q 399 1301 388 1301 l 415 1301 q 431 1297 426 1301 q 447 1278 436 1293 l 603 1061 q 606 1051 606 1058 q 600 1040 606 1044 q 586 1036 594 1036 l 560 1036 q 539 1041 544 1036 q 524 1060 533 1046 l 407 1229 l 290 1060 q 275 1041 281 1046 q 254 1036 269 1036 l 228 1036 m 393 -21 q 227 -3 315 -21 q 88 46 139 14 q 78 56 79 51 q 81 68 76 60 l 99 99 q 108 107 103 107 q 118 103 111 107 q 240 60 163 76 q 393 43 317 43 q 581 85 517 43 q 646 224 646 128 q 618 327 646 289 q 538 391 590 365 q 381 450 485 417 q 237 506 294 478 q 140 587 179 535 q 101 719 101 639 q 183 903 101 840 q 400 965 265 965 q 565 947 489 965 q 682 900 640 929 q 692 890 690 894 q 689 878 693 886 l 671 847 q 661 839 667 839 q 651 843 657 839 q 548 886 607 871 q 400 901 489 901 q 174 719 174 901 q 199 622 174 658 q 271 564 225 586 q 413 508 317 542 q 446 497 424 506 q 600 433 546 463 q 686 354 654 404 q 718 222 718 304 q 635 42 718 106 q 393 -21 551 -21 z "},"Ș":{"ha":794,"x_min":76,"x_max":718,"o":"m 393 -21 q 227 -3 315 -21 q 88 46 139 14 q 78 56 79 51 q 81 68 76 60 l 99 99 q 108 107 103 107 q 118 103 111 107 q 240 60 163 76 q 393 43 317 43 q 581 85 517 43 q 646 224 646 128 q 618 327 646 289 q 538 391 590 365 q 381 450 485 417 q 237 506 294 478 q 140 587 179 535 q 101 719 101 639 q 183 903 101 840 q 400 965 265 965 q 565 947 489 965 q 682 900 640 929 q 692 890 690 894 q 689 878 693 886 l 671 847 q 661 839 667 839 q 651 843 657 839 q 548 886 607 871 q 400 901 489 901 q 174 719 174 901 q 199 622 174 658 q 271 564 225 586 q 413 508 317 542 q 446 497 424 506 q 600 433 546 463 q 686 354 654 404 q 718 222 718 304 q 635 42 718 106 q 393 -21 551 -21 m 283 -349 q 271 -337 271 -349 q 272 -326 271 -331 l 350 -96 q 360 -81 354 -85 q 381 -76 367 -76 l 414 -76 q 431 -87 431 -76 l 428 -99 l 328 -333 q 317 -345 324 -342 q 300 -349 311 -349 l 283 -349 z "},"Ṡ":{"ha":794,"x_min":76,"x_max":718,"o":"m 393 1083 q 360 1098 374 1083 q 347 1132 347 1113 l 347 1150 q 360 1184 347 1169 q 393 1199 374 1199 l 413 1199 q 445 1184 432 1199 q 458 1150 458 1169 l 458 1132 q 446 1097 458 1111 q 413 1083 433 1083 l 393 1083 m 393 -21 q 227 -3 315 -21 q 88 46 139 14 q 78 56 79 51 q 81 68 76 60 l 99 99 q 108 107 103 107 q 118 103 111 107 q 240 60 163 76 q 393 43 317 43 q 581 85 517 43 q 646 224 646 128 q 618 327 646 289 q 538 391 590 365 q 381 450 485 417 q 237 506 294 478 q 140 587 179 535 q 101 719 101 639 q 183 903 101 840 q 400 965 265 965 q 565 947 489 965 q 682 900 640 929 q 692 890 690 894 q 689 878 693 886 l 671 847 q 661 839 667 839 q 651 843 657 839 q 548 886 607 871 q 400 901 489 901 q 174 719 174 901 q 199 622 174 658 q 271 564 225 586 q 413 508 317 542 q 446 497 424 506 q 600 433 546 463 q 686 354 654 404 q 718 222 718 304 q 635 42 718 106 q 393 -21 551 -21 z "},"Ṣ":{"ha":794,"x_min":76,"x_max":718,"o":"m 393 -21 q 227 -3 315 -21 q 88 46 139 14 q 78 56 79 51 q 81 68 76 60 l 99 99 q 108 107 103 107 q 118 103 111 107 q 240 60 163 76 q 393 43 317 43 q 581 85 517 43 q 646 224 646 128 q 618 327 646 289 q 538 391 590 365 q 381 450 485 417 q 237 506 294 478 q 140 587 179 535 q 101 719 101 639 q 183 903 101 840 q 400 965 265 965 q 565 947 489 965 q 682 900 640 929 q 692 890 690 894 q 689 878 693 886 l 671 847 q 661 839 667 839 q 651 843 657 839 q 548 886 607 871 q 400 901 489 901 q 174 719 174 901 q 199 622 174 658 q 271 564 225 586 q 413 508 317 542 q 446 497 424 506 q 600 433 546 463 q 686 354 654 404 q 718 222 718 304 q 635 42 718 106 q 393 -21 551 -21 m 396 -224 q 363 -209 376 -224 q 350 -175 350 -194 l 350 -157 q 363 -123 350 -137 q 396 -108 376 -108 l 415 -108 q 448 -123 435 -108 q 461 -157 461 -137 l 461 -175 q 449 -210 461 -196 q 415 -224 436 -224 l 396 -224 z "},"ẞ":{"ha":871,"x_min":104,"x_max":822,"o":"m 529 -21 q 276 44 376 -21 q 267 55 268 50 q 269 67 265 60 l 288 97 q 296 106 292 104 q 307 101 300 107 q 403 58 346 74 q 525 43 461 43 q 692 100 635 43 q 750 247 750 157 q 695 408 750 358 q 517 458 640 458 l 389 458 q 369 463 374 458 q 364 479 364 467 l 364 492 q 367 510 364 503 q 382 526 371 518 l 685 742 q 619 853 685 810 q 438 897 554 897 q 241 828 303 897 q 179 628 179 760 l 179 32 q 147 0 179 0 l 136 0 q 104 32 104 0 l 104 635 q 185 874 104 782 q 440 965 265 965 q 678 895 599 965 q 757 711 757 825 l 492 521 l 528 521 q 756 449 689 521 q 822 247 822 376 q 788 114 822 175 q 688 16 754 53 q 529 -21 621 -21 z "},"Ə":{"ha":1003,"x_min":76,"x_max":926,"o":"m 493 -21 q 181 109 286 -21 q 76 494 76 239 q 83 515 76 507 q 104 522 90 522 l 853 522 q 753 804 853 707 q 468 901 654 901 q 312 883 390 901 q 164 832 233 865 q 153 828 157 828 q 144 836 149 828 l 126 868 q 124 878 124 872 q 133 890 124 886 q 293 946 200 926 q 479 965 386 965 q 806 847 685 965 q 926 492 926 729 q 813 110 926 240 q 493 -21 699 -21 m 493 43 q 760 152 668 43 q 853 454 853 261 l 149 454 q 235 149 149 256 q 493 43 321 43 z "},"T":{"ha":778,"x_min":49,"x_max":729,"o":"m 383 0 q 351 32 351 0 l 351 876 l 81 876 q 56 883 64 876 q 49 904 49 889 l 49 914 q 81 944 49 944 l 697 944 q 729 914 729 944 l 729 904 q 722 883 729 889 q 697 876 714 876 l 426 876 l 426 32 q 394 0 426 0 l 383 0 z "},"Ŧ":{"ha":778,"x_min":49,"x_max":729,"o":"m 697 944 q 729 914 729 944 l 729 904 q 722 883 729 889 q 697 876 714 876 l 426 876 l 426 578 l 581 578 q 613 547 613 578 l 613 538 q 605 516 613 522 q 581 510 597 510 l 426 510 l 426 32 q 394 0 426 0 l 383 0 q 351 32 351 0 l 351 510 l 194 510 q 170 516 178 510 q 163 538 163 522 l 163 547 q 194 578 163 578 l 351 578 l 351 876 l 81 876 q 56 883 64 876 q 49 904 49 889 l 49 914 q 81 944 49 944 l 697 944 z "},"Ť":{"ha":778,"x_min":49,"x_max":729,"o":"m 381 1036 q 365 1040 369 1036 q 349 1060 360 1044 l 193 1276 q 190 1286 190 1279 q 196 1297 190 1293 q 210 1301 201 1301 l 236 1301 q 257 1297 251 1301 q 272 1278 263 1292 l 389 1108 l 506 1278 q 521 1297 515 1292 q 542 1301 526 1301 l 568 1301 q 585 1293 579 1301 q 585 1276 592 1285 l 429 1060 q 413 1040 418 1044 q 397 1036 408 1036 l 381 1036 m 383 0 q 351 32 351 0 l 351 876 l 81 876 q 56 883 64 876 q 49 904 49 889 l 49 914 q 81 944 49 944 l 697 944 q 729 914 729 944 l 729 904 q 722 883 729 889 q 697 876 714 876 l 426 876 l 426 32 q 394 0 426 0 l 383 0 z "},"Ţ":{"ha":778,"x_min":49,"x_max":729,"o":"m 697 944 q 729 914 729 944 l 729 904 q 722 883 729 889 q 697 876 714 876 l 426 876 l 426 32 l 426 28 l 426 24 l 424 13 l 392 -57 q 471 -83 442 -57 q 500 -160 500 -110 q 465 -240 500 -212 q 371 -268 431 -268 q 281 -246 317 -268 q 265 -234 268 -237 q 267 -221 263 -231 l 278 -197 q 290 -186 282 -186 q 303 -192 292 -186 q 371 -208 331 -208 q 419 -197 406 -208 q 433 -157 433 -185 q 411 -112 433 -122 q 338 -101 389 -101 l 319 -101 q 305 -95 308 -101 q 306 -79 301 -89 l 343 15 q 351 29 347 26 l 351 32 l 351 876 l 81 876 q 56 883 64 876 q 49 904 49 889 l 49 914 q 81 944 49 944 l 697 944 z "},"Ț":{"ha":778,"x_min":49,"x_max":729,"o":"m 383 0 q 351 32 351 0 l 351 876 l 81 876 q 56 883 64 876 q 49 904 49 889 l 49 914 q 81 944 49 944 l 697 944 q 729 914 729 944 l 729 904 q 722 883 729 889 q 697 876 714 876 l 426 876 l 426 32 q 394 0 426 0 l 383 0 m 288 -293 q 275 -282 275 -293 q 276 -271 275 -275 l 343 -69 q 353 -54 347 -58 q 374 -50 360 -50 l 407 -50 q 424 -61 424 -50 l 421 -72 l 332 -278 q 322 -290 328 -286 q 304 -293 315 -293 l 288 -293 z "},"Ṭ":{"ha":778,"x_min":49,"x_max":729,"o":"m 383 0 q 351 32 351 0 l 351 876 l 81 876 q 56 883 64 876 q 49 904 49 889 l 49 914 q 81 944 49 944 l 697 944 q 729 914 729 944 l 729 904 q 722 883 729 889 q 697 876 714 876 l 426 876 l 426 32 q 394 0 426 0 l 383 0 m 378 -224 q 345 -209 358 -224 q 332 -175 332 -194 l 332 -157 q 345 -123 332 -137 q 378 -108 358 -108 l 397 -108 q 430 -123 417 -108 q 443 -157 443 -137 l 443 -175 q 431 -210 443 -196 q 397 -224 418 -224 l 378 -224 z "},"Ṯ":{"ha":778,"x_min":49,"x_max":729,"o":"m 383 0 q 351 32 351 0 l 351 876 l 81 876 q 56 883 64 876 q 49 904 49 889 l 49 914 q 81 944 49 944 l 697 944 q 729 914 729 944 l 729 904 q 722 883 729 889 q 697 876 714 876 l 426 876 l 426 32 q 394 0 426 0 l 383 0 m 194 -186 q 170 -180 178 -186 q 163 -158 163 -174 l 163 -149 q 194 -118 163 -118 l 581 -118 q 613 -149 613 -118 l 613 -158 q 605 -180 613 -174 q 581 -186 597 -186 l 194 -186 z "},"U":{"ha":994,"x_min":97,"x_max":897,"o":"m 497 -21 q 290 22 381 -21 q 148 142 199 64 q 97 326 97 221 l 97 913 q 129 944 97 944 l 140 944 q 172 913 172 944 l 172 321 q 263 115 172 188 q 497 43 354 43 q 731 115 640 43 q 822 321 822 188 l 822 913 q 854 944 822 944 l 865 944 q 897 913 897 944 l 897 326 q 847 142 897 221 q 705 22 796 64 q 497 -21 614 -21 z "},"Ú":{"ha":994,"x_min":97,"x_max":897,"o":"m 486 1063 q 472 1074 472 1063 l 475 1085 l 546 1281 q 556 1296 550 1292 q 576 1300 563 1300 l 614 1300 q 631 1289 631 1300 q 628 1278 631 1282 l 535 1078 q 524 1066 531 1069 q 507 1063 518 1063 l 486 1063 m 497 -21 q 290 22 381 -21 q 148 142 199 64 q 97 326 97 221 l 97 913 q 129 944 97 944 l 140 944 q 172 913 172 944 l 172 321 q 263 115 172 188 q 497 43 354 43 q 731 115 640 43 q 822 321 822 188 l 822 913 q 854 944 822 944 l 865 944 q 897 913 897 944 l 897 326 q 847 142 897 221 q 705 22 796 64 q 497 -21 614 -21 z "},"Ŭ":{"ha":994,"x_min":97,"x_max":897,"o":"m 497 1036 q 351 1094 400 1036 q 301 1249 301 1151 q 308 1267 301 1260 q 324 1274 314 1274 l 357 1274 q 376 1267 371 1274 q 381 1247 381 1261 q 405 1143 381 1179 q 497 1107 429 1107 q 590 1143 565 1107 q 614 1247 614 1179 q 619 1267 614 1261 q 638 1274 624 1274 l 671 1274 q 687 1267 681 1274 q 693 1249 693 1260 q 644 1094 693 1151 q 497 1036 594 1036 m 497 -21 q 290 22 381 -21 q 148 142 199 64 q 97 326 97 221 l 97 913 q 129 944 97 944 l 140 944 q 172 913 172 944 l 172 321 q 263 115 172 188 q 497 43 354 43 q 731 115 640 43 q 822 321 822 188 l 822 913 q 854 944 822 944 l 865 944 q 897 913 897 944 l 897 326 q 847 142 897 221 q 705 22 796 64 q 497 -21 614 -21 z "},"Ǔ":{"ha":994,"x_min":97,"x_max":897,"o":"m 489 1036 q 473 1040 478 1036 q 457 1060 468 1044 l 301 1276 q 299 1286 299 1279 q 304 1297 299 1293 q 318 1301 310 1301 l 344 1301 q 365 1297 360 1301 q 381 1278 371 1292 l 497 1108 l 614 1278 q 629 1297 624 1292 q 650 1301 635 1301 l 676 1301 q 694 1293 688 1301 q 693 1276 700 1285 l 538 1060 q 522 1040 526 1044 q 506 1036 517 1036 l 489 1036 m 497 -21 q 290 22 381 -21 q 148 142 199 64 q 97 326 97 221 l 97 913 q 129 944 97 944 l 140 944 q 172 913 172 944 l 172 321 q 263 115 172 188 q 497 43 354 43 q 731 115 640 43 q 822 321 822 188 l 822 913 q 854 944 822 944 l 865 944 q 897 913 897 944 l 897 326 q 847 142 897 221 q 705 22 796 64 q 497 -21 614 -21 z "},"Û":{"ha":994,"x_min":97,"x_max":897,"o":"m 318 1053 q 301 1061 307 1053 q 301 1078 294 1069 l 457 1294 q 473 1314 468 1310 q 489 1318 478 1318 l 506 1318 q 522 1314 517 1318 q 538 1294 526 1310 l 693 1078 q 696 1068 696 1075 q 690 1057 696 1061 q 676 1053 685 1053 l 650 1053 q 629 1058 635 1053 q 614 1076 624 1063 l 497 1246 l 381 1076 q 365 1058 371 1063 q 344 1053 360 1053 l 318 1053 m 497 -21 q 290 22 381 -21 q 148 142 199 64 q 97 326 97 221 l 97 913 q 129 944 97 944 l 140 944 q 172 913 172 944 l 172 321 q 263 115 172 188 q 497 43 354 43 q 731 115 640 43 q 822 321 822 188 l 822 913 q 854 944 822 944 l 865 944 q 897 913 897 944 l 897 326 q 847 142 897 221 q 705 22 796 64 q 497 -21 614 -21 z "},"Ü":{"ha":994,"x_min":97,"x_max":897,"o":"m 363 1058 q 330 1073 343 1058 q 317 1107 317 1088 l 317 1125 q 330 1159 317 1144 q 363 1174 343 1174 l 382 1174 q 415 1159 401 1174 q 428 1125 428 1144 l 428 1107 q 415 1072 428 1086 q 382 1058 403 1058 l 363 1058 m 613 1058 q 580 1073 593 1058 q 567 1107 567 1088 l 567 1125 q 580 1159 567 1144 q 613 1174 593 1174 l 632 1174 q 665 1159 651 1174 q 678 1125 678 1144 l 678 1107 q 665 1072 678 1086 q 632 1058 653 1058 l 613 1058 m 497 -21 q 290 22 381 -21 q 148 142 199 64 q 97 326 97 221 l 97 913 q 129 944 97 944 l 140 944 q 172 913 172 944 l 172 321 q 263 115 172 188 q 497 43 354 43 q 731 115 640 43 q 822 321 822 188 l 822 913 q 854 944 822 944 l 865 944 q 897 913 897 944 l 897 326 q 847 142 897 221 q 705 22 796 64 q 497 -21 614 -21 z "},"Ǘ":{"ha":994,"x_min":97,"x_max":897,"o":"m 475 1229 q 461 1240 461 1229 l 464 1251 l 528 1433 q 538 1449 532 1444 q 558 1453 544 1453 l 596 1453 q 613 1442 613 1453 q 610 1431 613 1435 l 524 1244 q 513 1233 519 1236 q 496 1229 507 1229 l 475 1229 m 363 1057 q 330 1072 343 1057 q 317 1106 317 1086 l 317 1124 q 330 1158 317 1143 q 363 1172 343 1172 l 382 1172 q 415 1158 401 1172 q 428 1124 428 1143 l 428 1106 q 415 1071 428 1085 q 382 1057 403 1057 l 363 1057 m 613 1057 q 580 1072 593 1057 q 567 1106 567 1086 l 567 1124 q 580 1158 567 1143 q 613 1172 593 1172 l 632 1172 q 665 1158 651 1172 q 678 1124 678 1143 l 678 1106 q 665 1071 678 1085 q 632 1057 653 1057 l 613 1057 m 497 -21 q 290 22 381 -21 q 148 142 199 64 q 97 326 97 221 l 97 913 q 129 944 97 944 l 140 944 q 172 913 172 944 l 172 321 q 263 115 172 188 q 497 43 354 43 q 731 115 640 43 q 822 321 822 188 l 822 913 q 854 944 822 944 l 865 944 q 897 913 897 944 l 897 326 q 847 142 897 221 q 705 22 796 64 q 497 -21 614 -21 z "},"Ǚ":{"ha":994,"x_min":97,"x_max":897,"o":"m 490 1214 q 474 1218 479 1214 q 458 1238 469 1222 l 310 1439 q 307 1449 307 1442 q 313 1460 307 1456 q 326 1464 318 1464 l 353 1464 q 374 1459 368 1464 q 389 1440 379 1454 l 499 1286 l 608 1440 q 624 1459 618 1454 q 644 1464 629 1464 l 671 1464 q 688 1456 682 1464 q 688 1439 694 1447 l 539 1238 q 523 1218 528 1222 q 507 1214 518 1214 l 490 1214 m 363 1057 q 330 1072 343 1057 q 317 1106 317 1086 l 317 1124 q 330 1158 317 1143 q 363 1172 343 1172 l 382 1172 q 415 1158 401 1172 q 428 1124 428 1143 l 428 1106 q 415 1071 428 1085 q 382 1057 403 1057 l 363 1057 m 613 1057 q 580 1072 593 1057 q 567 1106 567 1086 l 567 1124 q 580 1158 567 1143 q 613 1172 593 1172 l 632 1172 q 665 1158 651 1172 q 678 1124 678 1143 l 678 1106 q 665 1071 678 1085 q 632 1057 653 1057 l 613 1057 m 497 -21 q 290 22 381 -21 q 148 142 199 64 q 97 326 97 221 l 97 913 q 129 944 97 944 l 140 944 q 172 913 172 944 l 172 321 q 263 115 172 188 q 497 43 354 43 q 731 115 640 43 q 822 321 822 188 l 822 913 q 854 944 822 944 l 865 944 q 897 913 897 944 l 897 326 q 847 142 897 221 q 705 22 796 64 q 497 -21 614 -21 z "},"Ǜ":{"ha":994,"x_min":97,"x_max":897,"o":"m 504 1226 q 487 1230 493 1226 q 476 1242 481 1233 l 390 1428 q 388 1439 388 1432 q 404 1450 388 1450 l 442 1450 q 462 1446 456 1450 q 472 1431 468 1442 l 536 1249 l 539 1238 q 525 1226 539 1226 l 504 1226 m 363 1054 q 330 1069 343 1054 q 317 1103 317 1083 l 317 1121 q 330 1155 317 1140 q 363 1169 343 1169 l 382 1169 q 415 1155 401 1169 q 428 1121 428 1140 l 428 1103 q 415 1068 428 1082 q 382 1054 403 1054 l 363 1054 m 613 1054 q 580 1069 593 1054 q 567 1103 567 1083 l 567 1121 q 580 1155 567 1140 q 613 1169 593 1169 l 632 1169 q 665 1155 651 1169 q 678 1121 678 1140 l 678 1103 q 665 1068 678 1082 q 632 1054 653 1054 l 613 1054 m 497 -21 q 290 22 381 -21 q 148 142 199 64 q 97 326 97 221 l 97 913 q 129 944 97 944 l 140 944 q 172 913 172 944 l 172 321 q 263 115 172 188 q 497 43 354 43 q 731 115 640 43 q 822 321 822 188 l 822 913 q 854 944 822 944 l 865 944 q 897 913 897 944 l 897 326 q 847 142 897 221 q 705 22 796 64 q 497 -21 614 -21 z "},"Ǖ":{"ha":994,"x_min":97,"x_max":897,"o":"m 303 1285 q 278 1291 286 1285 q 271 1313 271 1297 l 271 1322 q 303 1353 271 1353 l 689 1353 q 721 1322 721 1353 l 721 1313 q 713 1291 721 1297 q 689 1285 706 1285 l 303 1285 m 363 1054 q 330 1069 343 1054 q 317 1103 317 1083 l 317 1121 q 330 1155 317 1140 q 363 1169 343 1169 l 382 1169 q 415 1155 401 1169 q 428 1121 428 1140 l 428 1103 q 415 1068 428 1082 q 382 1054 403 1054 l 363 1054 m 613 1054 q 580 1069 593 1054 q 567 1103 567 1083 l 567 1121 q 580 1155 567 1140 q 613 1169 593 1169 l 632 1169 q 665 1155 651 1169 q 678 1121 678 1140 l 678 1103 q 665 1068 678 1082 q 632 1054 653 1054 l 613 1054 m 497 -21 q 290 22 381 -21 q 148 142 199 64 q 97 326 97 221 l 97 913 q 129 944 97 944 l 140 944 q 172 913 172 944 l 172 321 q 263 115 172 188 q 497 43 354 43 q 731 115 640 43 q 822 321 822 188 l 822 913 q 854 944 822 944 l 865 944 q 897 913 897 944 l 897 326 q 847 142 897 221 q 705 22 796 64 q 497 -21 614 -21 z "},"Ụ":{"ha":994,"x_min":97,"x_max":897,"o":"m 497 -21 q 290 22 381 -21 q 148 142 199 64 q 97 326 97 221 l 97 913 q 129 944 97 944 l 140 944 q 172 913 172 944 l 172 321 q 263 115 172 188 q 497 43 354 43 q 731 115 640 43 q 822 321 822 188 l 822 913 q 854 944 822 944 l 865 944 q 897 913 897 944 l 897 326 q 847 142 897 221 q 705 22 796 64 q 497 -21 614 -21 m 488 -224 q 455 -209 468 -224 q 442 -175 442 -194 l 442 -157 q 455 -123 442 -137 q 488 -108 468 -108 l 507 -108 q 540 -123 526 -108 q 553 -157 553 -137 l 553 -175 q 540 -210 553 -196 q 507 -224 528 -224 l 488 -224 z "},"Ù":{"ha":994,"x_min":97,"x_max":897,"o":"m 506 1063 q 488 1066 494 1063 q 478 1078 482 1069 l 385 1278 q 382 1289 382 1282 q 399 1300 382 1300 l 436 1300 q 456 1296 450 1300 q 467 1281 463 1292 l 538 1085 l 540 1074 q 526 1063 540 1063 l 506 1063 m 497 -21 q 290 22 381 -21 q 148 142 199 64 q 97 326 97 221 l 97 913 q 129 944 97 944 l 140 944 q 172 913 172 944 l 172 321 q 263 115 172 188 q 497 43 354 43 q 731 115 640 43 q 822 321 822 188 l 822 913 q 854 944 822 944 l 865 944 q 897 913 897 944 l 897 326 q 847 142 897 221 q 705 22 796 64 q 497 -21 614 -21 z "},"Ủ":{"ha":994,"x_min":97,"x_max":897,"o":"m 481 1024 q 449 1056 449 1024 l 449 1108 q 461 1140 449 1129 q 497 1151 474 1151 q 574 1167 553 1151 q 596 1219 596 1183 q 572 1266 596 1251 q 500 1281 549 1281 q 385 1253 439 1281 q 374 1254 375 1249 l 354 1296 q 353 1303 353 1301 q 358 1308 354 1306 q 423 1335 385 1325 q 500 1344 461 1344 q 626 1310 583 1344 q 668 1219 668 1276 q 625 1127 668 1161 q 524 1093 582 1093 l 524 1056 q 492 1024 524 1024 l 481 1024 m 497 -21 q 290 22 381 -21 q 148 142 199 64 q 97 326 97 221 l 97 913 q 129 944 97 944 l 140 944 q 172 913 172 944 l 172 321 q 263 115 172 188 q 497 43 354 43 q 731 115 640 43 q 822 321 822 188 l 822 913 q 854 944 822 944 l 865 944 q 897 913 897 944 l 897 326 q 847 142 897 221 q 705 22 796 64 q 497 -21 614 -21 z "},"Ư":{"ha":1126,"x_min":97,"x_max":1092,"o":"m 497 -21 q 290 22 381 -21 q 148 142 199 64 q 97 326 97 221 l 97 913 q 129 944 97 944 l 140 944 q 172 913 172 944 l 172 321 q 263 115 172 188 q 497 43 354 43 q 731 115 640 43 q 822 321 822 188 l 822 913 q 854 944 822 944 l 865 944 q 897 913 897 944 l 897 846 q 985 888 957 849 q 1013 1014 1013 928 q 1017 1034 1013 1028 q 1036 1040 1022 1040 l 1069 1040 q 1085 1033 1079 1040 q 1092 1015 1092 1026 q 1040 841 1092 901 q 897 775 989 781 l 897 326 q 847 142 897 221 q 705 22 796 64 q 497 -21 614 -21 z "},"Ứ":{"ha":1126,"x_min":97,"x_max":1092,"o":"m 464 1029 q 450 1040 450 1029 l 453 1051 l 524 1247 q 534 1263 528 1258 q 554 1267 540 1267 l 592 1267 q 608 1256 608 1267 q 606 1244 608 1249 l 513 1044 q 502 1033 508 1036 q 485 1029 496 1029 l 464 1029 m 497 -21 q 290 22 381 -21 q 148 142 199 64 q 97 326 97 221 l 97 913 q 129 944 97 944 l 140 944 q 172 913 172 944 l 172 321 q 263 115 172 188 q 497 43 354 43 q 731 115 640 43 q 822 321 822 188 l 822 913 q 854 944 822 944 l 865 944 q 897 913 897 944 l 897 846 q 985 888 957 849 q 1013 1014 1013 928 q 1017 1034 1013 1028 q 1036 1040 1022 1040 l 1069 1040 q 1085 1033 1079 1040 q 1092 1015 1092 1026 q 1040 841 1092 901 q 897 775 989 781 l 897 326 q 847 142 897 221 q 705 22 796 64 q 497 -21 614 -21 z "},"Ự":{"ha":1126,"x_min":97,"x_max":1092,"o":"m 497 -21 q 290 22 381 -21 q 148 142 199 64 q 97 326 97 221 l 97 913 q 129 944 97 944 l 140 944 q 172 913 172 944 l 172 321 q 263 115 172 188 q 497 43 354 43 q 731 115 640 43 q 822 321 822 188 l 822 913 q 854 944 822 944 l 865 944 q 897 913 897 944 l 897 846 q 985 888 957 849 q 1013 1014 1013 928 q 1017 1034 1013 1028 q 1036 1040 1022 1040 l 1069 1040 q 1085 1033 1079 1040 q 1092 1015 1092 1026 q 1040 841 1092 901 q 897 775 989 781 l 897 326 q 847 142 897 221 q 705 22 796 64 q 497 -21 614 -21 m 492 -224 q 459 -209 472 -224 q 446 -175 446 -194 l 446 -157 q 459 -123 446 -137 q 492 -108 472 -108 l 511 -108 q 544 -123 531 -108 q 557 -157 557 -137 l 557 -175 q 544 -210 557 -196 q 511 -224 532 -224 l 492 -224 z "},"Ừ":{"ha":1126,"x_min":97,"x_max":1092,"o":"m 528 1029 q 510 1033 517 1029 q 500 1044 504 1036 l 407 1244 q 404 1256 404 1249 q 421 1267 404 1267 l 458 1267 q 478 1263 472 1267 q 489 1247 485 1258 l 560 1051 l 563 1040 q 549 1029 563 1029 l 528 1029 m 497 -21 q 290 22 381 -21 q 148 142 199 64 q 97 326 97 221 l 97 913 q 129 944 97 944 l 140 944 q 172 913 172 944 l 172 321 q 263 115 172 188 q 497 43 354 43 q 731 115 640 43 q 822 321 822 188 l 822 913 q 854 944 822 944 l 865 944 q 897 913 897 944 l 897 846 q 985 888 957 849 q 1013 1014 1013 928 q 1017 1034 1013 1028 q 1036 1040 1022 1040 l 1069 1040 q 1085 1033 1079 1040 q 1092 1015 1092 1026 q 1040 841 1092 901 q 897 775 989 781 l 897 326 q 847 142 897 221 q 705 22 796 64 q 497 -21 614 -21 z "},"Ử":{"ha":1126,"x_min":97,"x_max":1092,"o":"m 492 1024 q 460 1056 460 1024 l 460 1108 q 472 1140 460 1129 q 508 1151 485 1151 q 585 1167 564 1151 q 607 1219 607 1183 q 583 1266 607 1251 q 511 1281 560 1281 q 396 1253 450 1281 q 385 1254 386 1249 l 365 1296 q 365 1303 364 1301 q 369 1308 365 1306 q 434 1335 396 1325 q 511 1344 472 1344 q 637 1310 594 1344 q 679 1219 679 1276 q 636 1127 679 1161 q 535 1093 593 1093 l 535 1056 q 503 1024 535 1024 l 492 1024 m 497 -21 q 290 22 381 -21 q 148 142 199 64 q 97 326 97 221 l 97 913 q 129 944 97 944 l 140 944 q 172 913 172 944 l 172 321 q 263 115 172 188 q 497 43 354 43 q 731 115 640 43 q 822 321 822 188 l 822 913 q 854 944 822 944 l 865 944 q 897 913 897 944 l 897 846 q 985 888 957 849 q 1013 1014 1013 928 q 1017 1034 1013 1028 q 1036 1040 1022 1040 l 1069 1040 q 1085 1033 1079 1040 q 1092 1015 1092 1026 q 1040 841 1092 901 q 897 775 989 781 l 897 326 q 847 142 897 221 q 705 22 796 64 q 497 -21 614 -21 z "},"Ữ":{"ha":1126,"x_min":97,"x_max":1092,"o":"m 607 1025 q 544 1036 569 1025 q 488 1069 518 1047 q 443 1096 461 1088 q 400 1104 425 1104 q 346 1094 368 1104 q 306 1061 324 1083 q 274 1040 288 1040 q 249 1053 261 1040 q 239 1072 239 1063 q 253 1101 239 1083 q 397 1168 307 1168 q 463 1157 438 1168 q 518 1124 489 1146 q 560 1097 543 1106 q 604 1089 578 1089 q 658 1099 636 1089 q 699 1132 681 1110 q 731 1153 717 1153 q 756 1140 743 1153 q 765 1121 765 1131 q 751 1092 765 1110 q 607 1025 697 1025 m 497 -21 q 290 22 381 -21 q 148 142 199 64 q 97 326 97 221 l 97 913 q 129 944 97 944 l 140 944 q 172 913 172 944 l 172 321 q 263 115 172 188 q 497 43 354 43 q 731 115 640 43 q 822 321 822 188 l 822 913 q 854 944 822 944 l 865 944 q 897 913 897 944 l 897 846 q 985 888 957 849 q 1013 1014 1013 928 q 1017 1034 1013 1028 q 1036 1040 1022 1040 l 1069 1040 q 1085 1033 1079 1040 q 1092 1015 1092 1026 q 1040 841 1092 901 q 897 775 989 781 l 897 326 q 847 142 897 221 q 705 22 796 64 q 497 -21 614 -21 z "},"Ű":{"ha":994,"x_min":97,"x_max":897,"o":"m 332 1046 q 318 1057 318 1046 q 321 1068 318 1064 l 419 1264 q 431 1279 425 1275 q 450 1283 436 1283 l 488 1283 q 506 1272 506 1283 q 501 1261 506 1268 l 381 1061 q 369 1049 375 1053 q 353 1046 364 1046 l 332 1046 m 550 1046 q 536 1057 536 1046 q 539 1068 536 1064 l 638 1264 q 649 1279 643 1275 q 668 1283 654 1283 l 706 1283 q 724 1272 724 1283 q 719 1261 724 1268 l 599 1061 q 588 1049 593 1053 q 571 1046 582 1046 l 550 1046 m 497 -21 q 290 22 381 -21 q 148 142 199 64 q 97 326 97 221 l 97 913 q 129 944 97 944 l 140 944 q 172 913 172 944 l 172 321 q 263 115 172 188 q 497 43 354 43 q 731 115 640 43 q 822 321 822 188 l 822 913 q 854 944 822 944 l 865 944 q 897 913 897 944 l 897 326 q 847 142 897 221 q 705 22 796 64 q 497 -21 614 -21 z "},"Ū":{"ha":994,"x_min":97,"x_max":897,"o":"m 306 1096 q 281 1102 289 1096 q 274 1124 274 1108 l 274 1133 q 306 1164 274 1164 l 692 1164 q 724 1133 724 1164 l 724 1124 q 716 1102 724 1108 q 692 1096 708 1096 l 306 1096 m 497 -21 q 290 22 381 -21 q 148 142 199 64 q 97 326 97 221 l 97 913 q 129 944 97 944 l 140 944 q 172 913 172 944 l 172 321 q 263 115 172 188 q 497 43 354 43 q 731 115 640 43 q 822 321 822 188 l 822 913 q 854 944 822 944 l 865 944 q 897 913 897 944 l 897 326 q 847 142 897 221 q 705 22 796 64 q 497 -21 614 -21 z "},"Ų":{"ha":994,"x_min":97,"x_max":897,"o":"m 865 944 q 897 913 897 944 l 897 326 q 804 90 897 182 q 557 -18 711 -3 q 553 -29 557 -24 q 490 -119 507 -85 q 474 -185 474 -153 q 483 -212 474 -203 q 507 -222 492 -222 q 538 -217 526 -222 q 547 -214 546 -214 q 557 -224 553 -214 l 571 -254 q 572 -262 572 -257 q 557 -278 572 -271 q 492 -289 536 -289 q 417 -262 443 -289 q 390 -196 390 -236 q 410 -117 390 -157 q 475 -25 431 -76 l 479 -21 q 280 26 367 -18 q 145 147 193 69 q 97 326 97 224 l 97 913 q 129 944 97 944 l 140 944 q 172 913 172 944 l 172 321 q 263 115 172 188 q 497 43 354 43 q 731 115 640 43 q 822 321 822 188 l 822 913 q 854 944 822 944 l 865 944 z "},"Ů":{"ha":994,"x_min":97,"x_max":897,"o":"m 496 1010 q 388 1053 432 1010 q 344 1161 344 1097 q 388 1269 344 1225 q 496 1314 432 1314 q 604 1269 560 1314 q 649 1161 649 1225 q 604 1053 649 1097 q 496 1010 560 1010 m 496 1065 q 564 1094 536 1065 q 592 1161 592 1122 q 564 1229 592 1201 q 496 1257 536 1257 q 428 1229 457 1257 q 400 1161 400 1201 q 428 1094 400 1122 q 496 1065 457 1065 m 497 -21 q 290 22 381 -21 q 148 142 199 64 q 97 326 97 221 l 97 913 q 129 944 97 944 l 140 944 q 172 913 172 944 l 172 321 q 263 115 172 188 q 497 43 354 43 q 731 115 640 43 q 822 321 822 188 l 822 913 q 854 944 822 944 l 865 944 q 897 913 897 944 l 897 326 q 847 142 897 221 q 705 22 796 64 q 497 -21 614 -21 z "},"Ũ":{"ha":994,"x_min":97,"x_max":897,"o":"m 603 1042 q 540 1053 565 1042 q 483 1086 514 1064 q 439 1113 457 1104 q 396 1121 421 1121 q 342 1110 364 1121 q 301 1078 319 1100 q 269 1057 283 1057 q 244 1069 257 1057 q 235 1089 235 1079 q 249 1118 235 1100 q 393 1185 303 1185 q 459 1174 433 1185 q 514 1140 485 1163 q 556 1114 539 1122 q 600 1106 574 1106 q 654 1116 632 1106 q 694 1149 676 1126 q 726 1169 713 1169 q 751 1157 739 1169 q 761 1138 761 1147 q 747 1108 761 1126 q 603 1042 693 1042 m 497 -21 q 290 22 381 -21 q 148 142 199 64 q 97 326 97 221 l 97 913 q 129 944 97 944 l 140 944 q 172 913 172 944 l 172 321 q 263 115 172 188 q 497 43 354 43 q 731 115 640 43 q 822 321 822 188 l 822 913 q 854 944 822 944 l 865 944 q 897 913 897 944 l 897 326 q 847 142 897 221 q 705 22 796 64 q 497 -21 614 -21 z "},"V":{"ha":1000,"x_min":78,"x_max":925,"o":"m 488 0 q 470 5 475 0 q 460 24 465 10 l 79 919 q 78 928 78 922 q 83 940 78 935 q 96 944 88 944 l 122 944 q 144 939 138 944 q 157 921 151 933 l 500 113 l 843 921 q 856 939 849 933 q 878 944 863 944 l 904 944 q 920 937 915 944 q 921 919 925 929 l 540 24 q 530 5 535 10 q 513 0 525 0 l 488 0 z "},"W":{"ha":1231,"x_min":78,"x_max":1154,"o":"m 335 0 q 317 5 322 0 q 307 24 311 10 l 79 919 q 78 929 78 922 q 96 944 78 944 l 126 944 q 148 940 142 944 q 157 921 154 935 l 351 124 l 572 849 q 581 867 576 861 q 599 872 586 872 l 633 872 q 650 867 646 872 q 658 849 654 861 l 879 124 l 1074 921 q 1083 940 1076 935 q 1104 944 1089 944 l 1135 944 q 1151 938 1147 944 q 1151 919 1154 931 l 924 24 q 914 5 919 10 q 896 0 908 0 l 871 0 q 853 5 858 0 q 843 24 847 10 l 615 771 l 388 24 q 377 5 382 10 q 360 0 372 0 l 335 0 z "},"Ẃ":{"ha":1231,"x_min":78,"x_max":1154,"o":"m 611 1046 q 597 1057 597 1046 l 600 1068 l 671 1264 q 681 1279 675 1275 q 701 1283 688 1283 l 739 1283 q 756 1272 756 1283 q 753 1261 756 1265 l 660 1061 q 649 1049 656 1053 q 632 1046 643 1046 l 611 1046 m 335 0 q 317 5 322 0 q 307 24 311 10 l 79 919 q 78 929 78 922 q 96 944 78 944 l 126 944 q 148 940 142 944 q 157 921 154 935 l 351 124 l 572 849 q 581 867 576 861 q 599 872 586 872 l 633 872 q 650 867 646 872 q 658 849 654 861 l 879 124 l 1074 921 q 1083 940 1076 935 q 1104 944 1089 944 l 1135 944 q 1151 938 1147 944 q 1151 919 1154 931 l 924 24 q 914 5 919 10 q 896 0 908 0 l 871 0 q 853 5 858 0 q 843 24 847 10 l 615 771 l 388 24 q 377 5 382 10 q 360 0 372 0 l 335 0 z "},"Ŵ":{"ha":1231,"x_min":78,"x_max":1154,"o":"m 436 1036 q 419 1044 425 1036 q 419 1061 413 1053 l 575 1278 q 591 1297 586 1293 q 607 1301 596 1301 l 624 1301 q 640 1297 635 1301 q 656 1278 644 1293 l 811 1061 q 814 1051 814 1058 q 808 1040 814 1044 q 794 1036 803 1036 l 768 1036 q 747 1041 753 1036 q 732 1060 742 1046 l 615 1229 l 499 1060 q 483 1041 489 1046 q 463 1036 478 1036 l 436 1036 m 335 0 q 317 5 322 0 q 307 24 311 10 l 79 919 q 78 929 78 922 q 96 944 78 944 l 126 944 q 148 940 142 944 q 157 921 154 935 l 351 124 l 572 849 q 581 867 576 861 q 599 872 586 872 l 633 872 q 650 867 646 872 q 658 849 654 861 l 879 124 l 1074 921 q 1083 940 1076 935 q 1104 944 1089 944 l 1135 944 q 1151 938 1147 944 q 1151 919 1154 931 l 924 24 q 914 5 919 10 q 896 0 908 0 l 871 0 q 853 5 858 0 q 843 24 847 10 l 615 771 l 388 24 q 377 5 382 10 q 360 0 372 0 l 335 0 z "},"Ẅ":{"ha":1231,"x_min":78,"x_max":1154,"o":"m 481 1042 q 448 1056 461 1042 q 435 1090 435 1071 l 435 1108 q 448 1142 435 1128 q 481 1157 461 1157 l 500 1157 q 533 1142 519 1157 q 546 1108 546 1128 l 546 1090 q 533 1056 546 1069 q 500 1042 521 1042 l 481 1042 m 731 1042 q 698 1056 711 1042 q 685 1090 685 1071 l 685 1108 q 698 1142 685 1128 q 731 1157 711 1157 l 750 1157 q 783 1142 769 1157 q 796 1108 796 1128 l 796 1090 q 783 1056 796 1069 q 750 1042 771 1042 l 731 1042 m 335 0 q 317 5 322 0 q 307 24 311 10 l 79 919 q 78 929 78 922 q 96 944 78 944 l 126 944 q 148 940 142 944 q 157 921 154 935 l 351 124 l 572 849 q 581 867 576 861 q 599 872 586 872 l 633 872 q 650 867 646 872 q 658 849 654 861 l 879 124 l 1074 921 q 1083 940 1076 935 q 1104 944 1089 944 l 1135 944 q 1151 938 1147 944 q 1151 919 1154 931 l 924 24 q 914 5 919 10 q 896 0 908 0 l 871 0 q 853 5 858 0 q 843 24 847 10 l 615 771 l 388 24 q 377 5 382 10 q 360 0 372 0 l 335 0 z "},"Ẁ":{"ha":1231,"x_min":78,"x_max":1154,"o":"m 606 1046 q 588 1049 594 1046 q 578 1061 582 1053 l 485 1261 q 482 1272 482 1265 q 499 1283 482 1283 l 536 1283 q 556 1279 550 1283 q 567 1264 563 1275 l 638 1068 l 640 1057 q 626 1046 640 1046 l 606 1046 m 335 0 q 317 5 322 0 q 307 24 311 10 l 79 919 q 78 929 78 922 q 96 944 78 944 l 126 944 q 148 940 142 944 q 157 921 154 935 l 351 124 l 572 849 q 581 867 576 861 q 599 872 586 872 l 633 872 q 650 867 646 872 q 658 849 654 861 l 879 124 l 1074 921 q 1083 940 1076 935 q 1104 944 1089 944 l 1135 944 q 1151 938 1147 944 q 1151 919 1154 931 l 924 24 q 914 5 919 10 q 896 0 908 0 l 871 0 q 853 5 858 0 q 843 24 847 10 l 615 771 l 388 24 q 377 5 382 10 q 360 0 372 0 l 335 0 z "},"X":{"ha":940,"x_min":76,"x_max":864,"o":"m 89 0 q 76 11 76 0 q 82 25 76 18 l 426 481 l 94 919 q 89 933 89 926 q 101 944 89 944 l 142 944 q 160 942 156 944 q 172 931 165 939 l 469 538 l 768 931 q 780 942 775 939 q 799 944 785 944 l 839 944 q 851 933 851 944 q 846 919 851 926 l 513 481 l 858 25 q 864 11 864 18 q 851 0 864 0 l 811 0 q 792 3 797 0 q 781 14 788 6 l 469 424 l 160 14 q 148 3 153 6 q 129 0 143 0 l 89 0 z "},"Y":{"ha":944,"x_min":76,"x_max":871,"o":"m 467 0 q 435 32 435 0 l 435 310 l 79 919 q 76 928 76 925 q 82 940 76 935 q 96 944 88 944 l 122 944 q 144 940 138 944 q 157 921 150 935 l 472 379 l 788 921 q 801 940 794 935 q 822 944 807 944 l 849 944 q 865 937 860 944 q 865 919 871 929 l 510 308 l 510 32 q 478 0 510 0 l 467 0 z "},"Ý":{"ha":944,"x_min":76,"x_max":871,"o":"m 439 1063 q 425 1074 425 1063 l 428 1085 l 499 1281 q 509 1296 503 1292 q 529 1300 515 1300 l 567 1300 q 583 1289 583 1300 q 581 1278 583 1282 l 488 1078 q 477 1066 483 1069 q 460 1063 471 1063 l 439 1063 m 467 0 q 435 32 435 0 l 435 310 l 79 919 q 76 928 76 925 q 82 940 76 935 q 96 944 88 944 l 122 944 q 144 940 138 944 q 157 921 150 935 l 472 379 l 788 921 q 801 940 794 935 q 822 944 807 944 l 849 944 q 865 937 860 944 q 865 919 871 929 l 510 308 l 510 32 q 478 0 510 0 l 467 0 z "},"Ŷ":{"ha":944,"x_min":76,"x_max":871,"o":"m 294 1036 q 277 1044 283 1036 q 278 1061 271 1053 l 433 1278 q 449 1297 444 1293 q 465 1301 454 1301 l 482 1301 q 498 1297 493 1301 q 514 1278 503 1293 l 669 1061 q 672 1051 672 1058 q 667 1040 672 1044 q 653 1036 661 1036 l 626 1036 q 606 1041 611 1036 q 590 1060 600 1046 l 474 1229 l 357 1060 q 342 1041 347 1046 q 321 1036 336 1036 l 294 1036 m 467 0 q 435 32 435 0 l 435 310 l 79 919 q 76 928 76 925 q 82 940 76 935 q 96 944 88 944 l 122 944 q 144 940 138 944 q 157 921 150 935 l 472 379 l 788 921 q 801 940 794 935 q 822 944 807 944 l 849 944 q 865 937 860 944 q 865 919 871 929 l 510 308 l 510 32 q 478 0 510 0 l 467 0 z "},"Ÿ":{"ha":944,"x_min":76,"x_max":871,"o":"m 338 1058 q 305 1073 318 1058 q 292 1107 292 1088 l 292 1125 q 305 1159 292 1144 q 338 1174 318 1174 l 357 1174 q 390 1159 376 1174 q 403 1125 403 1144 l 403 1107 q 390 1072 403 1086 q 357 1058 378 1058 l 338 1058 m 588 1058 q 555 1073 568 1058 q 542 1107 542 1088 l 542 1125 q 555 1159 542 1144 q 588 1174 568 1174 l 607 1174 q 640 1159 626 1174 q 653 1125 653 1144 l 653 1107 q 640 1072 653 1086 q 607 1058 628 1058 l 588 1058 m 467 0 q 435 32 435 0 l 435 310 l 79 919 q 76 928 76 925 q 82 940 76 935 q 96 944 88 944 l 122 944 q 144 940 138 944 q 157 921 150 935 l 472 379 l 788 921 q 801 940 794 935 q 822 944 807 944 l 849 944 q 865 937 860 944 q 865 919 871 929 l 510 308 l 510 32 q 478 0 510 0 l 467 0 z "},"Ẏ":{"ha":944,"x_min":76,"x_max":871,"o":"m 463 1083 q 430 1098 443 1083 q 417 1132 417 1113 l 417 1150 q 430 1184 417 1169 q 463 1199 443 1199 l 482 1199 q 515 1184 501 1199 q 528 1150 528 1169 l 528 1132 q 515 1097 528 1111 q 482 1083 503 1083 l 463 1083 m 467 0 q 435 32 435 0 l 435 310 l 79 919 q 76 928 76 925 q 82 940 76 935 q 96 944 88 944 l 122 944 q 144 940 138 944 q 157 921 150 935 l 472 379 l 788 921 q 801 940 794 935 q 822 944 807 944 l 849 944 q 865 937 860 944 q 865 919 871 929 l 510 308 l 510 32 q 478 0 510 0 l 467 0 z "},"Ỵ":{"ha":944,"x_min":76,"x_max":871,"o":"m 467 0 q 435 32 435 0 l 435 310 l 79 919 q 76 928 76 925 q 82 940 76 935 q 96 944 88 944 l 122 944 q 144 940 138 944 q 157 921 150 935 l 472 379 l 788 921 q 801 940 794 935 q 822 944 807 944 l 849 944 q 865 937 860 944 q 865 919 871 929 l 510 308 l 510 32 q 478 0 510 0 l 467 0 m 463 -224 q 430 -209 443 -224 q 417 -175 417 -194 l 417 -157 q 430 -123 417 -137 q 463 -108 443 -108 l 482 -108 q 515 -123 501 -108 q 528 -157 528 -137 l 528 -175 q 515 -210 528 -196 q 482 -224 503 -224 l 463 -224 z "},"Ỳ":{"ha":944,"x_min":76,"x_max":871,"o":"m 486 1046 q 469 1049 475 1046 q 458 1061 463 1053 l 365 1261 q 363 1272 363 1265 q 379 1283 363 1283 l 417 1283 q 437 1279 431 1283 q 447 1264 443 1275 l 518 1068 l 521 1057 q 507 1046 521 1046 l 486 1046 m 467 0 q 435 32 435 0 l 435 310 l 79 919 q 76 928 76 925 q 82 940 76 935 q 96 944 88 944 l 122 944 q 144 940 138 944 q 157 921 150 935 l 472 379 l 788 921 q 801 940 794 935 q 822 944 807 944 l 849 944 q 865 937 860 944 q 865 919 871 929 l 510 308 l 510 32 q 478 0 510 0 l 467 0 z "},"Ỷ":{"ha":944,"x_min":76,"x_max":871,"o":"m 460 1024 q 428 1056 428 1024 l 428 1108 q 440 1140 428 1129 q 476 1151 453 1151 q 553 1167 532 1151 q 575 1219 575 1183 q 551 1266 575 1251 q 479 1281 528 1281 q 364 1253 418 1281 q 353 1254 354 1249 l 333 1296 q 333 1303 332 1301 q 338 1308 333 1306 q 402 1335 364 1325 q 479 1344 440 1344 q 605 1310 563 1344 q 647 1219 647 1276 q 604 1127 647 1161 q 503 1093 561 1093 l 503 1056 q 471 1024 503 1024 l 460 1024 m 467 0 q 435 32 435 0 l 435 310 l 79 919 q 76 928 76 925 q 82 940 76 935 q 96 944 88 944 l 122 944 q 144 940 138 944 q 157 921 150 935 l 472 379 l 788 921 q 801 940 794 935 q 822 944 807 944 l 849 944 q 865 937 860 944 q 865 919 871 929 l 510 308 l 510 32 q 478 0 510 0 l 467 0 z "},"Ỹ":{"ha":944,"x_min":76,"x_max":871,"o":"m 578 1042 q 515 1053 540 1042 q 458 1086 489 1064 q 414 1113 432 1104 q 371 1121 396 1121 q 317 1110 339 1121 q 276 1078 294 1100 q 244 1057 258 1057 q 219 1069 232 1057 q 210 1089 210 1079 q 224 1118 210 1100 q 368 1185 278 1185 q 434 1174 408 1185 q 489 1140 460 1163 q 531 1114 514 1122 q 575 1106 549 1106 q 629 1116 607 1106 q 669 1149 651 1126 q 701 1169 688 1169 q 726 1157 714 1169 q 736 1138 736 1147 q 722 1108 736 1126 q 578 1042 668 1042 m 467 0 q 435 32 435 0 l 435 310 l 79 919 q 76 928 76 925 q 82 940 76 935 q 96 944 88 944 l 122 944 q 144 940 138 944 q 157 921 150 935 l 472 379 l 788 921 q 801 940 794 935 q 822 944 807 944 l 849 944 q 865 937 860 944 q 865 919 871 929 l 510 308 l 510 32 q 478 0 510 0 l 467 0 z "},"Z":{"ha":874,"x_min":76,"x_max":797,"o":"m 107 0 q 76 29 76 0 q 82 51 76 40 q 100 79 88 63 l 693 876 l 133 876 q 101 907 101 876 l 101 917 q 109 938 101 932 q 133 944 117 944 l 764 944 q 794 915 794 944 q 789 893 794 904 q 771 865 783 882 l 179 68 l 765 68 q 797 38 797 68 l 797 28 q 790 6 797 13 q 765 0 782 0 l 107 0 z "},"Ź":{"ha":874,"x_min":76,"x_max":797,"o":"m 425 1046 q 411 1057 411 1046 l 414 1068 l 485 1264 q 495 1279 489 1275 q 515 1283 501 1283 l 553 1283 q 569 1272 569 1283 q 567 1261 569 1265 l 474 1061 q 463 1049 469 1053 q 446 1046 457 1046 l 425 1046 m 107 0 q 76 29 76 0 q 82 51 76 40 q 100 79 88 63 l 693 876 l 133 876 q 101 907 101 876 l 101 917 q 109 938 101 932 q 133 944 117 944 l 764 944 q 794 915 794 944 q 789 893 794 904 q 771 865 783 882 l 179 68 l 765 68 q 797 38 797 68 l 797 28 q 790 6 797 13 q 765 0 782 0 l 107 0 z "},"Ž":{"ha":874,"x_min":76,"x_max":797,"o":"m 446 1053 q 430 1057 435 1053 q 414 1076 425 1061 l 258 1293 q 256 1303 256 1296 q 261 1314 256 1310 q 275 1318 267 1318 l 301 1318 q 322 1313 317 1318 q 338 1294 328 1308 l 454 1125 l 571 1294 q 586 1313 581 1308 q 607 1318 592 1318 l 633 1318 q 651 1310 644 1318 q 650 1293 657 1301 l 494 1076 q 478 1057 483 1061 q 463 1053 474 1053 l 446 1053 m 107 0 q 76 29 76 0 q 82 51 76 40 q 100 79 88 63 l 693 876 l 133 876 q 101 907 101 876 l 101 917 q 109 938 101 932 q 133 944 117 944 l 764 944 q 794 915 794 944 q 789 893 794 904 q 771 865 783 882 l 179 68 l 765 68 q 797 38 797 68 l 797 28 q 790 6 797 13 q 765 0 782 0 l 107 0 z "},"Ż":{"ha":874,"x_min":76,"x_max":797,"o":"m 442 1083 q 409 1098 422 1083 q 396 1132 396 1113 l 396 1150 q 409 1184 396 1169 q 442 1199 422 1199 l 461 1199 q 494 1184 481 1199 q 507 1150 507 1169 l 507 1132 q 494 1097 507 1111 q 461 1083 482 1083 l 442 1083 m 107 0 q 76 29 76 0 q 82 51 76 40 q 100 79 88 63 l 693 876 l 133 876 q 101 907 101 876 l 101 917 q 109 938 101 932 q 133 944 117 944 l 764 944 q 794 915 794 944 q 789 893 794 904 q 771 865 783 882 l 179 68 l 765 68 q 797 38 797 68 l 797 28 q 790 6 797 13 q 765 0 782 0 l 107 0 z "},"Ẓ":{"ha":874,"x_min":76,"x_max":797,"o":"m 107 0 q 76 29 76 0 q 82 51 76 40 q 100 79 88 63 l 693 876 l 133 876 q 101 907 101 876 l 101 917 q 109 938 101 932 q 133 944 117 944 l 764 944 q 794 915 794 944 q 789 893 794 904 q 771 865 783 882 l 179 68 l 765 68 q 797 38 797 68 l 797 28 q 790 6 797 13 q 765 0 782 0 l 107 0 m 457 -224 q 424 -209 438 -224 q 411 -175 411 -194 l 411 -157 q 424 -123 411 -137 q 457 -108 438 -108 l 476 -108 q 509 -123 496 -108 q 522 -157 522 -137 l 522 -175 q 510 -210 522 -196 q 476 -224 497 -224 l 457 -224 z "},"a":{"ha":850,"x_min":76,"x_max":746,"o":"m 385 -21 q 160 60 243 -21 q 76 289 76 140 q 123 498 76 408 q 259 638 169 588 q 472 688 349 688 q 623 665 549 688 q 746 610 697 643 l 746 32 q 714 0 746 0 l 704 0 q 683 8 689 0 q 675 32 676 15 l 671 99 q 385 -21 576 -21 m 413 43 q 536 69 476 43 q 633 143 596 94 q 671 256 671 192 l 671 576 q 581 610 635 597 q 472 624 528 624 q 235 538 322 624 q 149 297 149 451 q 213 105 149 167 q 413 43 278 43 z "},"á":{"ha":850,"x_min":76,"x_max":746,"o":"m 429 757 q 415 768 415 757 l 418 779 l 489 975 q 499 990 493 986 q 519 994 506 994 l 557 994 q 574 983 574 994 q 571 972 574 976 l 478 772 q 467 760 474 764 q 450 757 461 757 l 429 757 m 385 -21 q 160 60 243 -21 q 76 289 76 140 q 123 498 76 408 q 259 638 169 588 q 472 688 349 688 q 623 665 549 688 q 746 610 697 643 l 746 32 q 714 0 746 0 l 704 0 q 683 8 689 0 q 675 32 676 15 l 671 99 q 385 -21 576 -21 m 413 43 q 536 69 476 43 q 633 143 596 94 q 671 256 671 192 l 671 576 q 581 610 635 597 q 472 624 528 624 q 235 538 322 624 q 149 297 149 451 q 213 105 149 167 q 413 43 278 43 z "},"ă":{"ha":850,"x_min":76,"x_max":746,"o":"m 469 747 q 323 805 372 747 q 274 960 274 863 q 280 978 274 971 q 296 985 286 985 l 329 985 q 348 978 343 985 q 353 958 353 972 q 377 854 353 890 q 469 818 401 818 q 562 854 538 818 q 586 958 586 890 q 591 978 586 972 q 610 985 596 985 l 643 985 q 659 978 653 985 q 665 960 665 971 q 616 805 665 863 q 469 747 567 747 m 385 -21 q 160 60 243 -21 q 76 289 76 140 q 123 498 76 408 q 259 638 169 588 q 472 688 349 688 q 623 665 549 688 q 746 610 697 643 l 746 32 q 714 0 746 0 l 704 0 q 683 8 689 0 q 675 32 676 15 l 671 99 q 385 -21 576 -21 m 413 43 q 536 69 476 43 q 633 143 596 94 q 671 256 671 192 l 671 576 q 581 610 635 597 q 472 624 528 624 q 235 538 322 624 q 149 297 149 451 q 213 105 149 167 q 413 43 278 43 z "},"ắ":{"ha":850,"x_min":76,"x_max":746,"o":"m 440 907 q 426 918 426 907 l 429 929 l 483 1079 q 494 1094 488 1090 q 514 1099 500 1099 l 551 1099 q 568 1088 568 1099 q 565 1076 568 1081 l 489 922 q 478 910 485 914 q 461 907 472 907 l 440 907 m 461 750 q 321 794 376 750 q 265 918 265 838 q 272 936 265 929 q 288 943 278 943 l 321 943 q 340 937 335 943 q 344 917 344 931 q 376 845 344 869 q 461 821 407 821 q 547 845 515 821 q 578 917 578 869 q 583 937 578 931 q 601 943 588 943 l 635 943 q 651 936 644 943 q 657 918 657 929 q 601 794 657 838 q 461 750 546 750 m 385 -21 q 160 60 243 -21 q 76 289 76 140 q 123 498 76 408 q 259 638 169 588 q 472 688 349 688 q 623 665 549 688 q 746 610 697 643 l 746 32 q 714 0 746 0 l 704 0 q 683 8 689 0 q 675 32 676 15 l 671 99 q 385 -21 576 -21 m 413 43 q 536 69 476 43 q 633 143 596 94 q 671 256 671 192 l 671 576 q 581 610 635 597 q 472 624 528 624 q 235 538 322 624 q 149 297 149 451 q 213 105 149 167 q 413 43 278 43 z "},"ặ":{"ha":850,"x_min":76,"x_max":746,"o":"m 469 747 q 323 805 372 747 q 274 960 274 863 q 280 978 274 971 q 296 985 286 985 l 329 985 q 348 978 343 985 q 353 958 353 972 q 377 854 353 890 q 469 818 401 818 q 562 854 538 818 q 586 958 586 890 q 591 978 586 972 q 610 985 596 985 l 643 985 q 659 978 653 985 q 665 960 665 971 q 616 805 665 863 q 469 747 567 747 m 385 -21 q 160 60 243 -21 q 76 289 76 140 q 123 498 76 408 q 259 638 169 588 q 472 688 349 688 q 623 665 549 688 q 746 610 697 643 l 746 32 q 714 0 746 0 l 704 0 q 683 8 689 0 q 675 32 676 15 l 671 99 q 385 -21 576 -21 m 413 43 q 536 69 476 43 q 633 143 596 94 q 671 256 671 192 l 671 576 q 581 610 635 597 q 472 624 528 624 q 235 538 322 624 q 149 297 149 451 q 213 105 149 167 q 413 43 278 43 m 460 -224 q 427 -209 440 -224 q 414 -175 414 -194 l 414 -157 q 427 -123 414 -137 q 460 -108 440 -108 l 479 -108 q 512 -123 499 -108 q 525 -157 525 -137 l 525 -175 q 513 -210 525 -196 q 479 -224 500 -224 l 460 -224 z "},"ằ":{"ha":850,"x_min":76,"x_max":746,"o":"m 469 907 q 452 910 458 907 q 442 922 446 914 l 365 1076 q 363 1088 363 1081 q 379 1099 363 1099 l 417 1099 q 437 1094 431 1099 q 447 1079 443 1090 l 501 929 l 504 918 q 490 907 504 907 l 469 907 m 469 750 q 329 794 385 750 q 274 918 274 838 q 280 936 274 929 q 296 943 286 943 l 329 943 q 348 937 343 943 q 353 917 353 931 q 384 845 353 869 q 469 821 415 821 q 555 845 524 821 q 586 917 586 869 q 591 937 586 931 q 610 943 596 943 l 643 943 q 659 936 653 943 q 665 918 665 929 q 610 794 665 838 q 469 750 554 750 m 385 -21 q 160 60 243 -21 q 76 289 76 140 q 123 498 76 408 q 259 638 169 588 q 472 688 349 688 q 623 665 549 688 q 746 610 697 643 l 746 32 q 714 0 746 0 l 704 0 q 683 8 689 0 q 675 32 676 15 l 671 99 q 385 -21 576 -21 m 413 43 q 536 69 476 43 q 633 143 596 94 q 671 256 671 192 l 671 576 q 581 610 635 597 q 472 624 528 624 q 235 538 322 624 q 149 297 149 451 q 213 105 149 167 q 413 43 278 43 z "},"ẳ":{"ha":850,"x_min":76,"x_max":746,"o":"m 446 900 q 415 932 415 900 l 415 958 q 428 989 415 978 q 463 1000 440 1000 q 510 1009 497 1000 q 524 1042 524 1018 q 510 1071 524 1063 q 465 1079 496 1079 q 386 1061 419 1079 q 376 1063 378 1057 l 357 1100 q 356 1108 356 1106 q 361 1113 357 1110 q 410 1131 381 1124 q 468 1139 439 1139 q 560 1114 528 1139 q 592 1042 592 1089 q 561 969 592 993 q 485 944 531 944 l 485 932 q 457 900 485 900 l 446 900 m 471 751 q 331 794 386 751 q 276 918 276 838 q 283 936 276 929 q 299 943 289 943 l 329 943 q 348 937 343 943 q 353 917 353 931 q 471 819 353 819 q 589 917 589 819 q 594 937 589 931 q 613 943 599 943 l 643 943 q 659 936 653 943 q 665 918 665 929 q 610 794 665 838 q 471 751 556 751 m 385 -21 q 160 60 243 -21 q 76 289 76 140 q 123 498 76 408 q 259 638 169 588 q 472 688 349 688 q 623 665 549 688 q 746 610 697 643 l 746 32 q 714 0 746 0 l 704 0 q 683 8 689 0 q 675 32 676 15 l 671 99 q 385 -21 576 -21 m 413 43 q 536 69 476 43 q 633 143 596 94 q 671 256 671 192 l 671 576 q 581 610 635 597 q 472 624 528 624 q 235 538 322 624 q 149 297 149 451 q 213 105 149 167 q 413 43 278 43 z "},"ẵ":{"ha":850,"x_min":76,"x_max":746,"o":"m 563 994 q 506 1006 529 994 q 456 1039 482 1018 q 417 1064 432 1056 q 383 1072 403 1072 q 338 1063 354 1072 q 304 1031 321 1053 q 272 1010 288 1010 q 249 1022 261 1010 q 239 1040 239 1032 q 253 1069 239 1051 q 381 1135 301 1135 q 442 1123 418 1135 q 490 1090 467 1111 q 524 1065 510 1074 q 560 1057 539 1057 q 606 1067 589 1057 q 639 1099 622 1076 q 671 1119 656 1119 q 694 1107 682 1119 q 704 1089 704 1097 q 690 1060 704 1078 q 563 994 642 994 m 476 751 q 337 794 392 751 q 282 918 282 838 q 288 936 282 929 q 304 943 294 943 l 335 943 q 353 937 349 943 q 358 917 358 931 q 476 819 358 819 q 594 917 594 819 q 599 937 594 931 q 618 943 604 943 l 649 943 q 665 936 658 943 q 671 918 671 929 q 616 794 671 838 q 476 751 561 751 m 385 -21 q 160 60 243 -21 q 76 289 76 140 q 123 498 76 408 q 259 638 169 588 q 472 688 349 688 q 623 665 549 688 q 746 610 697 643 l 746 32 q 714 0 746 0 l 704 0 q 683 8 689 0 q 675 32 676 15 l 671 99 q 385 -21 576 -21 m 413 43 q 536 69 476 43 q 633 143 596 94 q 671 256 671 192 l 671 576 q 581 610 635 597 q 472 624 528 624 q 235 538 322 624 q 149 297 149 451 q 213 105 149 167 q 413 43 278 43 z "},"ǎ":{"ha":850,"x_min":76,"x_max":746,"o":"m 464 747 q 448 751 453 747 q 432 771 443 756 l 276 988 q 274 997 274 990 q 279 1008 274 1004 q 293 1013 285 1013 l 319 1013 q 340 1008 335 1013 q 356 989 346 1003 l 472 819 l 589 989 q 604 1008 599 1003 q 625 1013 610 1013 l 651 1013 q 669 1004 663 1013 q 668 988 675 996 l 513 771 q 497 751 501 756 q 481 747 492 747 l 464 747 m 385 -21 q 160 60 243 -21 q 76 289 76 140 q 123 498 76 408 q 259 638 169 588 q 472 688 349 688 q 623 665 549 688 q 746 610 697 643 l 746 32 q 714 0 746 0 l 704 0 q 683 8 689 0 q 675 32 676 15 l 671 99 q 385 -21 576 -21 m 413 43 q 536 69 476 43 q 633 143 596 94 q 671 256 671 192 l 671 576 q 581 610 635 597 q 472 624 528 624 q 235 538 322 624 q 149 297 149 451 q 213 105 149 167 q 413 43 278 43 z "},"â":{"ha":850,"x_min":76,"x_max":746,"o":"m 268 747 q 251 756 257 747 q 251 772 244 764 l 407 989 q 423 1008 418 1004 q 439 1013 428 1013 l 456 1013 q 472 1008 467 1013 q 488 989 476 1004 l 643 772 q 646 763 646 769 q 640 751 646 756 q 626 747 635 747 l 600 747 q 579 752 585 747 q 564 771 574 757 l 447 940 l 331 771 q 315 752 321 757 q 294 747 310 747 l 268 747 m 385 -21 q 160 60 243 -21 q 76 289 76 140 q 123 498 76 408 q 259 638 169 588 q 472 688 349 688 q 623 665 549 688 q 746 610 697 643 l 746 32 q 714 0 746 0 l 704 0 q 683 8 689 0 q 675 32 676 15 l 671 99 q 385 -21 576 -21 m 413 43 q 536 69 476 43 q 633 143 596 94 q 671 256 671 192 l 671 576 q 581 610 635 597 q 472 624 528 624 q 235 538 322 624 q 149 297 149 451 q 213 105 149 167 q 413 43 278 43 z "},"ấ":{"ha":850,"x_min":76,"x_max":746,"o":"m 588 893 q 574 904 574 893 l 576 915 l 631 1065 q 641 1081 635 1076 q 661 1085 647 1085 l 699 1085 q 715 1074 715 1085 q 713 1063 715 1067 l 636 908 q 626 897 632 900 q 608 893 619 893 l 588 893 m 274 747 q 262 751 267 747 q 257 761 257 756 q 261 772 257 767 l 410 947 q 428 966 422 961 q 446 971 435 971 l 454 971 q 472 966 465 971 q 490 947 478 961 l 639 772 q 643 761 643 767 q 638 751 643 756 q 626 747 633 747 l 600 747 q 582 750 588 747 q 567 763 576 753 l 450 899 l 333 763 q 318 750 324 753 q 300 747 313 747 l 274 747 m 385 -21 q 160 60 243 -21 q 76 289 76 140 q 123 498 76 408 q 259 638 169 588 q 472 688 349 688 q 623 665 549 688 q 746 610 697 643 l 746 32 q 714 0 746 0 l 704 0 q 683 8 689 0 q 675 32 676 15 l 671 99 q 385 -21 576 -21 m 413 43 q 536 69 476 43 q 633 143 596 94 q 671 256 671 192 l 671 576 q 581 610 635 597 q 472 624 528 624 q 235 538 322 624 q 149 297 149 451 q 213 105 149 167 q 413 43 278 43 z "},"ậ":{"ha":850,"x_min":76,"x_max":746,"o":"m 294 747 q 277 756 283 747 q 278 772 271 764 l 433 989 q 449 1008 444 1004 q 465 1013 454 1013 l 482 1013 q 498 1008 493 1013 q 514 989 503 1004 l 669 772 q 672 763 672 769 q 667 751 672 756 q 653 747 661 747 l 626 747 q 606 752 611 747 q 590 771 600 757 l 474 940 l 357 771 q 342 752 347 757 q 321 747 336 747 l 294 747 m 385 -21 q 160 60 243 -21 q 76 289 76 140 q 123 498 76 408 q 259 638 169 588 q 472 688 349 688 q 623 665 549 688 q 746 610 697 643 l 746 32 q 714 0 746 0 l 704 0 q 683 8 689 0 q 675 32 676 15 l 671 99 q 385 -21 576 -21 m 413 43 q 536 69 476 43 q 633 143 596 94 q 671 256 671 192 l 671 576 q 581 610 635 597 q 472 624 528 624 q 235 538 322 624 q 149 297 149 451 q 213 105 149 167 q 413 43 278 43 m 464 -224 q 431 -209 444 -224 q 418 -175 418 -194 l 418 -157 q 431 -123 418 -137 q 464 -108 444 -108 l 483 -108 q 516 -123 503 -108 q 529 -157 529 -137 l 529 -175 q 517 -210 529 -196 q 483 -224 504 -224 l 464 -224 z "},"ầ":{"ha":850,"x_min":76,"x_max":746,"o":"m 293 893 q 276 897 282 893 q 265 908 269 900 l 189 1063 q 186 1074 186 1067 q 203 1085 186 1085 l 240 1085 q 260 1081 254 1085 q 271 1065 267 1076 l 325 915 l 328 904 q 314 893 328 893 l 293 893 m 275 747 q 263 751 268 747 q 258 761 258 756 q 263 772 258 767 l 411 947 q 430 966 424 961 q 447 971 436 971 l 456 971 q 473 966 467 971 q 492 947 479 961 l 640 772 q 644 761 644 767 q 640 751 644 756 q 628 747 635 747 l 601 747 q 583 750 589 747 q 568 763 578 753 l 451 899 l 335 763 q 319 750 325 753 q 301 747 314 747 l 275 747 m 385 -21 q 160 60 243 -21 q 76 289 76 140 q 123 498 76 408 q 259 638 169 588 q 472 688 349 688 q 623 665 549 688 q 746 610 697 643 l 746 32 q 714 0 746 0 l 704 0 q 683 8 689 0 q 675 32 676 15 l 671 99 q 385 -21 576 -21 m 413 43 q 536 69 476 43 q 633 143 596 94 q 671 256 671 192 l 671 576 q 581 610 635 597 q 472 624 528 624 q 235 538 322 624 q 149 297 149 451 q 213 105 149 167 q 413 43 278 43 z "},"ẩ":{"ha":850,"x_min":76,"x_max":761,"o":"m 608 881 q 576 913 576 881 l 576 944 q 589 976 576 965 q 625 988 601 988 q 676 999 661 988 q 690 1035 690 1010 q 628 1076 690 1076 q 546 1057 581 1076 q 535 1058 536 1053 l 515 1099 q 515 1106 514 1104 q 519 1111 515 1108 q 569 1131 539 1124 q 631 1139 600 1139 q 727 1112 693 1139 q 761 1035 761 1085 q 728 956 761 983 q 650 929 696 929 l 650 913 q 619 881 650 881 l 608 881 m 272 747 q 260 751 265 747 q 256 761 256 756 q 260 772 256 767 l 408 947 q 427 966 421 961 q 444 971 433 971 l 453 971 q 470 966 464 971 q 489 947 476 961 l 638 772 q 642 761 642 767 q 637 751 642 756 q 625 747 632 747 l 599 747 q 581 750 586 747 q 565 763 575 753 l 449 899 l 332 763 q 317 750 322 753 q 299 747 311 747 l 272 747 m 385 -21 q 160 60 243 -21 q 76 289 76 140 q 123 498 76 408 q 259 638 169 588 q 472 688 349 688 q 623 665 549 688 q 746 610 697 643 l 746 32 q 714 0 746 0 l 704 0 q 683 8 689 0 q 675 32 676 15 l 671 99 q 385 -21 576 -21 m 413 43 q 536 69 476 43 q 633 143 596 94 q 671 256 671 192 l 671 576 q 581 610 635 597 q 472 624 528 624 q 235 538 322 624 q 149 297 149 451 q 213 105 149 167 q 413 43 278 43 z "},"ẫ":{"ha":850,"x_min":76,"x_max":746,"o":"m 539 994 q 482 1006 506 994 q 432 1039 458 1018 q 394 1064 408 1056 q 360 1072 379 1072 q 314 1063 331 1072 q 281 1031 297 1053 q 249 1010 264 1010 q 225 1022 238 1010 q 215 1040 215 1032 q 229 1069 215 1051 q 357 1135 278 1135 q 419 1123 394 1135 q 467 1090 443 1111 q 501 1065 486 1074 q 536 1057 515 1057 q 582 1067 565 1057 q 615 1099 599 1076 q 647 1119 632 1119 q 671 1107 658 1119 q 681 1089 681 1097 q 667 1060 681 1078 q 539 994 618 994 m 271 747 q 259 751 264 747 q 254 761 254 756 q 258 772 254 767 l 407 947 q 426 966 419 961 q 443 971 432 971 l 451 971 q 469 966 463 971 q 488 947 475 961 l 636 772 q 640 761 640 767 q 635 751 640 756 q 624 747 631 747 l 597 747 q 579 750 585 747 q 564 763 574 753 l 447 899 l 331 763 q 315 750 321 753 q 297 747 310 747 l 271 747 m 385 -21 q 160 60 243 -21 q 76 289 76 140 q 123 498 76 408 q 259 638 169 588 q 472 688 349 688 q 623 665 549 688 q 746 610 697 643 l 746 32 q 714 0 746 0 l 704 0 q 683 8 689 0 q 675 32 676 15 l 671 99 q 385 -21 576 -21 m 413 43 q 536 69 476 43 q 633 143 596 94 q 671 256 671 192 l 671 576 q 581 610 635 597 q 472 624 528 624 q 235 538 322 624 q 149 297 149 451 q 213 105 149 167 q 413 43 278 43 z "},"ä":{"ha":850,"x_min":76,"x_max":746,"o":"m 338 781 q 305 795 318 781 q 292 829 292 810 l 292 847 q 305 881 292 867 q 338 896 318 896 l 357 896 q 390 881 376 896 q 403 847 403 867 l 403 829 q 390 794 403 808 q 357 781 378 781 l 338 781 m 588 781 q 555 795 568 781 q 542 829 542 810 l 542 847 q 555 881 542 867 q 588 896 568 896 l 607 896 q 640 881 626 896 q 653 847 653 867 l 653 829 q 640 794 653 808 q 607 781 628 781 l 588 781 m 385 -21 q 160 60 243 -21 q 76 289 76 140 q 123 498 76 408 q 259 638 169 588 q 472 688 349 688 q 623 665 549 688 q 746 610 697 643 l 746 32 q 714 0 746 0 l 704 0 q 683 8 689 0 q 675 32 676 15 l 671 99 q 385 -21 576 -21 m 413 43 q 536 69 476 43 q 633 143 596 94 q 671 256 671 192 l 671 576 q 581 610 635 597 q 472 624 528 624 q 235 538 322 624 q 149 297 149 451 q 213 105 149 167 q 413 43 278 43 z "},"ạ":{"ha":850,"x_min":76,"x_max":746,"o":"m 385 -21 q 160 60 243 -21 q 76 289 76 140 q 123 498 76 408 q 259 638 169 588 q 472 688 349 688 q 623 665 549 688 q 746 610 697 643 l 746 32 q 714 0 746 0 l 704 0 q 683 8 689 0 q 675 32 676 15 l 671 99 q 385 -21 576 -21 m 413 43 q 536 69 476 43 q 633 143 596 94 q 671 256 671 192 l 671 576 q 581 610 635 597 q 472 624 528 624 q 235 538 322 624 q 149 297 149 451 q 213 105 149 167 q 413 43 278 43 m 414 -224 q 381 -209 394 -224 q 368 -175 368 -194 l 368 -157 q 381 -123 368 -137 q 414 -108 394 -108 l 433 -108 q 466 -123 453 -108 q 479 -157 479 -137 l 479 -175 q 467 -210 479 -196 q 433 -224 454 -224 l 414 -224 z "},"à":{"ha":850,"x_min":76,"x_max":746,"o":"m 500 757 q 483 760 489 757 q 472 772 476 764 l 379 972 q 376 983 376 976 q 393 994 376 994 l 431 994 q 451 990 444 994 q 461 975 457 986 l 532 779 l 535 768 q 521 757 535 757 l 500 757 m 385 -21 q 160 60 243 -21 q 76 289 76 140 q 123 498 76 408 q 259 638 169 588 q 472 688 349 688 q 623 665 549 688 q 746 610 697 643 l 746 32 q 714 0 746 0 l 704 0 q 683 8 689 0 q 675 32 676 15 l 671 99 q 385 -21 576 -21 m 413 43 q 536 69 476 43 q 633 143 596 94 q 671 256 671 192 l 671 576 q 581 610 635 597 q 472 624 528 624 q 235 538 322 624 q 149 297 149 451 q 213 105 149 167 q 413 43 278 43 z "},"ả":{"ha":850,"x_min":76,"x_max":746,"o":"m 456 749 q 424 781 424 749 l 424 833 q 436 865 424 854 q 472 876 449 876 q 549 892 528 876 q 571 944 571 908 q 547 991 571 976 q 475 1006 524 1006 q 360 978 414 1006 q 349 979 350 974 l 329 1021 q 328 1028 328 1026 q 333 1033 329 1031 q 398 1060 360 1050 q 475 1069 436 1069 q 601 1035 558 1069 q 643 944 643 1001 q 600 852 643 886 q 499 818 557 818 l 499 781 q 467 749 499 749 l 456 749 m 385 -21 q 160 60 243 -21 q 76 289 76 140 q 123 498 76 408 q 259 638 169 588 q 472 688 349 688 q 623 665 549 688 q 746 610 697 643 l 746 32 q 714 0 746 0 l 704 0 q 683 8 689 0 q 675 32 676 15 l 671 99 q 385 -21 576 -21 m 413 43 q 536 69 476 43 q 633 143 596 94 q 671 256 671 192 l 671 576 q 581 610 635 597 q 472 624 528 624 q 235 538 322 624 q 149 297 149 451 q 213 105 149 167 q 413 43 278 43 z "},"ɑ":{"ha":850,"x_min":76,"x_max":746,"o":"m 385 -21 q 160 60 243 -21 q 76 289 76 140 q 123 498 76 408 q 259 638 169 588 q 472 688 349 688 q 623 665 549 688 q 746 610 697 643 l 746 32 q 714 0 746 0 l 704 0 q 683 8 689 0 q 675 32 676 15 l 671 99 q 385 -21 576 -21 m 413 43 q 536 69 476 43 q 633 143 596 94 q 671 256 671 192 l 671 576 q 581 610 635 597 q 472 624 528 624 q 235 538 322 624 q 149 297 149 451 q 213 105 149 167 q 413 43 278 43 z "},"ā":{"ha":850,"x_min":76,"x_max":746,"o":"m 282 821 q 258 827 265 821 q 250 849 250 833 l 250 858 q 282 889 250 889 l 668 889 q 700 858 700 889 l 700 849 q 692 827 700 833 q 668 821 685 821 l 282 821 m 385 -21 q 160 60 243 -21 q 76 289 76 140 q 123 498 76 408 q 259 638 169 588 q 472 688 349 688 q 623 665 549 688 q 746 610 697 643 l 746 32 q 714 0 746 0 l 704 0 q 683 8 689 0 q 675 32 676 15 l 671 99 q 385 -21 576 -21 m 413 43 q 536 69 476 43 q 633 143 596 94 q 671 256 671 192 l 671 576 q 581 610 635 597 q 472 624 528 624 q 235 538 322 624 q 149 297 149 451 q 213 105 149 167 q 413 43 278 43 z "},"ą":{"ha":850,"x_min":76,"x_max":754,"o":"m 753 -225 q 754 -233 754 -228 q 739 -249 754 -242 q 674 -260 718 -260 q 599 -233 625 -260 q 572 -167 572 -207 q 592 -87 572 -128 q 657 4 613 -47 q 676 19 668 18 l 675 32 l 671 99 q 385 -21 576 -21 q 160 60 243 -21 q 76 289 76 140 q 123 498 76 408 q 259 638 169 588 q 472 688 349 688 q 623 665 549 688 q 746 610 697 643 l 746 32 q 739 10 746 17 q 735 0 739 4 q 672 -90 689 -56 q 656 -156 656 -124 q 665 -183 656 -174 q 689 -193 674 -193 q 719 -187 708 -193 q 729 -185 728 -185 q 739 -194 735 -185 l 753 -225 m 671 576 q 581 610 635 597 q 472 624 528 624 q 235 538 322 624 q 149 297 149 451 q 213 105 149 167 q 413 43 278 43 q 536 69 476 43 q 633 143 596 94 q 671 256 671 192 l 671 576 z "},"å":{"ha":850,"x_min":76,"x_max":746,"o":"m 450 735 q 342 778 386 735 q 299 886 299 822 q 342 994 299 950 q 450 1039 386 1039 q 558 994 514 1039 q 603 886 603 950 q 558 778 603 822 q 450 735 514 735 m 450 790 q 518 819 490 790 q 546 886 546 847 q 518 954 546 926 q 450 982 490 982 q 383 954 411 982 q 354 886 354 926 q 383 819 354 847 q 450 790 411 790 m 385 -21 q 160 60 243 -21 q 76 289 76 140 q 123 498 76 408 q 259 638 169 588 q 472 688 349 688 q 623 665 549 688 q 746 610 697 643 l 746 32 q 714 0 746 0 l 704 0 q 683 8 689 0 q 675 32 676 15 l 671 99 q 385 -21 576 -21 m 413 43 q 536 69 476 43 q 633 143 596 94 q 671 256 671 192 l 671 576 q 581 610 635 597 q 472 624 528 624 q 235 538 322 624 q 149 297 149 451 q 213 105 149 167 q 413 43 278 43 z "},"ǻ":{"ha":850,"x_min":76,"x_max":746,"o":"m 408 1114 q 397 1132 389 1114 l 468 1289 q 478 1301 472 1297 q 499 1304 485 1304 l 536 1304 q 550 1286 561 1304 l 457 1126 q 447 1117 453 1119 q 429 1114 440 1114 l 408 1114 m 451 735 q 344 778 388 735 q 300 886 300 822 q 344 994 300 950 q 451 1039 388 1039 q 560 994 515 1039 q 604 886 604 950 q 560 778 604 822 q 451 735 515 735 m 451 790 q 519 819 492 790 q 547 886 547 847 q 519 954 547 926 q 451 982 492 982 q 384 954 413 982 q 356 886 356 926 q 384 819 356 847 q 451 790 413 790 m 385 -21 q 160 60 243 -21 q 76 289 76 140 q 123 498 76 408 q 259 638 169 588 q 472 688 349 688 q 623 665 549 688 q 746 610 697 643 l 746 32 q 714 0 746 0 l 704 0 q 683 8 689 0 q 675 32 676 15 l 671 99 q 385 -21 576 -21 m 413 43 q 536 69 476 43 q 633 143 596 94 q 671 256 671 192 l 671 576 q 581 610 635 597 q 472 624 528 624 q 235 538 322 624 q 149 297 149 451 q 213 105 149 167 q 413 43 278 43 z "},"ã":{"ha":850,"x_min":76,"x_max":746,"o":"m 565 781 q 502 792 528 781 q 446 825 476 803 q 401 851 419 843 q 358 860 383 860 q 304 849 326 860 q 264 817 282 839 q 232 796 246 796 q 207 808 219 796 q 197 828 197 818 q 211 857 197 839 q 356 924 265 924 q 422 913 396 924 q 476 879 447 901 q 519 853 501 861 q 563 844 536 844 q 617 855 594 844 q 657 888 639 865 q 689 908 675 908 q 714 896 701 908 q 724 876 724 886 q 710 847 724 865 q 565 781 656 781 m 385 -21 q 160 60 243 -21 q 76 289 76 140 q 123 498 76 408 q 259 638 169 588 q 472 688 349 688 q 623 665 549 688 q 746 610 697 643 l 746 32 q 714 0 746 0 l 704 0 q 683 8 689 0 q 675 32 676 15 l 671 99 q 385 -21 576 -21 m 413 43 q 536 69 476 43 q 633 143 596 94 q 671 256 671 192 l 671 576 q 581 610 635 597 q 472 624 528 624 q 235 538 322 624 q 149 297 149 451 q 213 105 149 167 q 413 43 278 43 z "},"æ":{"ha":1350,"x_min":76,"x_max":1274,"o":"m 322 -21 q 144 27 213 -21 q 76 174 76 75 q 146 332 76 281 q 340 383 215 383 l 603 383 l 603 415 q 585 535 603 490 q 522 603 568 581 q 389 625 475 625 q 280 615 322 625 q 181 583 238 604 l 169 581 q 153 596 158 581 l 143 619 q 142 628 142 622 q 163 647 142 640 q 389 689 276 689 q 563 652 503 689 q 656 539 624 615 q 767 649 694 611 q 940 688 840 688 q 1274 328 1274 688 q 1267 308 1274 315 q 1246 300 1260 300 l 678 300 q 753 110 678 176 q 965 43 828 43 q 1088 58 1031 43 q 1186 101 1146 74 q 1196 106 1192 106 q 1206 97 1201 106 l 1224 67 q 1226 57 1226 63 q 1217 44 1226 51 q 1095 -5 1165 11 q 954 -21 1025 -21 q 647 139 738 -21 q 519 19 606 60 q 322 -21 432 -21 m 1201 368 q 1137 558 1201 493 q 940 624 1072 624 q 678 368 678 624 l 1201 368 m 328 43 q 525 91 447 43 q 603 232 603 139 l 603 315 l 329 315 q 194 281 240 315 q 149 174 149 247 q 192 75 149 107 q 328 43 235 43 z "},"ǽ":{"ha":1350,"x_min":76,"x_max":1274,"o":"m 632 757 q 618 768 618 757 l 621 779 l 692 975 q 702 990 696 986 q 722 994 708 994 l 760 994 q 776 983 776 994 q 774 972 776 976 l 681 772 q 670 760 676 764 q 653 757 664 757 l 632 757 m 322 -21 q 144 27 213 -21 q 76 174 76 75 q 146 332 76 281 q 340 383 215 383 l 603 383 l 603 415 q 585 535 603 490 q 522 603 568 581 q 389 625 475 625 q 280 615 322 625 q 181 583 238 604 l 169 581 q 153 596 158 581 l 143 619 q 142 628 142 622 q 163 647 142 640 q 389 689 276 689 q 563 652 503 689 q 656 539 624 615 q 767 649 694 611 q 940 688 840 688 q 1274 328 1274 688 q 1267 308 1274 315 q 1246 300 1260 300 l 678 300 q 753 110 678 176 q 965 43 828 43 q 1088 58 1031 43 q 1186 101 1146 74 q 1196 106 1192 106 q 1206 97 1201 106 l 1224 67 q 1226 57 1226 63 q 1217 44 1226 51 q 1095 -5 1165 11 q 954 -21 1025 -21 q 647 139 738 -21 q 519 19 606 60 q 322 -21 432 -21 m 1201 368 q 1137 558 1201 493 q 940 624 1072 624 q 678 368 678 624 l 1201 368 m 328 43 q 525 91 447 43 q 603 232 603 139 l 603 315 l 329 315 q 194 281 240 315 q 149 174 149 247 q 192 75 149 107 q 328 43 235 43 z "},"b":{"ha":850,"x_min":104,"x_max":774,"o":"m 399 -21 q 232 3 314 -21 q 104 63 150 26 l 104 913 q 136 944 104 944 l 147 944 q 179 913 179 944 l 179 596 q 458 688 272 688 q 690 602 607 688 q 774 361 774 517 q 681 78 774 178 q 399 -21 588 -21 m 399 43 q 627 120 553 43 q 701 353 701 197 q 638 556 701 490 q 431 622 574 622 q 313 603 371 622 q 217 542 256 583 q 179 439 179 500 l 179 96 q 275 58 214 72 q 399 43 336 43 z "},"c":{"ha":790,"x_min":76,"x_max":713,"o":"m 451 -21 q 176 69 275 -21 q 76 329 76 160 q 122 515 76 433 q 248 642 167 597 q 435 688 329 688 q 580 672 518 688 q 693 621 642 657 q 703 611 701 615 q 700 599 704 607 l 682 568 q 672 560 678 560 q 663 564 669 560 q 569 608 621 593 q 440 624 517 624 q 227 544 306 624 q 149 329 149 465 q 228 114 149 185 q 456 43 308 43 q 672 104 586 43 q 682 108 678 108 q 692 100 688 108 l 710 69 q 713 60 713 61 q 703 47 713 53 q 451 -21 599 -21 z "},"ć":{"ha":790,"x_min":76,"x_max":713,"o":"m 385 757 q 371 768 371 757 l 374 779 l 444 975 q 455 990 449 986 q 475 994 461 994 l 513 994 q 529 983 529 994 q 526 972 529 976 l 433 772 q 423 760 429 764 q 406 757 417 757 l 385 757 m 451 -21 q 176 69 275 -21 q 76 329 76 160 q 122 515 76 433 q 248 642 167 597 q 435 688 329 688 q 580 672 518 688 q 693 621 642 657 q 703 611 701 615 q 700 599 704 607 l 682 568 q 672 560 678 560 q 663 564 669 560 q 569 608 621 593 q 440 624 517 624 q 227 544 306 624 q 149 329 149 465 q 228 114 149 185 q 456 43 308 43 q 672 104 586 43 q 682 108 678 108 q 692 100 688 108 l 710 69 q 713 60 713 61 q 703 47 713 53 q 451 -21 599 -21 z "},"č":{"ha":790,"x_min":76,"x_max":713,"o":"m 433 761 q 417 765 422 761 q 401 785 413 769 l 246 1001 q 243 1011 243 1004 q 249 1022 243 1018 q 263 1026 254 1026 l 289 1026 q 310 1022 304 1026 q 325 1003 315 1017 l 442 833 l 558 1003 q 574 1022 568 1017 q 594 1026 579 1026 l 621 1026 q 638 1018 632 1026 q 638 1001 644 1010 l 482 785 q 466 765 471 769 q 450 761 461 761 l 433 761 m 451 -21 q 176 69 275 -21 q 76 329 76 160 q 122 515 76 433 q 248 642 167 597 q 435 688 329 688 q 580 672 518 688 q 693 621 642 657 q 703 611 701 615 q 700 599 704 607 l 682 568 q 672 560 678 560 q 663 564 669 560 q 569 608 621 593 q 440 624 517 624 q 227 544 306 624 q 149 329 149 465 q 228 114 149 185 q 456 43 308 43 q 672 104 586 43 q 682 108 678 108 q 692 100 688 108 l 710 69 q 713 60 713 61 q 703 47 713 53 q 451 -21 599 -21 z "},"ç":{"ha":790,"x_min":76,"x_max":713,"o":"m 710 69 q 713 60 713 61 q 703 47 713 53 q 500 -19 617 -10 q 497 -29 500 -21 l 465 -99 q 544 -125 515 -99 q 574 -201 574 -151 q 539 -282 574 -254 q 444 -310 504 -310 q 354 -287 390 -310 q 339 -276 342 -279 q 340 -262 336 -272 l 351 -239 q 364 -228 356 -228 q 376 -233 365 -228 q 444 -250 404 -250 q 493 -238 479 -250 q 507 -199 507 -226 q 485 -153 507 -164 q 411 -143 463 -143 l 393 -143 q 378 -137 382 -143 q 379 -121 375 -131 l 417 -26 l 419 -19 q 167 78 258 -12 q 76 329 76 168 q 122 515 76 433 q 248 642 167 597 q 435 688 329 688 q 580 672 518 688 q 693 621 642 657 q 703 611 701 615 q 700 599 704 607 l 682 568 q 672 560 678 560 q 663 564 669 560 q 569 608 621 593 q 440 624 517 624 q 227 544 306 624 q 149 329 149 465 q 228 114 149 185 q 456 43 308 43 q 672 104 586 43 q 682 108 678 108 q 692 100 688 108 l 710 69 z "},"ĉ":{"ha":790,"x_min":76,"x_max":713,"o":"m 269 747 q 252 756 258 747 q 253 772 246 764 l 408 989 q 424 1008 419 1004 q 440 1013 429 1013 l 457 1013 q 473 1008 468 1013 q 489 989 478 1004 l 644 772 q 647 763 647 769 q 642 751 647 756 q 628 747 636 747 l 601 747 q 581 752 586 747 q 565 771 575 757 l 449 940 l 332 771 q 317 752 322 757 q 296 747 311 747 l 269 747 m 451 -21 q 176 69 275 -21 q 76 329 76 160 q 122 515 76 433 q 248 642 167 597 q 435 688 329 688 q 580 672 518 688 q 693 621 642 657 q 703 611 701 615 q 700 599 704 607 l 682 568 q 672 560 678 560 q 663 564 669 560 q 569 608 621 593 q 440 624 517 624 q 227 544 306 624 q 149 329 149 465 q 228 114 149 185 q 456 43 308 43 q 672 104 586 43 q 682 108 678 108 q 692 100 688 108 l 710 69 q 713 60 713 61 q 703 47 713 53 q 451 -21 599 -21 z "},"ċ":{"ha":790,"x_min":76,"x_max":713,"o":"m 438 781 q 405 795 418 781 q 392 829 392 810 l 392 847 q 405 881 392 867 q 438 896 418 896 l 457 896 q 490 881 476 896 q 503 847 503 867 l 503 829 q 490 794 503 808 q 457 781 478 781 l 438 781 m 451 -21 q 176 69 275 -21 q 76 329 76 160 q 122 515 76 433 q 248 642 167 597 q 435 688 329 688 q 580 672 518 688 q 693 621 642 657 q 703 611 701 615 q 700 599 704 607 l 682 568 q 672 560 678 560 q 663 564 669 560 q 569 608 621 593 q 440 624 517 624 q 227 544 306 624 q 149 329 149 465 q 228 114 149 185 q 456 43 308 43 q 672 104 586 43 q 682 108 678 108 q 692 100 688 108 l 710 69 q 713 60 713 61 q 703 47 713 53 q 451 -21 599 -21 z "},"d":{"ha":850,"x_min":76,"x_max":746,"o":"m 451 -21 q 169 67 261 -21 q 76 333 76 154 q 118 518 76 438 q 234 643 160 599 q 406 688 308 688 q 567 665 501 688 q 671 596 632 643 l 671 913 q 703 944 671 944 l 714 944 q 746 913 746 944 l 746 63 q 618 3 700 26 q 451 -21 536 -21 m 451 43 q 575 58 514 43 q 671 96 636 72 l 671 439 q 601 575 671 528 q 429 622 531 622 q 219 544 289 622 q 149 325 149 465 q 224 110 149 176 q 451 43 299 43 z "},"ð":{"ha":943,"x_min":76,"x_max":867,"o":"m 369 -21 q 155 48 233 -21 q 76 240 76 117 q 126 464 76 369 q 270 609 176 558 q 493 660 364 660 q 657 626 589 660 q 768 519 725 592 q 774 622 774 569 q 726 821 774 753 l 656 722 q 646 712 650 715 q 635 708 642 708 l 589 708 q 577 714 579 708 q 579 726 575 719 l 679 867 q 538 901 622 901 q 437 890 479 901 q 349 854 394 879 q 339 850 342 850 q 331 858 335 850 l 315 892 q 314 899 314 894 q 320 908 314 904 q 328 914 326 913 q 550 965 414 965 q 718 921 649 965 l 786 1017 q 796 1027 792 1024 q 807 1031 800 1031 l 853 1031 q 865 1025 863 1031 q 863 1013 867 1019 l 768 879 q 846 621 846 792 q 821 403 846 518 q 653 79 774 179 q 369 -21 532 -21 m 383 43 q 534 78 463 43 q 659 183 606 114 q 735 350 713 253 q 740 399 740 372 q 703 505 740 461 q 609 572 667 549 q 492 594 551 594 q 240 503 329 594 q 150 240 150 413 q 210 92 150 140 q 383 43 271 43 z "},"ď":{"ha":1008,"x_min":76,"x_max":972,"o":"m 828 799 q 814 810 814 799 l 817 821 l 888 1017 q 898 1032 892 1028 q 918 1036 904 1036 l 956 1036 q 972 1025 972 1036 q 969 1014 972 1018 l 876 814 q 866 802 872 806 q 849 799 860 799 l 828 799 m 451 -21 q 169 67 261 -21 q 76 333 76 154 q 118 518 76 438 q 234 643 160 599 q 406 688 308 688 q 567 665 501 688 q 671 596 632 643 l 671 913 q 703 944 671 944 l 714 944 q 746 913 746 944 l 746 63 q 618 3 700 26 q 451 -21 536 -21 m 451 43 q 575 58 514 43 q 671 96 636 72 l 671 439 q 601 575 671 528 q 429 622 531 622 q 219 544 289 622 q 149 325 149 465 q 224 110 149 176 q 451 43 299 43 z "},"đ":{"ha":907,"x_min":76,"x_max":872,"o":"m 451 -21 q 169 67 261 -21 q 76 333 76 154 q 118 518 76 438 q 234 643 160 599 q 406 688 308 688 q 567 665 501 688 q 671 596 632 643 l 671 763 l 399 763 q 374 769 382 763 q 367 790 367 775 l 367 800 q 399 831 367 831 l 671 831 l 671 913 q 703 944 671 944 l 714 944 q 746 913 746 944 l 746 831 l 840 831 q 872 800 872 831 l 872 790 q 865 769 872 775 q 840 763 857 763 l 746 763 l 746 63 q 618 3 700 26 q 451 -21 536 -21 m 451 43 q 575 58 514 43 q 671 96 636 72 l 671 439 q 601 575 671 528 q 429 622 531 622 q 219 544 289 622 q 149 325 149 465 q 224 110 149 176 q 451 43 299 43 z "},"ḍ":{"ha":850,"x_min":76,"x_max":746,"o":"m 451 -21 q 169 67 261 -21 q 76 333 76 154 q 118 518 76 438 q 234 643 160 599 q 406 688 308 688 q 567 665 501 688 q 671 596 632 643 l 671 913 q 703 944 671 944 l 714 944 q 746 913 746 944 l 746 63 q 618 3 700 26 q 451 -21 536 -21 m 451 43 q 575 58 514 43 q 671 96 636 72 l 671 439 q 601 575 671 528 q 429 622 531 622 q 219 544 289 622 q 149 325 149 465 q 224 110 149 176 q 451 43 299 43 m 443 -224 q 410 -209 424 -224 q 397 -175 397 -194 l 397 -157 q 410 -123 397 -137 q 443 -108 424 -108 l 463 -108 q 495 -123 482 -108 q 508 -157 508 -137 l 508 -175 q 496 -210 508 -196 q 463 -224 483 -224 l 443 -224 z "},"ḏ":{"ha":850,"x_min":76,"x_max":746,"o":"m 451 -21 q 169 67 261 -21 q 76 333 76 154 q 118 518 76 438 q 234 643 160 599 q 406 688 308 688 q 567 665 501 688 q 671 596 632 643 l 671 913 q 703 944 671 944 l 714 944 q 746 913 746 944 l 746 63 q 618 3 700 26 q 451 -21 536 -21 m 451 43 q 575 58 514 43 q 671 96 636 72 l 671 439 q 601 575 671 528 q 429 622 531 622 q 219 544 289 622 q 149 325 149 465 q 224 110 149 176 q 451 43 299 43 m 246 -186 q 222 -180 229 -186 q 214 -158 214 -174 l 214 -149 q 246 -118 214 -118 l 632 -118 q 664 -149 664 -118 l 664 -158 q 656 -180 664 -174 q 632 -186 649 -186 l 246 -186 z "},"e":{"ha":836,"x_min":76,"x_max":760,"o":"m 440 -21 q 179 63 282 -21 q 76 319 76 146 q 168 594 76 500 q 426 688 260 688 q 760 328 760 688 q 753 308 760 315 q 732 300 746 300 l 150 300 q 230 108 150 174 q 451 43 310 43 q 574 58 517 43 q 672 101 632 74 q 682 106 678 106 q 692 97 688 106 l 710 67 q 713 57 713 63 q 703 44 713 51 q 581 -5 651 11 q 440 -21 511 -21 m 688 368 q 622 557 688 490 q 426 624 557 624 q 222 554 294 624 q 150 368 150 485 l 688 368 z "},"é":{"ha":836,"x_min":76,"x_max":760,"o":"m 389 757 q 375 768 375 757 l 378 779 l 449 975 q 459 990 453 986 q 479 994 465 994 l 517 994 q 533 983 533 994 q 531 972 533 976 l 438 772 q 427 760 433 764 q 410 757 421 757 l 389 757 m 440 -21 q 179 63 282 -21 q 76 319 76 146 q 168 594 76 500 q 426 688 260 688 q 760 328 760 688 q 753 308 760 315 q 732 300 746 300 l 150 300 q 230 108 150 174 q 451 43 310 43 q 574 58 517 43 q 672 101 632 74 q 682 106 678 106 q 692 97 688 106 l 710 67 q 713 57 713 63 q 703 44 713 51 q 581 -5 651 11 q 440 -21 511 -21 m 688 368 q 622 557 688 490 q 426 624 557 624 q 222 554 294 624 q 150 368 150 485 l 688 368 z "},"ĕ":{"ha":836,"x_min":76,"x_max":760,"o":"m 426 747 q 280 805 329 747 q 231 960 231 863 q 237 978 231 971 q 253 985 243 985 l 286 985 q 305 978 300 985 q 310 958 310 972 q 334 854 310 890 q 426 818 358 818 q 519 854 494 818 q 543 958 543 890 q 548 978 543 972 q 567 985 553 985 l 600 985 q 616 978 610 985 q 622 960 622 971 q 573 805 622 863 q 426 747 524 747 m 440 -21 q 179 63 282 -21 q 76 319 76 146 q 168 594 76 500 q 426 688 260 688 q 760 328 760 688 q 753 308 760 315 q 732 300 746 300 l 150 300 q 230 108 150 174 q 451 43 310 43 q 574 58 517 43 q 672 101 632 74 q 682 106 678 106 q 692 97 688 106 l 710 67 q 713 57 713 63 q 703 44 713 51 q 581 -5 651 11 q 440 -21 511 -21 m 688 368 q 622 557 688 490 q 426 624 557 624 q 222 554 294 624 q 150 368 150 485 l 688 368 z "},"ě":{"ha":836,"x_min":76,"x_max":760,"o":"m 424 747 q 408 751 413 747 q 392 771 403 756 l 236 988 q 233 997 233 990 q 239 1008 233 1004 q 253 1013 244 1013 l 279 1013 q 300 1008 294 1013 q 315 989 306 1003 l 432 819 l 549 989 q 564 1008 558 1003 q 585 1013 569 1013 l 611 1013 q 628 1004 622 1013 q 628 988 635 996 l 472 771 q 456 751 461 756 q 440 747 451 747 l 424 747 m 440 -21 q 179 63 282 -21 q 76 319 76 146 q 168 594 76 500 q 426 688 260 688 q 760 328 760 688 q 753 308 760 315 q 732 300 746 300 l 150 300 q 230 108 150 174 q 451 43 310 43 q 574 58 517 43 q 672 101 632 74 q 682 106 678 106 q 692 97 688 106 l 710 67 q 713 57 713 63 q 703 44 713 51 q 581 -5 651 11 q 440 -21 511 -21 m 688 368 q 622 557 688 490 q 426 624 557 624 q 222 554 294 624 q 150 368 150 485 l 688 368 z "},"ê":{"ha":836,"x_min":76,"x_max":760,"o":"m 253 747 q 235 756 242 747 q 236 772 229 764 l 392 989 q 408 1008 403 1004 q 424 1013 413 1013 l 440 1013 q 456 1008 451 1013 q 472 989 461 1004 l 628 772 q 631 763 631 769 q 625 751 631 756 q 611 747 619 747 l 585 747 q 564 752 569 747 q 549 771 558 757 l 432 940 l 315 771 q 300 752 306 757 q 279 747 294 747 l 253 747 m 440 -21 q 179 63 282 -21 q 76 319 76 146 q 168 594 76 500 q 426 688 260 688 q 760 328 760 688 q 753 308 760 315 q 732 300 746 300 l 150 300 q 230 108 150 174 q 451 43 310 43 q 574 58 517 43 q 672 101 632 74 q 682 106 678 106 q 692 97 688 106 l 710 67 q 713 57 713 63 q 703 44 713 51 q 581 -5 651 11 q 440 -21 511 -21 m 688 368 q 622 557 688 490 q 426 624 557 624 q 222 554 294 624 q 150 368 150 485 l 688 368 z "},"ế":{"ha":836,"x_min":76,"x_max":760,"o":"m 560 893 q 546 904 546 893 l 549 915 l 603 1065 q 613 1081 607 1076 q 633 1085 619 1085 l 671 1085 q 688 1074 688 1085 q 685 1063 688 1067 l 608 908 q 598 897 604 900 q 581 893 592 893 l 560 893 m 246 747 q 234 751 239 747 q 229 761 229 756 q 233 772 229 767 l 382 947 q 401 966 394 961 q 418 971 407 971 l 426 971 q 444 966 438 971 q 463 947 450 961 l 611 772 q 615 761 615 767 q 610 751 615 756 q 599 747 606 747 l 572 747 q 554 750 560 747 q 539 763 549 753 l 422 899 l 306 763 q 290 750 296 753 q 272 747 285 747 l 246 747 m 440 -21 q 179 63 282 -21 q 76 319 76 146 q 168 594 76 500 q 426 688 260 688 q 760 328 760 688 q 753 308 760 315 q 732 300 746 300 l 150 300 q 230 108 150 174 q 451 43 310 43 q 574 58 517 43 q 672 101 632 74 q 682 106 678 106 q 692 97 688 106 l 710 67 q 713 57 713 63 q 703 44 713 51 q 581 -5 651 11 q 440 -21 511 -21 m 688 368 q 622 557 688 490 q 426 624 557 624 q 222 554 294 624 q 150 368 150 485 l 688 368 z "},"ệ":{"ha":836,"x_min":76,"x_max":760,"o":"m 247 747 q 230 756 236 747 q 231 772 224 764 l 386 989 q 402 1008 397 1004 q 418 1013 407 1013 l 435 1013 q 451 1008 446 1013 q 467 989 456 1004 l 622 772 q 625 763 625 769 q 619 751 625 756 q 606 747 614 747 l 579 747 q 558 752 564 747 q 543 771 553 757 l 426 940 l 310 771 q 294 752 300 757 q 274 747 289 747 l 247 747 m 440 -21 q 179 63 282 -21 q 76 319 76 146 q 168 594 76 500 q 426 688 260 688 q 760 328 760 688 q 753 308 760 315 q 732 300 746 300 l 150 300 q 230 108 150 174 q 451 43 310 43 q 574 58 517 43 q 672 101 632 74 q 682 106 678 106 q 692 97 688 106 l 710 67 q 713 57 713 63 q 703 44 713 51 q 581 -5 651 11 q 440 -21 511 -21 m 688 368 q 622 557 688 490 q 426 624 557 624 q 222 554 294 624 q 150 368 150 485 l 688 368 m 417 -224 q 384 -209 397 -224 q 371 -175 371 -194 l 371 -157 q 384 -123 371 -137 q 417 -108 397 -108 l 436 -108 q 469 -123 456 -108 q 482 -157 482 -137 l 482 -175 q 469 -210 482 -196 q 436 -224 457 -224 l 417 -224 z "},"ề":{"ha":836,"x_min":76,"x_max":760,"o":"m 263 893 q 245 897 251 893 q 235 908 239 900 l 158 1063 q 156 1074 156 1067 q 172 1085 156 1085 l 210 1085 q 230 1081 224 1085 q 240 1065 236 1076 l 294 915 l 297 904 q 283 893 297 893 l 263 893 m 244 747 q 233 751 238 747 q 228 761 228 756 q 232 772 228 767 l 381 947 q 399 966 393 961 q 417 971 406 971 l 425 971 q 442 966 436 971 q 461 947 449 961 l 610 772 q 614 761 614 767 q 609 751 614 756 q 597 747 604 747 l 571 747 q 553 750 558 747 q 538 763 547 753 l 421 899 l 304 763 q 289 750 294 753 q 271 747 283 747 l 244 747 m 440 -21 q 179 63 282 -21 q 76 319 76 146 q 168 594 76 500 q 426 688 260 688 q 760 328 760 688 q 753 308 760 315 q 732 300 746 300 l 150 300 q 230 108 150 174 q 451 43 310 43 q 574 58 517 43 q 672 101 632 74 q 682 106 678 106 q 692 97 688 106 l 710 67 q 713 57 713 63 q 703 44 713 51 q 581 -5 651 11 q 440 -21 511 -21 m 688 368 q 622 557 688 490 q 426 624 557 624 q 222 554 294 624 q 150 368 150 485 l 688 368 z "},"ể":{"ha":836,"x_min":76,"x_max":760,"o":"m 582 881 q 550 913 550 881 l 550 944 q 563 976 550 965 q 599 988 575 988 q 649 999 635 988 q 664 1035 664 1010 q 601 1076 664 1076 q 519 1057 554 1076 q 508 1058 510 1053 l 489 1099 q 488 1106 488 1104 q 493 1111 489 1108 q 543 1131 513 1124 q 604 1139 574 1139 q 701 1112 667 1139 q 735 1035 735 1085 q 702 956 735 983 q 624 929 669 929 l 624 913 q 593 881 624 881 l 582 881 m 246 747 q 234 751 239 747 q 229 761 229 756 q 233 772 229 767 l 382 947 q 401 966 394 961 q 418 971 407 971 l 426 971 q 444 966 438 971 q 463 947 450 961 l 611 772 q 615 761 615 767 q 610 751 615 756 q 599 747 606 747 l 572 747 q 554 750 560 747 q 539 763 549 753 l 422 899 l 306 763 q 290 750 296 753 q 272 747 285 747 l 246 747 m 440 -21 q 179 63 282 -21 q 76 319 76 146 q 168 594 76 500 q 426 688 260 688 q 760 328 760 688 q 753 308 760 315 q 732 300 746 300 l 150 300 q 230 108 150 174 q 451 43 310 43 q 574 58 517 43 q 672 101 632 74 q 682 106 678 106 q 692 97 688 106 l 710 67 q 713 57 713 63 q 703 44 713 51 q 581 -5 651 11 q 440 -21 511 -21 m 688 368 q 622 557 688 490 q 426 624 557 624 q 222 554 294 624 q 150 368 150 485 l 688 368 z "},"ễ":{"ha":836,"x_min":76,"x_max":760,"o":"m 517 994 q 460 1006 483 994 q 410 1039 436 1018 q 372 1064 386 1056 q 338 1072 357 1072 q 292 1063 308 1072 q 258 1031 275 1053 q 226 1010 242 1010 q 203 1022 215 1010 q 193 1040 193 1032 q 207 1069 193 1051 q 335 1135 256 1135 q 397 1123 372 1135 q 444 1090 421 1111 q 478 1065 464 1074 q 514 1057 493 1057 q 560 1067 543 1057 q 593 1099 576 1076 q 625 1119 610 1119 q 649 1107 636 1119 q 658 1089 658 1097 q 644 1060 658 1078 q 517 994 596 994 m 249 747 q 237 751 242 747 q 232 761 232 756 q 236 772 232 767 l 385 947 q 403 966 397 961 q 421 971 410 971 l 429 971 q 447 966 440 971 q 465 947 453 961 l 614 772 q 618 761 618 767 q 613 751 618 756 q 601 747 608 747 l 575 747 q 557 750 563 747 q 542 763 551 753 l 425 899 l 308 763 q 293 750 299 753 q 275 747 288 747 l 249 747 m 440 -21 q 179 63 282 -21 q 76 319 76 146 q 168 594 76 500 q 426 688 260 688 q 760 328 760 688 q 753 308 760 315 q 732 300 746 300 l 150 300 q 230 108 150 174 q 451 43 310 43 q 574 58 517 43 q 672 101 632 74 q 682 106 678 106 q 692 97 688 106 l 710 67 q 713 57 713 63 q 703 44 713 51 q 581 -5 651 11 q 440 -21 511 -21 m 688 368 q 622 557 688 490 q 426 624 557 624 q 222 554 294 624 q 150 368 150 485 l 688 368 z "},"ë":{"ha":836,"x_min":76,"x_max":760,"o":"m 294 753 q 262 767 275 753 q 249 801 249 782 l 249 819 q 262 853 249 839 q 294 868 275 868 l 314 868 q 347 853 333 868 q 360 819 360 839 l 360 801 q 347 767 360 781 q 314 753 335 753 l 294 753 m 544 753 q 512 767 525 753 q 499 801 499 782 l 499 819 q 512 853 499 839 q 544 868 525 868 l 564 868 q 597 853 583 868 q 610 819 610 839 l 610 801 q 597 767 610 781 q 564 753 585 753 l 544 753 m 440 -21 q 179 63 282 -21 q 76 319 76 146 q 168 594 76 500 q 426 688 260 688 q 760 328 760 688 q 753 308 760 315 q 732 300 746 300 l 150 300 q 230 108 150 174 q 451 43 310 43 q 574 58 517 43 q 672 101 632 74 q 682 106 678 106 q 692 97 688 106 l 710 67 q 713 57 713 63 q 703 44 713 51 q 581 -5 651 11 q 440 -21 511 -21 m 688 368 q 622 557 688 490 q 426 624 557 624 q 222 554 294 624 q 150 368 150 485 l 688 368 z "},"ė":{"ha":836,"x_min":76,"x_max":760,"o":"m 421 781 q 388 795 401 781 q 375 829 375 810 l 375 847 q 388 881 375 867 q 421 896 401 896 l 440 896 q 473 881 460 896 q 486 847 486 867 l 486 829 q 474 794 486 808 q 440 781 461 781 l 421 781 m 440 -21 q 179 63 282 -21 q 76 319 76 146 q 168 594 76 500 q 426 688 260 688 q 760 328 760 688 q 753 308 760 315 q 732 300 746 300 l 150 300 q 230 108 150 174 q 451 43 310 43 q 574 58 517 43 q 672 101 632 74 q 682 106 678 106 q 692 97 688 106 l 710 67 q 713 57 713 63 q 703 44 713 51 q 581 -5 651 11 q 440 -21 511 -21 m 688 368 q 622 557 688 490 q 426 624 557 624 q 222 554 294 624 q 150 368 150 485 l 688 368 z "},"ẹ":{"ha":836,"x_min":76,"x_max":760,"o":"m 440 -21 q 179 63 282 -21 q 76 319 76 146 q 168 594 76 500 q 426 688 260 688 q 760 328 760 688 q 753 308 760 315 q 732 300 746 300 l 150 300 q 230 108 150 174 q 451 43 310 43 q 574 58 517 43 q 672 101 632 74 q 682 106 678 106 q 692 97 688 106 l 710 67 q 713 57 713 63 q 703 44 713 51 q 581 -5 651 11 q 440 -21 511 -21 m 688 368 q 622 557 688 490 q 426 624 557 624 q 222 554 294 624 q 150 368 150 485 l 688 368 m 417 -224 q 384 -209 397 -224 q 371 -175 371 -194 l 371 -157 q 384 -123 371 -137 q 417 -108 397 -108 l 436 -108 q 469 -123 456 -108 q 482 -157 482 -137 l 482 -175 q 469 -210 482 -196 q 436 -224 457 -224 l 417 -224 z "},"è":{"ha":836,"x_min":76,"x_max":760,"o":"m 450 757 q 433 760 439 757 q 422 772 426 764 l 329 972 q 326 983 326 976 q 343 994 326 994 l 381 994 q 401 990 394 994 q 411 975 407 986 l 482 779 l 485 768 q 471 757 485 757 l 450 757 m 440 -21 q 179 63 282 -21 q 76 319 76 146 q 168 594 76 500 q 426 688 260 688 q 760 328 760 688 q 753 308 760 315 q 732 300 746 300 l 150 300 q 230 108 150 174 q 451 43 310 43 q 574 58 517 43 q 672 101 632 74 q 682 106 678 106 q 692 97 688 106 l 710 67 q 713 57 713 63 q 703 44 713 51 q 581 -5 651 11 q 440 -21 511 -21 m 688 368 q 622 557 688 490 q 426 624 557 624 q 222 554 294 624 q 150 368 150 485 l 688 368 z "},"ẻ":{"ha":836,"x_min":76,"x_max":760,"o":"m 400 735 q 368 767 368 735 l 368 819 q 381 851 368 840 q 417 863 393 863 q 494 878 472 863 q 515 931 515 894 q 492 977 515 963 q 419 992 468 992 q 304 964 358 992 q 293 965 294 960 l 274 1007 q 273 1015 272 1013 q 278 1019 274 1017 q 342 1046 304 1036 q 419 1056 381 1056 q 545 1022 503 1056 q 588 931 588 988 q 544 838 588 872 q 443 804 501 804 l 443 767 q 411 735 443 735 l 400 735 m 440 -21 q 179 63 282 -21 q 76 319 76 146 q 168 594 76 500 q 426 688 260 688 q 760 328 760 688 q 753 308 760 315 q 732 300 746 300 l 150 300 q 230 108 150 174 q 451 43 310 43 q 574 58 517 43 q 672 101 632 74 q 682 106 678 106 q 692 97 688 106 l 710 67 q 713 57 713 63 q 703 44 713 51 q 581 -5 651 11 q 440 -21 511 -21 m 688 368 q 622 557 688 490 q 426 624 557 624 q 222 554 294 624 q 150 368 150 485 l 688 368 z "},"ē":{"ha":836,"x_min":76,"x_max":760,"o":"m 231 807 q 206 813 214 807 q 199 835 199 819 l 199 844 q 231 875 199 875 l 617 875 q 649 844 649 875 l 649 835 q 641 813 649 819 q 617 807 633 807 l 231 807 m 440 -21 q 179 63 282 -21 q 76 319 76 146 q 168 594 76 500 q 426 688 260 688 q 760 328 760 688 q 753 308 760 315 q 732 300 746 300 l 150 300 q 230 108 150 174 q 451 43 310 43 q 574 58 517 43 q 672 101 632 74 q 682 106 678 106 q 692 97 688 106 l 710 67 q 713 57 713 63 q 703 44 713 51 q 581 -5 651 11 q 440 -21 511 -21 m 688 368 q 622 557 688 490 q 426 624 557 624 q 222 554 294 624 q 150 368 150 485 l 688 368 z "},"ę":{"ha":836,"x_min":76,"x_max":760,"o":"m 649 -212 q 574 -186 600 -212 q 547 -119 547 -160 q 589 -3 547 -67 q 440 -21 518 -21 q 179 63 282 -21 q 76 319 76 146 q 168 594 76 500 q 426 688 260 688 q 760 328 760 688 q 753 308 760 315 q 732 300 746 300 l 150 300 q 230 108 150 174 q 451 43 310 43 q 574 58 517 43 q 672 101 632 74 q 682 106 678 106 q 692 97 688 106 l 710 67 l 711 65 q 714 58 714 63 q 710 47 714 54 q 647 -42 664 -8 q 631 -108 631 -76 q 640 -136 631 -126 q 664 -146 649 -146 q 694 -140 683 -146 q 704 -137 703 -137 q 714 -147 710 -137 l 728 -178 q 729 -186 729 -181 q 714 -201 729 -194 q 649 -212 693 -212 m 688 368 q 622 557 688 490 q 426 624 557 624 q 222 554 294 624 q 150 368 150 485 l 688 368 z "},"ẽ":{"ha":836,"x_min":76,"x_max":760,"o":"m 538 767 q 474 778 500 767 q 418 811 449 789 q 374 838 392 829 q 331 846 356 846 q 276 835 299 846 q 236 803 254 825 q 204 782 218 782 q 179 794 192 782 q 169 814 169 804 q 183 843 169 825 q 328 910 238 910 q 394 899 368 910 q 449 865 419 888 q 491 839 474 847 q 535 831 508 831 q 589 841 567 831 q 629 874 611 851 q 661 894 647 894 q 686 882 674 894 q 696 863 696 872 q 682 833 696 851 q 538 767 628 767 m 440 -21 q 179 63 282 -21 q 76 319 76 146 q 168 594 76 500 q 426 688 260 688 q 760 328 760 688 q 753 308 760 315 q 732 300 746 300 l 150 300 q 230 108 150 174 q 451 43 310 43 q 574 58 517 43 q 672 101 632 74 q 682 106 678 106 q 692 97 688 106 l 710 67 q 713 57 713 63 q 703 44 713 51 q 581 -5 651 11 q 440 -21 511 -21 m 688 368 q 622 557 688 490 q 426 624 557 624 q 222 554 294 624 q 150 368 150 485 l 688 368 z "},"f":{"ha":568,"x_min":49,"x_max":547,"o":"m 194 0 q 163 32 163 0 l 163 599 l 81 599 q 49 629 49 599 l 49 639 q 56 660 49 654 q 81 667 64 667 l 163 667 l 163 749 q 215 907 163 849 q 371 965 267 965 q 536 918 467 965 q 545 908 543 913 q 543 896 547 903 l 524 865 q 514 857 519 857 q 504 861 511 857 q 443 892 472 882 q 374 901 414 901 q 268 863 299 901 q 238 744 238 825 l 238 667 l 463 667 q 487 660 479 667 q 494 639 494 654 l 494 629 q 463 599 494 599 l 238 599 l 238 32 q 206 0 238 0 l 194 0 z "},"g":{"ha":850,"x_min":76,"x_max":746,"o":"m 449 -236 q 186 -185 293 -236 q 179 -162 171 -176 l 200 -126 q 210 -118 204 -118 q 219 -122 214 -118 q 320 -158 261 -144 q 444 -172 379 -172 q 617 -111 564 -172 q 671 99 671 -50 q 555 8 621 36 q 397 -21 489 -21 q 164 66 251 -21 q 76 307 76 153 q 178 587 76 486 q 464 688 281 688 q 621 667 542 688 q 746 617 700 647 l 746 99 q 675 -151 746 -67 q 449 -236 604 -236 m 421 44 q 542 70 485 44 q 635 144 599 96 q 671 256 671 192 l 671 583 q 580 613 636 601 q 464 624 524 624 q 231 545 314 624 q 149 315 149 467 q 421 44 149 44 z "},"ğ":{"ha":850,"x_min":76,"x_max":746,"o":"m 451 747 q 305 805 354 747 q 256 960 256 863 q 262 978 256 971 q 278 985 268 985 l 311 985 q 330 978 325 985 q 335 958 335 972 q 359 854 335 890 q 451 818 383 818 q 544 854 519 818 q 568 958 568 890 q 573 978 568 972 q 592 985 578 985 l 625 985 q 641 978 635 985 q 647 960 647 971 q 598 805 647 863 q 451 747 549 747 m 449 -236 q 186 -185 293 -236 q 179 -162 171 -176 l 200 -126 q 210 -118 204 -118 q 219 -122 214 -118 q 320 -158 261 -144 q 444 -172 379 -172 q 617 -111 564 -172 q 671 99 671 -50 q 555 8 621 36 q 397 -21 489 -21 q 164 66 251 -21 q 76 307 76 153 q 178 587 76 486 q 464 688 281 688 q 621 667 542 688 q 746 617 700 647 l 746 99 q 675 -151 746 -67 q 449 -236 604 -236 m 421 44 q 542 70 485 44 q 635 144 599 96 q 671 256 671 192 l 671 583 q 580 613 636 601 q 464 624 524 624 q 231 545 314 624 q 149 315 149 467 q 421 44 149 44 z "},"ǧ":{"ha":850,"x_min":76,"x_max":746,"o":"m 464 747 q 448 751 453 747 q 432 771 443 756 l 276 988 q 274 997 274 990 q 279 1008 274 1004 q 293 1013 285 1013 l 319 1013 q 340 1008 335 1013 q 356 989 346 1003 l 472 819 l 589 989 q 604 1008 599 1003 q 625 1013 610 1013 l 651 1013 q 669 1004 663 1013 q 668 988 675 996 l 513 771 q 497 751 501 756 q 481 747 492 747 l 464 747 m 449 -236 q 186 -185 293 -236 q 179 -162 171 -176 l 200 -126 q 210 -118 204 -118 q 219 -122 214 -118 q 320 -158 261 -144 q 444 -172 379 -172 q 617 -111 564 -172 q 671 99 671 -50 q 555 8 621 36 q 397 -21 489 -21 q 164 66 251 -21 q 76 307 76 153 q 178 587 76 486 q 464 688 281 688 q 621 667 542 688 q 746 617 700 647 l 746 99 q 675 -151 746 -67 q 449 -236 604 -236 m 421 44 q 542 70 485 44 q 635 144 599 96 q 671 256 671 192 l 671 583 q 580 613 636 601 q 464 624 524 624 q 231 545 314 624 q 149 315 149 467 q 421 44 149 44 z "},"ĝ":{"ha":850,"x_min":76,"x_max":746,"o":"m 264 747 q 247 756 253 747 q 247 772 240 764 l 403 989 q 419 1008 414 1004 q 435 1013 424 1013 l 451 1013 q 467 1008 463 1013 q 483 989 472 1004 l 639 772 q 642 763 642 769 q 636 751 642 756 q 622 747 631 747 l 596 747 q 575 752 581 747 q 560 771 569 757 l 443 940 l 326 771 q 311 752 317 757 q 290 747 306 747 l 264 747 m 449 -236 q 186 -185 293 -236 q 179 -162 171 -176 l 200 -126 q 210 -118 204 -118 q 219 -122 214 -118 q 320 -158 261 -144 q 444 -172 379 -172 q 617 -111 564 -172 q 671 99 671 -50 q 555 8 621 36 q 397 -21 489 -21 q 164 66 251 -21 q 76 307 76 153 q 178 587 76 486 q 464 688 281 688 q 621 667 542 688 q 746 617 700 647 l 746 99 q 675 -151 746 -67 q 449 -236 604 -236 m 421 44 q 542 70 485 44 q 635 144 599 96 q 671 256 671 192 l 671 583 q 580 613 636 601 q 464 624 524 624 q 231 545 314 624 q 149 315 149 467 q 421 44 149 44 z "},"ģ":{"ha":850,"x_min":76,"x_max":746,"o":"m 428 790 q 411 801 411 790 l 414 813 l 503 1018 q 513 1030 507 1026 q 531 1033 519 1033 l 547 1033 q 560 1022 560 1033 q 558 1011 560 1015 l 492 810 q 481 794 488 799 q 461 790 475 790 l 428 790 m 449 -236 q 186 -185 293 -236 q 179 -162 171 -176 l 200 -126 q 210 -118 204 -118 q 219 -122 214 -118 q 320 -158 261 -144 q 444 -172 379 -172 q 617 -111 564 -172 q 671 99 671 -50 q 555 8 621 36 q 397 -21 489 -21 q 164 66 251 -21 q 76 307 76 153 q 178 587 76 486 q 464 688 281 688 q 621 667 542 688 q 746 617 700 647 l 746 99 q 675 -151 746 -67 q 449 -236 604 -236 m 421 44 q 542 70 485 44 q 635 144 599 96 q 671 256 671 192 l 671 583 q 580 613 636 601 q 464 624 524 624 q 231 545 314 624 q 149 315 149 467 q 421 44 149 44 z "},"ġ":{"ha":850,"x_min":76,"x_max":746,"o":"m 450 801 q 417 816 431 801 q 404 850 404 831 l 404 868 q 417 902 404 888 q 450 917 431 917 l 469 917 q 502 902 489 917 q 515 868 515 888 l 515 850 q 503 815 515 829 q 469 801 490 801 l 450 801 m 449 -236 q 186 -185 293 -236 q 179 -162 171 -176 l 200 -126 q 210 -118 204 -118 q 219 -122 214 -118 q 320 -158 261 -144 q 444 -172 379 -172 q 617 -111 564 -172 q 671 99 671 -50 q 555 8 621 36 q 397 -21 489 -21 q 164 66 251 -21 q 76 307 76 153 q 178 587 76 486 q 464 688 281 688 q 621 667 542 688 q 746 617 700 647 l 746 99 q 675 -151 746 -67 q 449 -236 604 -236 m 421 44 q 542 70 485 44 q 635 144 599 96 q 671 256 671 192 l 671 583 q 580 613 636 601 q 464 624 524 624 q 231 545 314 624 q 149 315 149 467 q 421 44 149 44 z "},"ḡ":{"ha":850,"x_min":76,"x_max":746,"o":"m 256 807 q 231 813 239 807 q 224 835 224 819 l 224 844 q 256 875 224 875 l 642 875 q 674 844 674 875 l 674 835 q 666 813 674 819 q 642 807 658 807 l 256 807 m 449 -236 q 186 -185 293 -236 q 179 -162 171 -176 l 200 -126 q 210 -118 204 -118 q 219 -122 214 -118 q 320 -158 261 -144 q 444 -172 379 -172 q 617 -111 564 -172 q 671 99 671 -50 q 555 8 621 36 q 397 -21 489 -21 q 164 66 251 -21 q 76 307 76 153 q 178 587 76 486 q 464 688 281 688 q 621 667 542 688 q 746 617 700 647 l 746 99 q 675 -151 746 -67 q 449 -236 604 -236 m 421 44 q 542 70 485 44 q 635 144 599 96 q 671 256 671 192 l 671 583 q 580 613 636 601 q 464 624 524 624 q 231 545 314 624 q 149 315 149 467 q 421 44 149 44 z "},"h":{"ha":817,"x_min":104,"x_max":719,"o":"m 136 0 q 104 32 104 0 l 104 913 q 110 937 104 929 q 131 944 115 944 l 153 944 q 174 937 168 944 q 179 913 179 929 l 179 568 q 471 688 289 688 q 652 630 585 688 q 719 454 719 572 l 719 32 q 688 0 719 0 l 676 0 q 644 32 644 0 l 644 450 q 597 584 644 544 q 453 624 549 624 q 326 598 389 624 q 221 526 263 572 q 179 422 179 479 l 179 32 q 147 0 179 0 l 136 0 z "},"ħ":{"ha":846,"x_min":49,"x_max":749,"o":"m 500 688 q 681 630 614 688 q 749 454 749 572 l 749 32 q 717 0 749 0 l 706 0 q 674 32 674 0 l 674 450 q 626 584 674 544 q 482 624 578 624 q 355 598 418 624 q 250 526 292 572 q 208 422 208 479 l 208 32 q 176 0 208 0 l 165 0 q 133 32 133 0 l 133 765 l 81 765 q 56 772 64 765 q 49 793 49 778 l 49 803 q 81 833 49 833 l 133 833 l 133 913 q 139 937 133 929 q 160 944 144 944 l 182 944 q 203 937 197 944 q 208 913 208 929 l 208 833 l 467 833 q 499 803 499 833 l 499 793 q 491 772 499 778 q 467 765 483 765 l 208 765 l 208 568 q 500 688 318 688 z "},"ḫ":{"ha":817,"x_min":104,"x_max":719,"o":"m 136 0 q 104 32 104 0 l 104 913 q 110 937 104 929 q 131 944 115 944 l 153 944 q 174 937 168 944 q 179 913 179 929 l 179 568 q 471 688 289 688 q 652 630 585 688 q 719 454 719 572 l 719 32 q 688 0 719 0 l 676 0 q 644 32 644 0 l 644 450 q 597 584 644 544 q 453 624 549 624 q 326 598 389 624 q 221 526 263 572 q 179 422 179 479 l 179 32 q 147 0 179 0 l 136 0 m 419 -289 q 273 -231 322 -289 q 224 -76 224 -174 q 230 -58 224 -65 q 246 -51 236 -51 l 279 -51 q 298 -58 293 -51 q 303 -78 303 -64 q 327 -182 303 -146 q 419 -218 351 -218 q 512 -182 488 -218 q 536 -78 536 -146 q 541 -58 536 -64 q 560 -51 546 -51 l 593 -51 q 609 -58 603 -51 q 615 -76 615 -65 q 566 -231 615 -174 q 419 -289 517 -289 z "},"ĥ":{"ha":817,"x_min":104,"x_max":719,"o":"m 135 1011 q 117 1019 124 1011 q 118 1036 111 1028 l 274 1253 q 290 1272 285 1268 q 306 1276 294 1276 l 322 1276 q 338 1272 333 1276 q 354 1253 343 1268 l 510 1036 q 513 1026 513 1033 q 507 1015 513 1019 q 493 1011 501 1011 l 467 1011 q 446 1016 451 1011 q 431 1035 440 1021 l 314 1204 l 197 1035 q 182 1016 188 1021 q 161 1011 176 1011 l 135 1011 m 136 0 q 104 32 104 0 l 104 913 q 110 937 104 929 q 131 944 115 944 l 153 944 q 174 937 168 944 q 179 913 179 929 l 179 568 q 471 688 289 688 q 652 630 585 688 q 719 454 719 572 l 719 32 q 688 0 719 0 l 676 0 q 644 32 644 0 l 644 450 q 597 584 644 544 q 453 624 549 624 q 326 598 389 624 q 221 526 263 572 q 179 422 179 479 l 179 32 q 147 0 179 0 l 136 0 z "},"ḥ":{"ha":817,"x_min":104,"x_max":719,"o":"m 136 0 q 104 32 104 0 l 104 913 q 110 937 104 929 q 131 944 115 944 l 153 944 q 174 937 168 944 q 179 913 179 929 l 179 568 q 471 688 289 688 q 652 630 585 688 q 719 454 719 572 l 719 32 q 688 0 719 0 l 676 0 q 644 32 644 0 l 644 450 q 597 584 644 544 q 453 624 549 624 q 326 598 389 624 q 221 526 263 572 q 179 422 179 479 l 179 32 q 147 0 179 0 l 136 0 m 415 -224 q 383 -209 396 -224 q 369 -175 369 -194 l 369 -157 q 383 -123 369 -137 q 415 -108 396 -108 l 435 -108 q 467 -123 454 -108 q 481 -157 481 -137 l 481 -175 q 468 -210 481 -196 q 435 -224 456 -224 l 415 -224 z "},"i":{"ha":314,"x_min":104,"x_max":210,"o":"m 147 828 q 117 841 129 828 q 104 874 104 854 l 104 899 q 117 931 104 918 q 147 944 129 944 l 167 944 q 197 931 185 944 q 210 899 210 918 l 210 874 q 198 841 210 854 q 167 828 186 828 l 147 828 m 151 0 q 119 32 119 0 l 119 635 q 151 667 119 667 l 163 667 q 194 635 194 667 l 194 32 q 163 0 194 0 l 151 0 z "},"ı":{"ha":283,"x_min":104,"x_max":179,"o":"m 136 0 q 104 32 104 0 l 104 635 q 136 667 104 667 l 147 667 q 179 635 179 667 l 179 32 q 147 0 179 0 l 136 0 z "},"í":{"ha":283,"x_min":104,"x_max":269,"o":"m 125 799 q 111 810 111 799 l 114 821 l 185 1017 q 195 1032 189 1028 q 215 1036 201 1036 l 253 1036 q 269 1025 269 1036 q 267 1014 269 1018 l 174 814 q 163 802 169 806 q 146 799 157 799 l 125 799 m 136 0 q 104 32 104 0 l 104 635 q 136 667 104 667 l 147 667 q 179 635 179 667 l 179 32 q 147 0 179 0 l 136 0 z "},"ĭ":{"ha":283,"x_min":-54,"x_max":338,"o":"m 142 747 q -5 805 44 747 q -54 960 -54 863 q -48 978 -54 971 q -32 985 -42 985 l 1 985 q 20 978 15 985 q 25 958 25 972 q 49 854 25 890 q 142 818 74 818 q 234 854 210 818 q 258 958 258 890 q 263 978 258 972 q 282 985 268 985 l 315 985 q 331 978 325 985 q 338 960 338 971 q 288 805 338 863 q 142 747 239 747 m 136 0 q 104 32 104 0 l 104 635 q 136 667 104 667 l 147 667 q 179 635 179 667 l 179 32 q 147 0 179 0 l 136 0 z "},"ǐ":{"ha":283,"x_min":-57,"x_max":344,"o":"m 133 747 q 117 751 122 747 q 101 771 113 756 l -54 988 q -57 997 -57 990 q -51 1008 -57 1004 q -37 1013 -46 1013 l -11 1013 q 10 1008 4 1013 q 25 989 15 1003 l 142 819 l 258 989 q 274 1008 268 1003 q 294 1013 279 1013 l 321 1013 q 338 1004 332 1013 q 338 988 344 996 l 182 771 q 166 751 171 756 q 150 747 161 747 l 133 747 m 136 0 q 104 32 104 0 l 104 635 q 136 667 104 667 l 147 667 q 179 635 179 667 l 179 32 q 147 0 179 0 l 136 0 z "}}}
